<svg width="101" height="30" viewBox="0 0 101 30" fill="none" xmlns="http://www.w3.org/2000/svg">
<g clip-path="url(#clip0)">
<path fill-rule="evenodd" clip-rule="evenodd" d="M62.8575 23.4608C57.0464 27.7249 48.6234 29.9999 41.3714 29.9999C31.203 29.9999 22.0488 26.2559 15.1232 20.0288C14.5791 19.5391 15.0666 18.8718 15.7196 19.2531C23.1936 23.5822 32.4349 26.1865 41.9809 26.1865C48.4188 26.1865 55.5011 24.8605 62.0131 22.1088C62.9968 21.6928 63.8195 22.7502 62.8575 23.4608Z" fill="#31343C"/>
<path fill-rule="evenodd" clip-rule="evenodd" d="M65.2735 20.7092C64.5335 19.7645 60.3634 20.2628 58.4917 20.4838C57.9214 20.5532 57.8344 20.0591 58.348 19.7038C61.6693 17.3768 67.1191 18.0485 67.7547 18.8285C68.3902 19.6128 67.5893 25.0512 64.4682 27.6469C63.9894 28.0456 63.5323 27.8332 63.7456 27.3046C64.4465 25.5625 66.0179 21.6582 65.2735 20.7092Z" fill="#31343C"/>
<path fill-rule="evenodd" clip-rule="evenodd" d="M58.6219 3.27605V1.01402C58.6219 0.671685 58.8831 0.442017 59.1965 0.442017H69.3693C69.6958 0.442017 69.9569 0.676019 69.9569 1.01402V2.95104C69.9526 3.27605 69.6784 3.70072 69.1908 4.37239L63.9194 11.8648C65.8782 11.8171 67.9459 12.1075 69.7219 13.1041C70.1224 13.3295 70.2312 13.6588 70.2616 13.9838V16.3975C70.2616 16.7269 69.896 17.1125 69.5129 16.9132C66.3832 15.2795 62.2261 15.1018 58.7656 16.9305C58.413 17.1212 58.043 16.7399 58.043 16.4105V14.1182C58.043 13.7498 58.0473 13.1215 58.4173 12.5625L64.5245 3.84372H59.2096C58.8831 3.84372 58.6219 3.61405 58.6219 3.27605Z" fill="#31343C"/>
<path fill-rule="evenodd" clip-rule="evenodd" d="M21.513 17.3899H18.4181C18.1221 17.3682 17.887 17.1472 17.8652 16.8656V1.05308C17.8652 0.736742 18.1308 0.485404 18.4616 0.485404H21.3476C21.6479 0.498396 21.8873 0.728073 21.9091 1.01408V3.0811H21.9657C22.7188 1.08341 24.1335 0.151733 26.04 0.151733C27.9771 0.151733 29.1872 1.08341 30.0578 3.0811C30.8065 1.08341 32.5085 0.151733 34.3324 0.151733C35.6296 0.151733 37.0486 0.684739 37.9149 1.88075C38.8943 3.2111 38.694 5.14378 38.694 6.83814L38.6897 16.8179C38.6897 17.1342 38.4242 17.3899 38.0933 17.3899H35.0027C34.6937 17.3682 34.4456 17.1212 34.4456 16.8179V8.43715C34.4456 7.76981 34.5065 6.10579 34.3585 5.47312C34.1278 4.41145 33.4357 4.11244 32.539 4.11244C31.7903 4.11244 31.0068 4.61078 30.689 5.40812C30.3712 6.20546 30.4017 7.54014 30.4017 8.43715V16.8179C30.4017 17.1342 30.1362 17.3899 29.8053 17.3899H26.7148C26.4013 17.3682 26.1576 17.1212 26.1576 16.8179L26.1532 8.43715C26.1532 6.67347 26.4449 4.07777 24.2466 4.07777C22.0223 4.07777 22.1094 6.60846 22.1094 8.43715V16.8179C22.1094 17.1342 21.8438 17.3899 21.513 17.3899" fill="#31343C"/>
<path fill-rule="evenodd" clip-rule="evenodd" d="M78.7157 0.151733C83.308 0.151733 85.7936 4.07777 85.7936 9.06983C85.7936 13.8929 83.0468 17.7192 78.7157 17.7192C74.206 17.7192 71.751 13.7932 71.751 8.90082C71.751 3.9781 74.2365 0.151733 78.7157 0.151733ZM78.7418 3.3801C76.4609 3.3801 76.3172 6.47413 76.3172 8.40248C76.3172 10.3352 76.2867 14.4605 78.7157 14.4605C81.1141 14.4605 81.2273 11.1325 81.2273 9.10449C81.2273 7.76981 81.1707 6.17513 80.7659 4.90978C80.4177 3.80911 79.7256 3.3801 78.7418 3.3801Z" fill="#31343C"/>
<path fill-rule="evenodd" clip-rule="evenodd" d="M91.7479 17.3899H88.666C88.357 17.3682 88.1088 17.1212 88.1088 16.8179L88.1045 1.00108C88.1306 0.710739 88.3874 0.485404 88.7008 0.485404H91.5694C91.8393 0.498396 92.0613 0.680407 92.1223 0.927409V3.34543H92.1788C93.0451 1.18308 94.2595 0.151733 96.3968 0.151733C97.7854 0.151733 99.1392 0.650073 100.01 2.01509C100.819 3.28043 100.819 5.40812 100.819 6.9378V16.8916C100.785 17.1689 100.528 17.3899 100.223 17.3899H97.1194C96.8365 17.3682 96.6014 17.1602 96.571 16.8916V8.30282C96.571 6.5738 96.7712 4.04311 94.6339 4.04311C93.8808 4.04311 93.1887 4.54578 92.8448 5.30845C92.4095 6.2748 92.353 7.23681 92.353 8.30282V16.8179C92.3486 17.1342 92.0787 17.3899 91.7479 17.3899" fill="#31343C"/>
<path fill-rule="evenodd" clip-rule="evenodd" d="M50.512 9.83677C50.512 11.0371 50.5425 12.0381 49.9331 13.1041C49.4412 13.9708 48.6576 14.5038 47.7914 14.5038C46.6031 14.5038 45.9066 13.6025 45.9066 12.2721C45.9066 9.6461 48.2702 9.16943 50.512 9.16943V9.83677ZM53.6331 17.3465C53.4285 17.5285 53.1325 17.5415 52.9018 17.4202C51.8745 16.5708 51.6873 16.1765 51.1258 15.3662C49.4281 17.0908 48.2223 17.6065 46.0241 17.6065C43.4167 17.6065 41.3926 16.0075 41.3926 12.8051C41.3926 10.3048 42.7507 8.60176 44.6921 7.76975C46.3723 7.03307 48.7186 6.90307 50.512 6.69941V6.30073C50.512 5.56839 50.5686 4.70171 50.1333 4.06905C49.7589 3.50137 49.0363 3.26737 48.3965 3.26737C47.2168 3.26737 46.1678 3.86971 45.9109 5.11772C45.8587 5.39506 45.6541 5.66806 45.3712 5.68106L42.372 5.36039C42.1195 5.30406 41.8366 5.10039 41.9106 4.71472C42.5983 1.09201 45.8892 0 48.8318 0C50.3379 0 52.3054 0.398672 53.4938 1.53402C54.9999 2.9337 54.8562 4.80138 54.8562 6.83374V11.6351C54.8562 13.0781 55.4569 13.7108 56.0228 14.4908C56.2187 14.7682 56.2622 15.1018 56.0098 15.3098C55.3786 15.8342 54.2555 16.8092 53.6374 17.3552L53.633 17.3465" fill="#31343C"/>
<path fill-rule="evenodd" clip-rule="evenodd" d="M9.93874 9.83701C9.93874 11.0374 9.9692 12.0384 9.3598 13.1044C8.86791 13.9711 8.08874 14.5041 7.21815 14.5041C6.0298 14.5041 5.33768 13.6027 5.33768 12.2724C5.33768 9.64635 7.70133 9.16967 9.93874 9.16967V9.83701ZM13.0598 17.3468C12.8552 17.5288 12.5592 17.5418 12.3285 17.4204C11.3012 16.5711 11.1184 16.1767 10.5525 15.3664C8.85485 17.0911 7.65345 17.6068 5.45086 17.6068C2.8478 17.6068 0.819336 16.0077 0.819336 12.8054C0.819336 10.305 2.1818 8.602 4.11886 7.76999C5.79909 7.03332 8.14533 6.90332 9.93874 6.69965V6.30098C9.93874 5.56863 9.99533 4.70196 9.56438 4.06929C9.18568 3.50161 8.46309 3.26761 7.82756 3.26761C6.64792 3.26761 5.59451 3.86995 5.33768 5.11796C5.28545 5.3953 5.08086 5.6683 4.80227 5.6813L1.79875 5.36063C1.54628 5.3043 1.26769 5.10063 1.33733 4.71496C2.02945 1.09226 5.31592 0.000244141 8.2585 0.000244141C9.76462 0.000244141 11.7321 0.398916 12.9205 1.53426C14.4266 2.93394 14.283 4.80163 14.283 6.83398V11.6354C14.283 13.0784 14.8837 13.7111 15.4496 14.4911C15.6498 14.7684 15.6933 15.1021 15.4408 15.3101C14.8097 15.8344 13.6866 16.8094 13.0685 17.3554L13.0598 17.3467" fill="#31343C"/>
</g>
<defs>
<clipPath id="clip0">
<rect width="100" height="30" fill="white" transform="translate(0.819336)"/>
</clipPath>
</defs>
</svg>
