<svg width="119" height="16" viewBox="0 0 119 16" fill="none" xmlns="http://www.w3.org/2000/svg">
<path d="M10.6193 7.72C11.3927 7.97333 12.006 8.4 12.4593 9C12.9127 9.58667 13.1393 10.32 13.1393 11.2C13.1393 12.4133 12.6727 13.3533 11.7393 14.02C10.806 14.6733 9.446 15 7.65934 15H0.699336V0.999999H7.25934C8.91267 0.999999 10.186 1.32667 11.0793 1.98C11.9727 2.62 12.4193 3.50667 12.4193 4.64C12.4193 5.33333 12.2593 5.94667 11.9393 6.48C11.6193 7.01333 11.1793 7.42667 10.6193 7.72ZM3.29934 3.04V6.9H6.97934C7.886 6.9 8.57934 6.74 9.05934 6.42C9.55267 6.08667 9.79934 5.60667 9.79934 4.98C9.79934 4.34 9.55267 3.86 9.05934 3.54C8.57934 3.20667 7.886 3.04 6.97934 3.04H3.29934ZM7.49934 12.96C9.51267 12.96 10.5193 12.2867 10.5193 10.94C10.5193 9.59333 9.51267 8.92 7.49934 8.92H3.29934V12.96H7.49934ZM15.9142 0.999999H18.5142V15H15.9142V0.999999ZM25.1409 3.2H20.5009V0.999999H32.3809V3.2H27.7409V15H25.1409V3.2ZM38.5354 15.2C37.4554 15.2 36.4088 15.0467 35.3954 14.74C34.3954 14.4333 33.6021 14.0267 33.0154 13.52L33.9154 11.5C34.4888 11.9533 35.1888 12.3267 36.0154 12.62C36.8554 12.9 37.6954 13.04 38.5354 13.04C39.5754 13.04 40.3488 12.8733 40.8554 12.54C41.3754 12.2067 41.6354 11.7667 41.6354 11.22C41.6354 10.82 41.4888 10.4933 41.1954 10.24C40.9154 9.97333 40.5554 9.76667 40.1154 9.62C39.6754 9.47333 39.0754 9.30667 38.3154 9.12C37.2488 8.86667 36.3821 8.61333 35.7154 8.36C35.0621 8.10667 34.4954 7.71333 34.0154 7.18C33.5488 6.63333 33.3154 5.9 33.3154 4.98C33.3154 4.20667 33.5221 3.50667 33.9354 2.88C34.3621 2.24 34.9954 1.73333 35.8354 1.36C36.6888 0.986666 37.7288 0.799999 38.9554 0.799999C39.8088 0.799999 40.6488 0.906666 41.4754 1.12C42.3021 1.33333 43.0154 1.64 43.6154 2.04L42.7954 4.06C42.1821 3.7 41.5421 3.42667 40.8754 3.24C40.2088 3.05333 39.5621 2.96 38.9354 2.96C37.9088 2.96 37.1421 3.13333 36.6354 3.48C36.1421 3.82667 35.8954 4.28667 35.8954 4.86C35.8954 5.26 36.0354 5.58667 36.3154 5.84C36.6088 6.09333 36.9754 6.29333 37.4154 6.44C37.8554 6.58667 38.4554 6.75333 39.2154 6.94C40.2554 7.18 41.1088 7.43333 41.7754 7.7C42.4421 7.95333 43.0088 8.34667 43.4754 8.88C43.9554 9.41333 44.1954 10.1333 44.1954 11.04C44.1954 11.8133 43.9821 12.5133 43.5554 13.14C43.1421 13.7667 42.5088 14.2667 41.6554 14.64C40.8021 15.0133 39.7621 15.2 38.5354 15.2ZM58.0609 0.999999C59.2742 0.999999 60.3276 1.2 61.2209 1.6C62.1276 2 62.8209 2.57333 63.3009 3.32C63.7809 4.06667 64.0209 4.95333 64.0209 5.98C64.0209 6.99333 63.7809 7.88 63.3009 8.64C62.8209 9.38667 62.1276 9.96 61.2209 10.36C60.3276 10.76 59.2742 10.96 58.0609 10.96H54.9009V15H52.3009V0.999999H58.0609ZM57.9409 8.76C59.0742 8.76 59.9342 8.52 60.5209 8.04C61.1076 7.56 61.4009 6.87333 61.4009 5.98C61.4009 5.08667 61.1076 4.4 60.5209 3.92C59.9342 3.44 59.0742 3.2 57.9409 3.2H54.9009V8.76H57.9409ZM66.6173 0.999999H69.2173V15H66.6173V0.999999ZM73.004 0.999999H75.604V12.8H82.924V15H73.004V0.999999ZM94.1543 11.76H87.1543L85.7743 15H83.0943L89.3943 0.999999H91.9543L98.2743 15H95.5543L94.1543 11.76ZM93.2943 9.72L90.6543 3.6L88.0343 9.72H93.2943ZM112.495 0.999999V15H110.355L102.635 5.52V15H100.055V0.999999H102.195L109.915 10.48V0.999999H112.495ZM116.246 0.999999H118.846V15H116.246V0.999999Z" fill="#31343C"/>
</svg>
