<svg width="150" height="57" viewBox="0 0 150 57" fill="none" xmlns="http://www.w3.org/2000/svg">
<path d="M5.88258 19.4025C6.48433 18.5725 7.30394 17.8981 8.34144 17.3794C9.39968 16.8399 10.572 16.5701 11.8585 16.5701C13.3733 16.5701 14.7428 16.9333 15.967 17.6595C17.1912 18.3857 18.1561 19.4232 18.8616 20.772C19.5671 22.1 19.9199 23.6251 19.9199 25.3473C19.9199 27.0696 19.5671 28.6154 18.8616 29.9849C18.1561 31.3336 17.1809 32.3919 15.9359 33.1596C14.7116 33.9066 13.3525 34.2801 11.8585 34.2801C10.5305 34.2801 9.3478 34.0207 8.31031 33.502C7.29357 32.9833 6.48433 32.3193 5.88258 31.51V34H2.33436V10.9677H5.88258V19.4025ZM16.3094 25.3473C16.3094 24.1646 16.0604 23.1478 15.5624 22.2971C15.0851 21.4256 14.4419 20.772 13.6326 20.3362C12.8442 19.8797 11.9934 19.6515 11.0804 19.6515C10.1882 19.6515 9.33743 19.8797 8.52819 20.3362C7.73969 20.7927 7.09645 21.4567 6.59845 22.3282C6.1212 23.1997 5.88258 24.2268 5.88258 25.4096C5.88258 26.5923 6.1212 27.6298 6.59845 28.522C7.09645 29.3935 7.73969 30.0575 8.52819 30.514C9.33743 30.9705 10.1882 31.1988 11.0804 31.1988C11.9934 31.1988 12.8442 30.9705 13.6326 30.514C14.4419 30.0368 15.0851 29.352 15.5624 28.4598C16.0604 27.5675 16.3094 26.5301 16.3094 25.3473ZM26.9769 10.9677V34H23.4287V10.9677H26.9769ZM47.1667 16.8503V34H43.6184V31.9769C43.0582 32.6824 42.3216 33.2426 41.4086 33.6576C40.5163 34.0519 39.5618 34.249 38.5451 34.249C37.1964 34.249 35.9825 33.9689 34.9035 33.4086C33.8453 32.8484 33.0049 32.0184 32.3824 30.9186C31.7807 29.8189 31.4798 28.4909 31.4798 26.9347V16.8503H34.9969V26.4056C34.9969 27.941 35.3808 29.1238 36.1485 29.9538C36.9162 30.763 37.9641 31.1676 39.2921 31.1676C40.6201 31.1676 41.668 30.763 42.4357 29.9538C43.2242 29.1238 43.6184 27.941 43.6184 26.4056V16.8503H47.1667ZM67.5663 25.0049C67.5663 25.6482 67.5248 26.2292 67.4418 26.7479H54.3382C54.442 28.1174 54.9504 29.2172 55.8634 30.0472C56.7763 30.8771 57.8968 31.2921 59.2248 31.2921C61.1338 31.2921 62.4826 30.4933 63.2711 28.8955H67.0994C66.5807 30.4725 65.6365 31.7694 64.267 32.7861C62.9183 33.7821 61.2376 34.2801 59.2248 34.2801C57.5856 34.2801 56.1124 33.917 54.8051 33.1908C53.5186 32.4438 52.5019 31.4063 51.7549 30.0783C51.0286 28.7295 50.6655 27.1733 50.6655 25.4096C50.6655 23.6458 51.0183 22.1 51.7238 20.772C52.45 19.4232 53.4564 18.3857 54.7429 17.6595C56.0501 16.9333 57.5441 16.5701 59.2248 16.5701C60.8433 16.5701 62.2854 16.9229 63.5512 17.6284C64.8169 18.3339 65.8025 19.3299 66.508 20.6164C67.2135 21.8821 67.5663 23.345 67.5663 25.0049ZM63.8624 23.8845C63.8417 22.5772 63.3748 21.5293 62.4618 20.7408C61.5488 19.9524 60.4179 19.5581 59.0692 19.5581C57.845 19.5581 56.7971 19.9524 55.9256 20.7408C55.0541 21.5086 54.5354 22.5565 54.3694 23.8845H63.8624Z" fill="#3D5AFF"/>
<path d="M74.6063 10.9677V34H71.0581V10.9677H74.6063ZM94.9828 25.0049C94.9828 25.6482 94.9413 26.2292 94.8583 26.7479H81.7548C81.8585 28.1174 82.3669 29.2172 83.2799 30.0472C84.1929 30.8771 85.3134 31.2921 86.6414 31.2921C88.5504 31.2921 89.8991 30.4933 90.6876 28.8955H94.5159C93.9972 30.4725 93.0531 31.7694 91.6836 32.7861C90.3348 33.7821 88.6541 34.2801 86.6414 34.2801C85.0021 34.2801 83.5289 33.917 82.2217 33.1908C80.9352 32.4438 79.9184 31.4063 79.1714 30.0783C78.4452 28.7295 78.0821 27.1733 78.0821 25.4096C78.0821 23.6458 78.4348 22.1 79.1403 20.772C79.8665 19.4232 80.8729 18.3857 82.1594 17.6595C83.4666 16.9333 84.9606 16.5701 86.6414 16.5701C88.2599 16.5701 89.702 16.9229 90.9677 17.6284C92.2335 18.3339 93.2191 19.3299 93.9246 20.6164C94.6301 21.8821 94.9828 23.345 94.9828 25.0049ZM91.279 23.8845C91.2582 22.5772 90.7913 21.5293 89.8783 20.7408C88.9654 19.9524 87.8345 19.5581 86.4857 19.5581C85.2615 19.5581 84.2136 19.9524 83.3421 20.7408C82.4707 21.5086 81.9519 22.5565 81.7859 23.8845H91.279ZM97.2919 25.3473C97.2919 23.6251 97.6446 22.1 98.3501 20.772C99.0764 19.444 100.052 18.4169 101.276 17.6906C102.521 16.9436 103.89 16.5701 105.384 16.5701C106.733 16.5701 107.905 16.8399 108.901 17.3794C109.918 17.8981 110.727 18.5517 111.329 19.3402V16.8503H114.908V34H111.329V31.4478C110.727 32.257 109.908 32.9314 108.87 33.4709C107.833 34.0104 106.65 34.2801 105.322 34.2801C103.849 34.2801 102.5 33.9066 101.276 33.1596C100.052 32.3919 99.0764 31.3336 98.3501 29.9849C97.6446 28.6154 97.2919 27.0696 97.2919 25.3473ZM111.329 25.4096C111.329 24.2268 111.08 23.1997 110.582 22.3282C110.105 21.4567 109.472 20.7927 108.684 20.3362C107.895 19.8797 107.044 19.6515 106.131 19.6515C105.218 19.6515 104.368 19.8797 103.579 20.3362C102.791 20.772 102.147 21.4256 101.649 22.2971C101.172 23.1478 100.933 24.1646 100.933 25.3473C100.933 26.5301 101.172 27.5675 101.649 28.4598C102.147 29.352 102.791 30.0368 103.579 30.514C104.388 30.9705 105.239 31.1988 106.131 31.1988C107.044 31.1988 107.895 30.9705 108.684 30.514C109.472 30.0575 110.105 29.3935 110.582 28.522C111.08 27.6298 111.329 26.5923 111.329 25.4096ZM123.117 19.3402C123.636 18.4687 124.321 17.7944 125.171 17.3171C126.043 16.8191 127.07 16.5701 128.253 16.5701V20.2429H127.35C125.96 20.2429 124.902 20.5956 124.175 21.3011C123.47 22.0066 123.117 23.2308 123.117 24.9738V34H119.569V16.8503H123.117V19.3402ZM140.167 16.5701C141.516 16.5701 142.719 16.8503 143.777 17.4105C144.856 17.9707 145.697 18.8007 146.299 19.9005C146.9 21.0002 147.201 22.3282 147.201 23.8845V34H143.684V24.4136C143.684 22.8781 143.3 21.7057 142.532 20.8965C141.765 20.0665 140.717 19.6515 139.389 19.6515C138.061 19.6515 137.003 20.0665 136.214 20.8965C135.446 21.7057 135.063 22.8781 135.063 24.4136V34H131.514V16.8503H135.063V18.8111C135.644 18.1056 136.38 17.5557 137.272 17.1615C138.185 16.7673 139.15 16.5701 140.167 16.5701Z" fill="#31343C"/>
<path d="M3.61039 44.2948C3.86896 43.8447 4.25204 43.4712 4.75961 43.1743C5.27676 42.8678 5.87531 42.7146 6.55527 42.7146C7.25438 42.7146 7.88645 42.8822 8.45149 43.2174C9.0261 43.5526 9.47621 44.0266 9.80182 44.6396C10.1274 45.2429 10.2902 45.9468 10.2902 46.7512C10.2902 47.5461 10.1274 48.2548 9.80182 48.8773C9.47621 49.4998 9.0261 49.9834 8.45149 50.3282C7.88645 50.673 7.25438 50.8454 6.55527 50.8454C5.88489 50.8454 5.29113 50.6969 4.77398 50.4C4.2664 50.0936 3.87854 49.7153 3.61039 49.2652V54.451H2.30315V42.8439H3.61039V44.2948ZM8.95427 46.7512C8.95427 46.1575 8.83456 45.6403 8.59514 45.1998C8.35572 44.7593 8.0301 44.4241 7.6183 44.1942C7.21607 43.9644 6.77075 43.8495 6.28233 43.8495C5.80349 43.8495 5.35816 43.9692 4.94636 44.2086C4.54413 44.4384 4.21852 44.7784 3.96952 45.2285C3.7301 45.6691 3.61039 46.1814 3.61039 46.7656C3.61039 47.3594 3.7301 47.8813 3.96952 48.3314C4.21852 48.772 4.54413 49.1119 4.94636 49.3514C5.35816 49.5812 5.80349 49.6961 6.28233 49.6961C6.77075 49.6961 7.21607 49.5812 7.6183 49.3514C8.0301 49.1119 8.35572 48.772 8.59514 48.3314C8.83456 47.8813 8.95427 47.3546 8.95427 46.7512ZM14.8265 44.1224C15.0564 43.6723 15.382 43.3227 15.8034 43.0737C16.2343 42.8247 16.7563 42.7002 17.3692 42.7002V44.0506H17.0244C15.5592 44.0506 14.8265 44.8455 14.8265 46.4352V50.7161H13.5193V42.8439H14.8265V44.1224ZM27.5692 46.4783C27.5692 46.7273 27.5548 46.9907 27.5261 47.2684H21.2341C21.282 48.0441 21.5454 48.6523 22.0242 49.0928C22.5126 49.5237 23.1016 49.7392 23.7911 49.7392C24.3562 49.7392 24.8254 49.6099 25.1989 49.3514C25.582 49.0832 25.8502 48.7289 26.0034 48.2883H27.4112C27.2005 49.0449 26.7791 49.6626 26.147 50.1415C25.515 50.6107 24.7297 50.8454 23.7911 50.8454C23.0441 50.8454 22.3738 50.6778 21.78 50.3426C21.1958 50.0074 20.7361 49.5333 20.4009 48.9204C20.0657 48.2979 19.8981 47.5796 19.8981 46.7656C19.8981 45.9516 20.0609 45.2381 20.3866 44.6252C20.7122 44.0123 21.1671 43.543 21.7513 43.2174C22.345 42.8822 23.025 42.7146 23.7911 42.7146C24.5381 42.7146 25.1989 42.8774 25.7735 43.203C26.3482 43.5286 26.7887 43.9787 27.0951 44.5534C27.4112 45.1184 27.5692 45.76 27.5692 46.4783ZM26.2189 46.2054C26.2189 45.7074 26.1087 45.2812 25.8885 44.9269C25.6682 44.5629 25.3665 44.29 24.9835 44.108C24.61 43.9165 24.1934 43.8207 23.7337 43.8207C23.0729 43.8207 22.5078 44.0314 22.0386 44.4528C21.5789 44.8742 21.3155 45.4584 21.2485 46.2054H26.2189ZM33.7336 49.5094L36.1757 42.8439H37.5691L34.4806 50.7161H32.9579L29.8693 42.8439H31.2771L33.7336 49.5094ZM41.039 41.5654C40.79 41.5654 40.5793 41.4792 40.4069 41.3068C40.2345 41.1344 40.1484 40.9237 40.1484 40.6747C40.1484 40.4257 40.2345 40.215 40.4069 40.0427C40.5793 39.8703 40.79 39.7841 41.039 39.7841C41.2784 39.7841 41.4795 39.8703 41.6423 40.0427C41.8147 40.215 41.9009 40.4257 41.9009 40.6747C41.9009 40.9237 41.8147 41.1344 41.6423 41.3068C41.4795 41.4792 41.2784 41.5654 41.039 41.5654ZM41.6711 42.8439V50.7161H40.3638V42.8439H41.6711ZM48.8407 50.8454C48.1033 50.8454 47.4329 50.6778 46.8296 50.3426C46.2358 50.0074 45.7665 49.5333 45.4218 48.9204C45.0866 48.2979 44.919 47.5796 44.919 46.7656C44.919 45.9612 45.0914 45.2525 45.4361 44.6396C45.7905 44.0171 46.2693 43.543 46.8727 43.2174C47.476 42.8822 48.1512 42.7146 48.8982 42.7146C49.6452 42.7146 50.3203 42.8822 50.9237 43.2174C51.527 43.543 52.0011 44.0123 52.3458 44.6252C52.7002 45.2381 52.8773 45.9516 52.8773 46.7656C52.8773 47.5796 52.6954 48.2979 52.3315 48.9204C51.9771 49.5333 51.4935 50.0074 50.8806 50.3426C50.2676 50.6778 49.5877 50.8454 48.8407 50.8454ZM48.8407 49.6961C49.31 49.6961 49.7505 49.586 50.1623 49.3657C50.5741 49.1455 50.9045 48.8151 51.1535 48.3745C51.4121 47.934 51.5414 47.3977 51.5414 46.7656C51.5414 46.1335 51.4169 45.5972 51.1679 45.1567C50.9189 44.7162 50.5933 44.3906 50.191 44.1799C49.7888 43.9596 49.3531 43.8495 48.8838 43.8495C48.405 43.8495 47.9644 43.9596 47.5622 44.1799C47.1695 44.3906 46.8535 44.7162 46.6141 45.1567C46.3747 45.5972 46.2549 46.1335 46.2549 46.7656C46.2549 47.4073 46.3699 47.9484 46.5997 48.3889C46.8391 48.8294 47.1552 49.1598 47.5478 49.3801C47.9405 49.5908 48.3714 49.6961 48.8407 49.6961ZM63.086 42.8439V50.7161H61.7788V49.5525C61.5298 49.9547 61.1802 50.2707 60.7301 50.5006C60.2896 50.7209 59.8011 50.831 59.2648 50.831C58.6519 50.831 58.1012 50.7065 57.6128 50.4575C57.1244 50.1989 56.7365 49.8158 56.4492 49.3083C56.1715 48.8007 56.0326 48.183 56.0326 47.4551V42.8439H57.3255V47.2828C57.3255 48.0585 57.5218 48.657 57.9145 49.0784C58.3072 49.4902 58.8435 49.6961 59.5234 49.6961C60.2225 49.6961 60.7732 49.4807 61.1754 49.0497C61.5776 48.6187 61.7788 47.9915 61.7788 47.1678V42.8439H63.086ZM69.5884 50.8454C68.9851 50.8454 68.444 50.7448 67.9651 50.5437C67.4863 50.333 67.108 50.0457 66.8303 49.6818C66.5526 49.3083 66.3993 48.8821 66.3706 48.4033H67.7209C67.7592 48.7959 67.9412 49.1167 68.2668 49.3657C68.602 49.6147 69.0377 49.7392 69.5741 49.7392C70.072 49.7392 70.4647 49.6291 70.752 49.4088C71.0393 49.1886 71.183 48.9108 71.183 48.5756C71.183 48.2309 71.0297 47.9771 70.7233 47.8143C70.4168 47.6419 69.9428 47.4743 69.3011 47.3115C68.7169 47.1583 68.2381 47.005 67.8646 46.8518C67.5007 46.689 67.1846 46.4544 66.9165 46.1479C66.6579 45.8319 66.5286 45.4201 66.5286 44.9125C66.5286 44.5103 66.6483 44.1416 66.8877 43.8064C67.1272 43.4712 67.4671 43.2078 67.9077 43.0163C68.3482 42.8152 68.851 42.7146 69.416 42.7146C70.2875 42.7146 70.9914 42.9349 71.5277 43.3754C72.064 43.8159 72.3513 44.4193 72.3896 45.1854H71.0824C71.0537 44.7736 70.8861 44.4432 70.5796 44.1942C70.2827 43.9452 69.8805 43.8207 69.3729 43.8207C68.9037 43.8207 68.5302 43.9213 68.2524 44.1224C67.9747 44.3235 67.8359 44.5869 67.8359 44.9125C67.8359 45.1711 67.9173 45.3865 68.0801 45.5589C68.2524 45.7217 68.4631 45.8558 68.7121 45.9612C68.9707 46.0569 69.3251 46.1671 69.7752 46.2916C70.3402 46.4448 70.7999 46.598 71.1542 46.7512C71.5086 46.8949 71.8102 47.1152 72.0592 47.4121C72.3178 47.7089 72.4519 48.0968 72.4615 48.5756C72.4615 49.0066 72.3418 49.3945 72.1023 49.7392C71.8629 50.084 71.5229 50.3569 71.0824 50.558C70.6514 50.7496 70.1535 50.8454 69.5884 50.8454ZM77.1224 40.0858V50.7161H75.8152V40.0858H77.1224ZM87.6392 42.8439L82.8986 54.4223H81.5483L83.0997 50.6299L79.925 42.8439H81.3759L83.8467 49.2221L86.2888 42.8439H87.6392ZM95.3114 45.7026C95.3114 44.7257 95.5316 43.8495 95.9722 43.0737C96.4127 42.2884 97.0112 41.6755 97.7678 41.235C98.534 40.7944 99.3815 40.5742 100.31 40.5742C101.402 40.5742 102.355 40.8375 103.169 41.3643C103.983 41.891 104.577 42.638 104.95 43.6053H103.385C103.107 43.0019 102.705 42.5374 102.178 42.2118C101.661 41.8862 101.038 41.7234 100.31 41.7234C99.6114 41.7234 98.9841 41.8862 98.4286 42.2118C97.8732 42.5374 97.4374 43.0019 97.1214 43.6053C96.8053 44.199 96.6473 44.8981 96.6473 45.7026C96.6473 46.4975 96.8053 47.1966 97.1214 47.7999C97.4374 48.3937 97.8732 48.8534 98.4286 49.179C98.9841 49.5046 99.6114 49.6674 100.31 49.6674C101.038 49.6674 101.661 49.5094 102.178 49.1933C102.705 48.8677 103.107 48.4033 103.385 47.7999H104.95C104.577 48.7576 103.983 49.4998 103.169 50.0265C102.355 50.5437 101.402 50.8023 100.31 50.8023C99.3815 50.8023 98.534 50.5868 97.7678 50.1558C97.0112 49.7153 96.4127 49.1072 95.9722 48.3314C95.5316 47.5557 95.3114 46.6794 95.3114 45.7026ZM109.712 40.0858V50.7161H108.405V40.0858H109.712ZM114.123 41.5654C113.874 41.5654 113.664 41.4792 113.491 41.3068C113.319 41.1344 113.233 40.9237 113.233 40.6747C113.233 40.4257 113.319 40.215 113.491 40.0427C113.664 39.8703 113.874 39.7841 114.123 39.7841C114.363 39.7841 114.564 39.8703 114.727 40.0427C114.899 40.215 114.985 40.4257 114.985 40.6747C114.985 40.9237 114.899 41.1344 114.727 41.3068C114.564 41.4792 114.363 41.5654 114.123 41.5654ZM114.756 42.8439V50.7161H113.448V42.8439H114.756ZM122.327 42.7002C123.285 42.7002 124.061 42.9923 124.655 43.5765C125.248 44.1511 125.545 44.9843 125.545 46.0761V50.7161H124.252V46.2628C124.252 45.4775 124.056 44.879 123.663 44.4672C123.271 44.0458 122.734 43.8351 122.054 43.8351C121.365 43.8351 120.814 44.0506 120.402 44.4815C120 44.9125 119.799 45.5398 119.799 46.3634V50.7161H118.492V42.8439H119.799V43.9644C120.058 43.5622 120.407 43.2509 120.848 43.0306C121.298 42.8104 121.791 42.7002 122.327 42.7002ZM129.864 41.5654C129.615 41.5654 129.404 41.4792 129.232 41.3068C129.06 41.1344 128.973 40.9237 128.973 40.6747C128.973 40.4257 129.06 40.215 129.232 40.0427C129.404 39.8703 129.615 39.7841 129.864 39.7841C130.104 39.7841 130.305 39.8703 130.467 40.0427C130.64 40.215 130.726 40.4257 130.726 40.6747C130.726 40.9237 130.64 41.1344 130.467 41.3068C130.305 41.4792 130.104 41.5654 129.864 41.5654ZM130.496 42.8439V50.7161H129.189V42.8439H130.496ZM137.436 43.9213H135.784V50.7161H134.477V43.9213H133.457V42.8439H134.477V42.2836C134.477 41.4026 134.702 40.7609 135.152 40.3587C135.612 39.9469 136.344 39.741 137.35 39.741V40.8328C136.775 40.8328 136.368 40.9477 136.129 41.1775C135.899 41.3978 135.784 41.7665 135.784 42.2836V42.8439H137.436V43.9213ZM147.249 42.8439L142.508 54.4223H141.158L142.709 50.6299L139.535 42.8439H140.986L143.456 49.2221L145.899 42.8439H147.249Z" fill="#31343C"/>
</svg>
