<svg width="35" height="35" viewBox="0 0 35 35" fill="none" xmlns="http://www.w3.org/2000/svg">
<g clip-path="url(#clip0)">
<path d="M29.6297 6.37286C27.3606 5.33138 24.9659 4.58872 22.5057 4.16349C22.4833 4.15912 22.46 4.16199 22.4393 4.17169C22.4186 4.18138 22.4015 4.19741 22.3905 4.21745C22.0842 4.76432 21.743 5.47745 21.5038 6.04036C18.8517 5.63755 16.154 5.63755 13.502 6.04036C13.2358 5.41664 12.9354 4.80807 12.6022 4.21745C12.5907 4.19786 12.5735 4.18221 12.5529 4.17258C12.5324 4.16295 12.5094 4.15978 12.487 4.16349C10.0265 4.58784 7.63176 5.33053 5.36299 6.37286C5.34378 6.38092 5.3275 6.39466 5.31633 6.41224C0.777993 13.192 -0.465966 19.8041 0.145076 26.3331C0.14656 26.3493 0.151335 26.365 0.159109 26.3793C0.166882 26.3936 0.17749 26.4061 0.190284 26.4162C2.83219 28.3736 5.78753 29.8678 8.93008 30.8349C8.95223 30.8414 8.9758 30.8409 8.99768 30.8336C9.01956 30.8263 9.0387 30.8125 9.05258 30.7941C9.72633 29.8754 10.3272 28.9056 10.8405 27.8862C10.8477 27.8723 10.8518 27.857 10.8526 27.8414C10.8535 27.8257 10.851 27.8101 10.8453 27.7955C10.8397 27.7809 10.831 27.7676 10.8199 27.7566C10.8087 27.7456 10.7954 27.7371 10.7807 27.7316C9.83778 27.3708 8.92492 26.9358 8.0507 26.4308C8.03468 26.4215 8.02119 26.4084 8.01144 26.3927C8.0017 26.377 7.99599 26.359 7.99484 26.3406C7.99368 26.3221 7.99711 26.3036 8.00482 26.2868C8.01254 26.27 8.02429 26.2553 8.03903 26.2441C8.22313 26.1064 8.40402 25.9644 8.58153 25.8183C8.59706 25.8057 8.61579 25.7977 8.63561 25.7951C8.65544 25.7925 8.6756 25.7955 8.69383 25.8037C14.4222 28.4185 20.623 28.4185 26.2842 25.8037C26.3027 25.7952 26.3231 25.7921 26.3432 25.7946C26.3633 25.7972 26.3823 25.8054 26.398 25.8183C26.573 25.9612 26.7567 26.107 26.942 26.2441C26.9565 26.2551 26.9682 26.2695 26.976 26.2861C26.9837 26.3026 26.9873 26.3208 26.9865 26.339C26.9856 26.3573 26.9803 26.375 26.971 26.3908C26.9617 26.4065 26.9488 26.4197 26.9332 26.4293C26.061 26.9391 25.1472 27.3742 24.2017 27.7302C24.187 27.7358 24.1737 27.7445 24.1625 27.7556C24.1514 27.7668 24.1427 27.7801 24.137 27.7948C24.1314 27.8096 24.1289 27.8253 24.1298 27.841C24.1306 27.8568 24.1348 27.8722 24.142 27.8862C24.667 28.9041 25.2678 29.8724 25.9284 30.7927C25.942 30.8114 25.9611 30.8254 25.9831 30.8328C26.0051 30.8401 26.0288 30.8403 26.0509 30.8335C29.1987 29.8693 32.1588 28.3749 34.8038 26.4147C34.8167 26.4056 34.8275 26.3939 34.8355 26.3803C34.8436 26.3668 34.8487 26.3517 34.8505 26.336C35.5797 18.7862 33.6284 12.2281 29.6749 6.41516C29.6656 6.39555 29.6496 6.38 29.6297 6.37141V6.37286ZM11.6965 22.3562C9.97133 22.3562 8.55091 20.7739 8.55091 18.8285C8.55091 16.8845 9.94508 15.3008 11.6965 15.3008C13.4611 15.3008 14.8699 16.8991 14.8422 18.8299C14.8422 20.7739 13.448 22.3562 11.6965 22.3562ZM23.3267 22.3562C21.6015 22.3562 20.1811 20.7739 20.1811 18.8285C20.1811 16.8845 21.5738 15.3008 23.3267 15.3008C25.0913 15.3008 26.5001 16.8991 26.4724 18.8299C26.4724 20.7739 25.0928 22.3562 23.3267 22.3562Z" fill="white"/>
</g>
<defs>
<clipPath id="clip0">
<rect width="35" height="35" fill="white"/>
</clipPath>
</defs>
</svg>
