<svg width="272" height="272" viewBox="0 0 272 272" fill="none" xmlns="http://www.w3.org/2000/svg">
<circle cx="136" cy="136" r="136" fill="url(#paint0_radial)"/>
<path d="M131.962 121.622L131.028 127.074L135.926 124.5L140.824 127.074L139.888 121.622L143.852 117.758L138.376 116.962L135.926 112L133.476 116.962L128 117.758L131.962 121.622Z" fill="#31343C"/>
<path d="M150 100H146V96H142V100H130V96H126V100H122C119.794 100 118 101.794 118 104V132C118 134.206 119.794 136 122 136H150C152.206 136 154 134.206 154 132V104C154 101.794 152.206 100 150 100ZM150.004 132H122V108H150L150.004 132Z" fill="#31343C"/>
<path d="M110.545 199.868V203H92.4375V200.552L102.697 190.652C103.945 189.452 104.785 188.42 105.217 187.556C105.649 186.668 105.865 185.78 105.865 184.892C105.865 183.572 105.397 182.552 104.461 181.832C103.549 181.088 102.229 180.716 100.501 180.716C97.7175 180.716 95.5695 181.628 94.0575 183.452L91.6095 181.328C92.5935 180.128 93.8775 179.192 95.4615 178.52C97.0695 177.848 98.8575 177.512 100.825 177.512C103.465 177.512 105.565 178.148 107.125 179.42C108.685 180.668 109.465 182.372 109.465 184.532C109.465 185.876 109.177 187.148 108.601 188.348C108.025 189.548 106.933 190.916 105.325 192.452L97.6215 199.868H110.545ZM123.696 203.288C121.704 203.288 119.928 202.784 118.368 201.776C116.832 200.744 115.62 199.256 114.732 197.312C113.844 195.368 113.4 193.064 113.4 190.4C113.4 187.736 113.844 185.432 114.732 183.488C115.62 181.544 116.832 180.068 118.368 179.06C119.928 178.028 121.704 177.512 123.696 177.512C125.664 177.512 127.416 178.028 128.952 179.06C130.512 180.068 131.736 181.544 132.624 183.488C133.512 185.432 133.956 187.736 133.956 190.4C133.956 193.064 133.512 195.368 132.624 197.312C131.736 199.256 130.512 200.744 128.952 201.776C127.416 202.784 125.664 203.288 123.696 203.288ZM123.696 200.084C125.712 200.084 127.32 199.256 128.52 197.6C129.744 195.944 130.356 193.544 130.356 190.4C130.356 187.256 129.744 184.856 128.52 183.2C127.32 181.544 125.712 180.716 123.696 180.716C121.656 180.716 120.024 181.544 118.8 183.2C117.6 184.856 117 187.256 117 190.4C117 193.544 117.6 195.944 118.8 197.6C120.024 199.256 121.656 200.084 123.696 200.084ZM147.708 203.288C145.716 203.288 143.94 202.784 142.38 201.776C140.844 200.744 139.632 199.256 138.744 197.312C137.856 195.368 137.412 193.064 137.412 190.4C137.412 187.736 137.856 185.432 138.744 183.488C139.632 181.544 140.844 180.068 142.38 179.06C143.94 178.028 145.716 177.512 147.708 177.512C149.676 177.512 151.428 178.028 152.964 179.06C154.524 180.068 155.748 181.544 156.636 183.488C157.524 185.432 157.968 187.736 157.968 190.4C157.968 193.064 157.524 195.368 156.636 197.312C155.748 199.256 154.524 200.744 152.964 201.776C151.428 202.784 149.676 203.288 147.708 203.288ZM147.708 200.084C149.724 200.084 151.332 199.256 152.532 197.6C153.756 195.944 154.368 193.544 154.368 190.4C154.368 187.256 153.756 184.856 152.532 183.2C151.332 181.544 149.724 180.716 147.708 180.716C145.668 180.716 144.036 181.544 142.812 183.2C141.612 184.856 141.012 187.256 141.012 190.4C141.012 193.544 141.612 195.944 142.812 197.6C144.036 199.256 145.668 200.084 147.708 200.084ZM178.481 191.84H171.929V198.284H168.905V191.84H162.353V188.996H168.905V182.516H171.929V188.996H178.481V191.84Z" fill="#31343C"/>
<path d="M92.3113 234.192V238.096H97.9273V239.472H92.3113V244H90.7113V232.8H98.6153V234.192H92.3113ZM101.959 236.944C102.226 236.453 102.621 236.08 103.143 235.824C103.666 235.568 104.301 235.44 105.047 235.44V236.928C104.962 236.917 104.845 236.912 104.695 236.912C103.863 236.912 103.207 237.163 102.727 237.664C102.258 238.155 102.023 238.859 102.023 239.776V244H100.487V235.52H101.959V236.944ZM114.526 239.808C114.526 239.925 114.516 240.08 114.494 240.272H107.614C107.71 241.019 108.036 241.621 108.59 242.08C109.156 242.528 109.854 242.752 110.686 242.752C111.7 242.752 112.516 242.411 113.134 241.728L113.982 242.72C113.598 243.168 113.118 243.509 112.542 243.744C111.977 243.979 111.342 244.096 110.638 244.096C109.742 244.096 108.948 243.915 108.254 243.552C107.561 243.179 107.022 242.661 106.638 242C106.265 241.339 106.078 240.592 106.078 239.76C106.078 238.939 106.26 238.197 106.622 237.536C106.996 236.875 107.502 236.363 108.142 236C108.793 235.627 109.524 235.44 110.334 235.44C111.145 235.44 111.865 235.627 112.494 236C113.134 236.363 113.63 236.875 113.982 237.536C114.345 238.197 114.526 238.955 114.526 239.808ZM110.334 236.736C109.598 236.736 108.98 236.96 108.478 237.408C107.988 237.856 107.7 238.443 107.614 239.168H113.054C112.969 238.453 112.676 237.872 112.174 237.424C111.684 236.965 111.07 236.736 110.334 236.736ZM124.323 239.808C124.323 239.925 124.312 240.08 124.291 240.272H117.411C117.507 241.019 117.832 241.621 118.387 242.08C118.952 242.528 119.651 242.752 120.483 242.752C121.496 242.752 122.312 242.411 122.931 241.728L123.779 242.72C123.395 243.168 122.915 243.509 122.339 243.744C121.774 243.979 121.139 244.096 120.435 244.096C119.539 244.096 118.744 243.915 118.051 243.552C117.358 243.179 116.819 242.661 116.435 242C116.062 241.339 115.875 240.592 115.875 239.76C115.875 238.939 116.056 238.197 116.419 237.536C116.792 236.875 117.299 236.363 117.939 236C118.59 235.627 119.32 235.44 120.131 235.44C120.942 235.44 121.662 235.627 122.291 236C122.931 236.363 123.427 236.875 123.779 237.536C124.142 238.197 124.323 238.955 124.323 239.808ZM120.131 236.736C119.395 236.736 118.776 236.96 118.275 237.408C117.784 237.856 117.496 238.443 117.411 239.168H122.851C122.766 238.453 122.472 237.872 121.971 237.424C121.48 236.965 120.867 236.736 120.131 236.736ZM138.417 239.808C138.417 239.925 138.406 240.08 138.385 240.272H131.505C131.601 241.019 131.926 241.621 132.481 242.08C133.046 242.528 133.745 242.752 134.577 242.752C135.59 242.752 136.406 242.411 137.025 241.728L137.873 242.72C137.489 243.168 137.009 243.509 136.433 243.744C135.868 243.979 135.233 244.096 134.529 244.096C133.633 244.096 132.838 243.915 132.145 243.552C131.452 243.179 130.913 242.661 130.529 242C130.156 241.339 129.969 240.592 129.969 239.76C129.969 238.939 130.15 238.197 130.513 237.536C130.886 236.875 131.393 236.363 132.033 236C132.684 235.627 133.414 235.44 134.225 235.44C135.036 235.44 135.756 235.627 136.385 236C137.025 236.363 137.521 236.875 137.873 237.536C138.236 238.197 138.417 238.955 138.417 239.808ZM134.225 236.736C133.489 236.736 132.87 236.96 132.369 237.408C131.878 237.856 131.59 238.443 131.505 239.168H136.945C136.86 238.453 136.566 237.872 136.065 237.424C135.574 236.965 134.961 236.736 134.225 236.736ZM147.898 235.52L144.186 244H142.618L138.905 235.52H140.506L143.418 242.32L146.394 235.52H147.898ZM156.761 239.808C156.761 239.925 156.75 240.08 156.729 240.272H149.849C149.945 241.019 150.27 241.621 150.825 242.08C151.39 242.528 152.089 242.752 152.921 242.752C153.934 242.752 154.75 242.411 155.369 241.728L156.217 242.72C155.833 243.168 155.353 243.509 154.777 243.744C154.211 243.979 153.577 244.096 152.873 244.096C151.977 244.096 151.182 243.915 150.489 243.552C149.795 243.179 149.257 242.661 148.873 242C148.499 241.339 148.313 240.592 148.313 239.76C148.313 238.939 148.494 238.197 148.857 237.536C149.23 236.875 149.737 236.363 150.377 236C151.027 235.627 151.758 235.44 152.569 235.44C153.379 235.44 154.099 235.627 154.729 236C155.369 236.363 155.865 236.875 156.217 237.536C156.579 238.197 156.761 238.955 156.761 239.808ZM152.569 236.736C151.833 236.736 151.214 236.96 150.713 237.408C150.222 237.856 149.934 238.443 149.849 239.168H155.289C155.203 238.453 154.91 237.872 154.409 237.424C153.918 236.965 153.305 236.736 152.569 236.736ZM163.422 235.44C164.499 235.44 165.352 235.755 165.982 236.384C166.622 237.003 166.942 237.915 166.942 239.12V244H165.406V239.296C165.406 238.475 165.208 237.856 164.814 237.44C164.419 237.024 163.854 236.816 163.118 236.816C162.286 236.816 161.63 237.061 161.15 237.552C160.67 238.032 160.43 238.725 160.43 239.632V244H158.894V235.52H160.366V236.8C160.675 236.363 161.091 236.027 161.614 235.792C162.147 235.557 162.75 235.44 163.422 235.44ZM174.552 243.504C174.328 243.696 174.051 243.845 173.72 243.952C173.389 244.048 173.048 244.096 172.696 244.096C171.843 244.096 171.181 243.867 170.712 243.408C170.243 242.949 170.008 242.293 170.008 241.44V236.784H168.568V235.52H170.008V233.664H171.544V235.52H173.976V236.784H171.544V241.376C171.544 241.835 171.656 242.187 171.88 242.432C172.115 242.677 172.445 242.8 172.872 242.8C173.341 242.8 173.741 242.667 174.072 242.4L174.552 243.504ZM178.841 244.096C178.148 244.096 177.481 244.005 176.841 243.824C176.201 243.632 175.7 243.392 175.337 243.104L175.977 241.888C176.35 242.155 176.804 242.368 177.337 242.528C177.87 242.688 178.409 242.768 178.953 242.768C180.297 242.768 180.969 242.384 180.969 241.616C180.969 241.36 180.878 241.157 180.697 241.008C180.516 240.859 180.286 240.752 180.009 240.688C179.742 240.613 179.358 240.533 178.857 240.448C178.174 240.341 177.614 240.219 177.177 240.08C176.75 239.941 176.382 239.707 176.073 239.376C175.764 239.045 175.609 238.581 175.609 237.984C175.609 237.216 175.929 236.603 176.569 236.144C177.209 235.675 178.068 235.44 179.145 235.44C179.71 235.44 180.276 235.509 180.841 235.648C181.406 235.787 181.87 235.973 182.233 236.208L181.577 237.424C180.884 236.976 180.068 236.752 179.129 236.752C178.478 236.752 177.982 236.859 177.641 237.072C177.3 237.285 177.129 237.568 177.129 237.92C177.129 238.197 177.225 238.416 177.417 238.576C177.609 238.736 177.844 238.853 178.121 238.928C178.409 239.003 178.809 239.088 179.321 239.184C180.004 239.301 180.553 239.429 180.969 239.568C181.396 239.696 181.758 239.92 182.057 240.24C182.356 240.56 182.505 241.008 182.505 241.584C182.505 242.352 182.174 242.965 181.513 243.424C180.862 243.872 179.972 244.096 178.841 244.096Z" fill="#31343C"/>
<defs>
<radialGradient id="paint0_radial" cx="0" cy="0" r="1" gradientUnits="userSpaceOnUse" gradientTransform="translate(136 136) rotate(90) scale(136)">
<stop stop-color="#FF725E" stop-opacity="0.2"/>
<stop offset="1" stop-color="white" stop-opacity="0"/>
</radialGradient>
</defs>
</svg>
