<svg width="71" height="30" viewBox="0 0 71 30" fill="none" xmlns="http://www.w3.org/2000/svg">
<path d="M5.9226 7.04433H10.1873V13.8916C8.71672 14.1379 7.14809 14.2857 6.21672 14.2857C2.00103 14.2857 0.236328 11.6749 0.236328 7.29064C0.236328 2.61084 2.49123 0 6.90299 0C7.49123 0 8.6677 0.0492613 10.0402 0.344828V4.58128H9.05986L8.47162 2.95566C7.93241 1.47783 7.29515 0.886699 6.31476 0.886699C4.50103 0.886699 3.56966 3.20197 3.56966 7.29064C3.56966 11.5271 4.10888 13.399 6.31476 13.399C6.55986 13.399 6.90299 13.399 7.34417 13.3005V8.52217L5.87358 7.58621V7.04433H5.9226ZM9.94221 25.6158C9.94221 28.3744 8.07946 29.9507 4.74613 29.9507C3.81476 29.9507 2.49123 29.803 1.26574 29.5566V24.335H2.24613L2.63829 25.5172C3.52064 28.2759 4.20692 29.1133 5.38339 29.1133C6.60888 29.1133 7.44221 28.1773 7.44221 26.8473C7.44221 25.8128 6.90299 24.9754 5.72652 24.335L3.71672 23.2512C2.14809 22.4138 1.31476 21.133 1.31476 19.5567C1.31476 17.1429 3.22652 15.7143 6.46182 15.7143C7.19711 15.7143 8.03045 15.7635 9.40299 15.9606V20.2956H8.4226L7.83437 18.7192C7.29515 17.1921 6.75594 16.601 5.62848 16.601C4.50103 16.601 3.76574 17.2414 3.76574 18.2266C3.76574 19.064 4.30496 19.803 5.38339 20.4433L7.44221 21.5764C9.1579 22.5616 9.94221 23.8424 9.94221 25.6158ZM19.0108 28.8177L19.403 29.4089V29.7044H16.3148L16.2167 28.4236C15.8736 29.3596 14.9422 29.9507 13.7657 29.9507C12.2461 29.9507 11.1677 29.0148 11.1677 27.2906C11.1677 25.5665 12.0991 24.532 14.8932 23.399L16.1677 22.8571V21.4286C16.1677 20.3448 15.8246 19.8522 15.0402 19.8522C14.354 19.8522 13.9128 20.2956 13.4716 21.3793L12.8344 22.9557H11.903V19.7044C13.0795 19.3596 14.305 19.1133 15.3344 19.1133C17.6873 19.1133 18.9618 20.197 18.9618 22.2167V28.8177H19.0108ZM20.3344 8.81773C20.3344 12.3153 18.4716 14.2857 16.1187 14.2857C13.7657 14.2857 11.903 12.3645 11.903 8.81773C11.903 5.27094 13.7657 3.34975 16.1187 3.34975C18.4716 3.34975 20.3344 5.3202 20.3344 8.81773ZM16.2167 26.9951V23.6453L15.7755 23.8424C14.5991 24.3842 14.0599 25.2709 14.0599 26.798C14.0599 28.0788 14.403 28.67 15.0893 28.67C15.8246 28.7192 16.2167 27.9803 16.2167 26.9951ZM17.3442 8.81773C17.3442 5.07389 17.001 4.13793 16.0697 4.13793C15.1383 4.13793 14.7951 5.07389 14.7951 8.81773C14.7951 12.5616 15.1383 13.4975 16.0697 13.4975C17.001 13.4975 17.3442 12.6108 17.3442 8.81773ZM27.2461 27.1429L27.8834 27.4877C27.2951 29.1626 26.4128 30 24.6481 30C22.0501 30 20.6775 27.9803 20.6775 24.6305C20.6775 20.9852 22.2951 19.1133 25.1873 19.1133C25.9226 19.1133 27.001 19.2118 27.8344 19.5567V23.0049H26.854L26.4618 21.6749C26.0206 20.197 25.6285 19.8522 25.0893 19.8522C24.2559 19.8522 23.6187 20.8867 23.6187 24.6798C23.6187 27.7833 24.0599 28.9163 25.3344 28.9163C26.1187 28.867 26.6579 28.4236 27.2461 27.1429ZM25.3344 14.0394H21.7069V13.7438L22.0991 13.1527V1.82266L21.7069 1.23153V0.935961L24.8932 0.689655V13.1527L25.2853 13.7438V14.0394H25.3344ZM30.3834 14.2857C28.0304 14.2857 26.7559 12.3645 26.7559 8.71921C26.7559 5.17241 28.1775 3.34975 30.4324 3.34975C31.4618 3.34975 32.0991 3.84236 32.3442 4.63054V1.82266L31.952 1.23153V0.935961L35.1873 0.689655V13.1527L35.5795 13.7438V14.0394H32.7363L32.4912 12.5616C32.1971 13.7438 31.5599 14.2857 30.3834 14.2857ZM37.4422 28.8177L37.8344 29.4089V29.7044H34.2069V29.4089L34.5991 28.8177V21.4286C34.5991 20.6897 34.2559 20.197 33.6677 20.197C32.8834 20.197 32.3442 20.936 32.3442 21.9704V28.8177L32.7363 29.4089V29.7044H29.1089V29.4089L29.501 28.8177V17.4877L29.1089 16.8966V16.601L32.3442 16.3547V20.3941C32.7853 19.4581 33.8148 19.064 34.7461 19.064C36.4618 19.064 37.4422 20.0985 37.4422 22.1675V28.8177ZM29.6971 8.76847C29.6971 12.3153 30.0402 13.4483 31.0206 13.4483C32.0991 13.4483 32.3442 11.9212 32.3442 8.71921C32.3442 5.66502 32.0991 4.18719 31.0206 4.18719C30.0893 4.18719 29.6971 5.3202 29.6971 8.76847ZM50.2853 13.1527L50.6775 13.7438V14.0394H47.0501V13.7438L47.4422 13.1527V5.71429C47.4422 5.02463 47.1481 4.48276 46.5108 4.48276C45.7265 4.48276 45.2853 5.27094 45.2853 6.30542V13.1527L45.6775 13.7438V14.0394H42.0501V13.7438L42.4422 13.1527V5.71429C42.4422 5.02463 42.1481 4.48276 41.5108 4.48276C40.7265 4.48276 40.2363 5.27094 40.2363 6.30542V13.1527L40.6285 13.7438V14.0394H37.001V13.7438L37.3932 13.1527V4.77833L37.001 4.28571V3.99015L39.8442 3.64532H40.0893L40.1873 4.87685C40.5795 3.94089 41.5599 3.39901 42.6873 3.39901C43.9128 3.39901 44.6481 3.99015 45.0402 5.02463C45.4814 4.03941 46.4128 3.39901 47.6873 3.39901C49.305 3.39901 50.1873 4.38424 50.1873 6.4532V13.1527H50.2853ZM46.3148 26.601C46.3148 28.5222 45.1873 30 42.3442 30C41.6579 30 40.6775 29.9015 39.2069 29.6552V25.9113H40.0893L40.3834 26.6995C41.1187 28.67 41.5599 29.2118 42.6383 29.2118C43.6677 29.2118 44.2069 28.7192 44.2069 27.6847C44.2069 26.8473 43.7657 26.3054 42.7853 25.7635L40.9716 24.7783C39.7952 24.1379 39.2559 23.2512 39.2559 22.069C39.2559 20.1478 40.6775 19.064 43.1285 19.064C43.8638 19.064 44.7461 19.1626 45.7265 19.3596V22.266H44.8932L44.452 21.2315C44.0108 20.197 43.6187 19.803 42.7363 19.803C41.854 19.803 41.3638 20.2463 41.3638 20.936C41.3638 21.5764 41.7559 21.9704 42.7363 22.5123L44.55 23.5468C45.6775 24.2857 46.3148 25.1724 46.3148 26.601ZM59.6971 13.1527L60.0893 13.7438V14.0394H57.001L56.903 12.7586C56.5598 13.6946 55.6285 14.2857 54.452 14.2857C52.9324 14.2857 51.854 13.3498 51.854 11.6256C51.854 9.90148 52.7853 8.86699 55.5795 7.73399L56.854 7.19212V5.76355C56.854 4.6798 56.5108 4.18719 55.7265 4.18719C55.0402 4.18719 54.5991 4.63054 54.1579 5.71429L53.5206 7.29064H52.5893V3.99015C53.7657 3.64532 54.9912 3.39901 56.0206 3.39901C58.3736 3.39901 59.6481 4.48276 59.6481 6.50246V13.1527H59.6971ZM56.854 11.2808V7.9803L56.4128 8.17734C55.2363 8.71921 54.6971 9.60591 54.6971 11.133C54.6971 12.4138 55.0402 13.0049 55.7265 13.0049C56.5108 13.0049 56.854 12.266 56.854 11.2808ZM70.2363 13.7438V14.0394H66.6089V13.7438L67.001 13.1527V5.71429C67.001 4.97537 66.6579 4.48276 66.0697 4.48276C65.2853 4.48276 64.7461 5.22167 64.7461 6.25616V13.1034L65.1383 13.6946V13.9901H61.5108V13.6946L61.903 13.1034V4.72906L61.5108 4.23645V3.94089L64.354 3.59606H64.5991L64.6971 4.87685C65.0893 3.7931 66.1677 3.39901 67.1971 3.39901C68.9128 3.39901 69.8932 4.4335 69.8932 6.50246V13.1527L70.2363 13.7438Z" fill="#31343C"/>
</svg>
