<svg width="116" height="20" viewBox="0 0 116 20" fill="none" xmlns="http://www.w3.org/2000/svg">
<path d="M0.699336 0.999999H3.29934V15H0.699336V0.999999ZM7.08605 0.999999H9.68605V15H7.08605V0.999999ZM16.3128 3.2H11.6728V0.999999H23.5528V3.2H18.9128V15H16.3128V3.2ZM40.9514 7.72C41.7247 7.97333 42.338 8.4 42.7914 9C43.2447 9.58667 43.4714 10.32 43.4714 11.2C43.4714 12.4133 43.0047 13.3533 42.0714 14.02C41.138 14.6733 39.778 15 37.9914 15H31.0314V0.999999H37.5914C39.2447 0.999999 40.518 1.32667 41.4114 1.98C42.3047 2.62 42.7514 3.50667 42.7514 4.64C42.7514 5.33333 42.5914 5.94667 42.2714 6.48C41.9514 7.01333 41.5114 7.42667 40.9514 7.72ZM33.6314 3.04V6.9H37.3114C38.218 6.9 38.9114 6.74 39.3914 6.42C39.8847 6.08667 40.1314 5.60667 40.1314 4.98C40.1314 4.34 39.8847 3.86 39.3914 3.54C38.9114 3.20667 38.218 3.04 37.3114 3.04H33.6314ZM37.8314 12.96C39.8447 12.96 40.8514 12.2867 40.8514 10.94C40.8514 9.59333 39.8447 8.92 37.8314 8.92H33.6314V12.96H37.8314ZM50.8062 15.14C49.7262 15.14 48.7529 14.9067 47.8862 14.44C47.0195 13.9733 46.3395 13.3267 45.8462 12.5C45.3662 11.66 45.1262 10.7133 45.1262 9.66C45.1262 8.60667 45.3662 7.66667 45.8462 6.84C46.3395 6.01333 47.0195 5.36667 47.8862 4.9C48.7529 4.43333 49.7262 4.2 50.8062 4.2C51.8995 4.2 52.8795 4.43333 53.7462 4.9C54.6129 5.36667 55.2862 6.01333 55.7662 6.84C56.2595 7.66667 56.5062 8.60667 56.5062 9.66C56.5062 10.7133 56.2595 11.66 55.7662 12.5C55.2862 13.3267 54.6129 13.9733 53.7462 14.44C52.8795 14.9067 51.8995 15.14 50.8062 15.14ZM50.8062 13C51.7262 13 52.4862 12.6933 53.0862 12.08C53.6862 11.4667 53.9862 10.66 53.9862 9.66C53.9862 8.66 53.6862 7.85333 53.0862 7.24C52.4862 6.62667 51.7262 6.32 50.8062 6.32C49.8862 6.32 49.1262 6.62667 48.5262 7.24C47.9395 7.85333 47.6462 8.66 47.6462 9.66C47.6462 10.66 47.9395 11.4667 48.5262 12.08C49.1262 12.6933 49.8862 13 50.8062 13ZM72.3768 4.2C73.7235 4.2 74.7902 4.59333 75.5768 5.38C76.3635 6.15333 76.7568 7.32 76.7568 8.88V15H74.2568V9.2C74.2568 8.26667 74.0502 7.56667 73.6368 7.1C73.2235 6.62 72.6302 6.38 71.8568 6.38C71.0168 6.38 70.3435 6.66 69.8368 7.22C69.3302 7.76667 69.0768 8.55333 69.0768 9.58V15H66.5768V9.2C66.5768 8.26667 66.3702 7.56667 65.9568 7.1C65.5435 6.62 64.9502 6.38 64.1768 6.38C63.3235 6.38 62.6435 6.65333 62.1368 7.2C61.6435 7.74667 61.3968 8.54 61.3968 9.58V15H58.8968V4.32H61.2768V5.68C61.6768 5.2 62.1768 4.83333 62.7768 4.58C63.3768 4.32667 64.0435 4.2 64.7768 4.2C65.5768 4.2 66.2835 4.35333 66.8968 4.66C67.5235 4.95333 68.0168 5.39333 68.3768 5.98C68.8168 5.42 69.3835 4.98667 70.0768 4.68C70.7702 4.36 71.5368 4.2 72.3768 4.2ZM85.8715 4.2C86.9115 4.2 87.8382 4.42667 88.6515 4.88C89.4782 5.33333 90.1249 5.97333 90.5915 6.8C91.0582 7.62667 91.2915 8.58 91.2915 9.66C91.2915 10.74 91.0582 11.7 90.5915 12.54C90.1249 13.3667 89.4782 14.0067 88.6515 14.46C87.8382 14.9133 86.9115 15.14 85.8715 15.14C85.1382 15.14 84.4649 15.0133 83.8515 14.76C83.2515 14.5067 82.7449 14.1267 82.3315 13.62V15H79.9515V0.159999H82.4515V5.62C82.8782 5.15333 83.3782 4.8 83.9515 4.56C84.5382 4.32 85.1782 4.2 85.8715 4.2ZM85.5915 13C86.5115 13 87.2649 12.6933 87.8515 12.08C88.4515 11.4667 88.7515 10.66 88.7515 9.66C88.7515 8.66 88.4515 7.85333 87.8515 7.24C87.2649 6.62667 86.5115 6.32 85.5915 6.32C84.9915 6.32 84.4515 6.46 83.9715 6.74C83.4915 7.00667 83.1115 7.39333 82.8315 7.9C82.5515 8.40667 82.4115 8.99333 82.4115 9.66C82.4115 10.3267 82.5515 10.9133 82.8315 11.42C83.1115 11.9267 83.4915 12.32 83.9715 12.6C84.4515 12.8667 84.9915 13 85.5915 13ZM97.6057 4.2C99.1791 4.2 100.379 4.58 101.206 5.34C102.046 6.08667 102.466 7.22 102.466 8.74V15H100.106V13.7C99.7991 14.1667 99.3591 14.5267 98.7857 14.78C98.2257 15.02 97.5457 15.14 96.7457 15.14C95.9457 15.14 95.2457 15.0067 94.6457 14.74C94.0457 14.46 93.5791 14.08 93.2457 13.6C92.9257 13.1067 92.7657 12.5533 92.7657 11.94C92.7657 10.98 93.1191 10.2133 93.8257 9.64C94.5457 9.05333 95.6724 8.76 97.2057 8.76H99.9657V8.6C99.9657 7.85333 99.7391 7.28 99.2857 6.88C98.8457 6.48 98.1857 6.28 97.3057 6.28C96.7057 6.28 96.1124 6.37333 95.5257 6.56C94.9524 6.74667 94.4657 7.00667 94.0657 7.34L93.0857 5.52C93.6457 5.09333 94.3191 4.76667 95.1057 4.54C95.8924 4.31333 96.7257 4.2 97.6057 4.2ZM97.2657 13.32C97.8924 13.32 98.4457 13.18 98.9257 12.9C99.4191 12.6067 99.7657 12.1933 99.9657 11.66V10.42H97.3857C95.9457 10.42 95.2257 10.8933 95.2257 11.84C95.2257 12.2933 95.4057 12.6533 95.7657 12.92C96.1257 13.1867 96.6257 13.32 97.2657 13.32ZM115.479 4.32L110.479 15.86C110.012 17.02 109.446 17.8333 108.779 18.3C108.112 18.78 107.306 19.02 106.359 19.02C105.826 19.02 105.299 18.9333 104.779 18.76C104.259 18.5867 103.832 18.3467 103.499 18.04L104.499 16.2C104.739 16.4267 105.019 16.6067 105.339 16.74C105.672 16.8733 106.006 16.94 106.339 16.94C106.779 16.94 107.139 16.8267 107.419 16.6C107.712 16.3733 107.979 15.9933 108.219 15.46L108.399 15.04L103.739 4.32H106.339L109.699 12.22L113.079 4.32H115.479Z" fill="#31343C"/>
</svg>
