<svg width="19" height="20" viewBox="0 0 19 20" fill="none" xmlns="http://www.w3.org/2000/svg">
<path fill-rule="evenodd" clip-rule="evenodd" d="M5.72148 0.888374C6.69898 0.843374 7.01065 0.833374 9.50065 0.833374C11.9907 0.833374 12.3023 0.844207 13.279 0.888374C14.2557 0.932541 14.9223 1.08837 15.5056 1.31421C16.1165 1.54504 16.6706 1.90587 17.129 2.37254C17.5956 2.83004 17.9557 3.38337 18.1856 3.99504C18.4123 4.57837 18.5673 5.24504 18.6123 6.22004C18.6573 7.19921 18.6673 7.51087 18.6673 10C18.6673 12.49 18.6565 12.8017 18.6123 13.7792C18.5681 14.7542 18.4123 15.4209 18.1856 16.0042C17.9556 16.616 17.595 17.1702 17.129 17.6284C16.6706 18.095 16.1165 18.455 15.5056 18.685C14.9223 18.9117 14.2556 19.0667 13.2806 19.1117C12.3023 19.1567 11.9907 19.1667 9.50065 19.1667C7.01065 19.1667 6.69898 19.1559 5.72148 19.1117C4.74648 19.0675 4.07982 18.9117 3.49648 18.685C2.88475 18.455 2.3305 18.0944 1.87232 17.6284C1.40597 17.1706 1.04508 16.6166 0.814818 16.005C0.588984 15.4217 0.433984 14.755 0.388984 13.78C0.343984 12.8009 0.333984 12.4892 0.333984 10C0.333984 7.51004 0.344818 7.19837 0.388984 6.22171C0.433151 5.24504 0.588984 4.57837 0.814818 3.99504C1.04542 3.38344 1.40658 2.82947 1.87315 2.37171C2.33068 1.90546 2.88438 1.54458 3.49565 1.31421C4.07898 1.08837 4.74565 0.933374 5.72065 0.888374H5.72148ZM13.2048 2.53837C12.2381 2.49421 11.9481 2.48504 9.50065 2.48504C7.05315 2.48504 6.76315 2.49421 5.79648 2.53837C4.90232 2.57921 4.41732 2.72837 4.09398 2.85421C3.66648 3.02087 3.36065 3.21837 3.03982 3.53921C2.73569 3.83508 2.50163 4.19528 2.35482 4.59337C2.22898 4.91671 2.07982 5.40171 2.03898 6.29587C1.99482 7.26254 1.98565 7.55254 1.98565 10C1.98565 12.4475 1.99482 12.7375 2.03898 13.7042C2.07982 14.5984 2.22898 15.0834 2.35482 15.4067C2.50148 15.8042 2.73565 16.165 3.03982 16.4609C3.33565 16.765 3.69648 16.9992 4.09398 17.1459C4.41732 17.2717 4.90232 17.4209 5.79648 17.4617C6.76315 17.5059 7.05232 17.515 9.50065 17.515C11.949 17.515 12.2381 17.5059 13.2048 17.4617C14.099 17.4209 14.584 17.2717 14.9073 17.1459C15.3348 16.9792 15.6406 16.7817 15.9615 16.4609C16.2656 16.165 16.4998 15.8042 16.6465 15.4067C16.7723 15.0834 16.9215 14.5984 16.9623 13.7042C17.0065 12.7375 17.0156 12.4475 17.0156 10C17.0156 7.55254 17.0065 7.26254 16.9623 6.29587C16.9215 5.40171 16.7723 4.91671 16.6465 4.59337C16.4798 4.16587 16.2823 3.86004 15.9615 3.53921C15.6656 3.2351 15.3054 3.00105 14.9073 2.85421C14.584 2.72837 14.099 2.57921 13.2048 2.53837ZM8.32982 12.8259C8.9837 13.0981 9.7118 13.1348 10.3898 12.9298C11.0677 12.7248 11.6535 12.2908 12.047 11.7019C12.4405 11.113 12.6174 10.4058 12.5474 9.70096C12.4773 8.99616 12.1648 8.33752 11.6631 7.83754C11.3433 7.51794 10.9567 7.27322 10.5309 7.121C10.1052 6.96877 9.65101 6.91284 9.20106 6.95722C8.75112 7.0016 8.31661 7.14519 7.92882 7.37765C7.54103 7.61011 7.2096 7.92566 6.9584 8.30158C6.7072 8.67751 6.54247 9.10445 6.47608 9.55167C6.40969 9.9989 6.44328 10.4553 6.57443 10.888C6.70559 11.3207 6.93105 11.7189 7.23458 12.054C7.53812 12.3891 7.91217 12.6527 8.32982 12.8259ZM6.16898 6.66837C6.6065 6.23085 7.12592 5.88379 7.69757 5.64701C8.26921 5.41022 8.8819 5.28835 9.50065 5.28835C10.1194 5.28835 10.7321 5.41022 11.3037 5.64701C11.8754 5.88379 12.3948 6.23085 12.8323 6.66837C13.2698 7.10589 13.6169 7.62531 13.8537 8.19696C14.0905 8.7686 14.2123 9.38129 14.2123 10C14.2123 10.6188 14.0905 11.2315 13.8537 11.8031C13.6169 12.3748 13.2698 12.8942 12.8323 13.3317C11.9487 14.2153 10.7503 14.7117 9.50065 14.7117C8.25103 14.7117 7.0526 14.2153 6.16898 13.3317C5.28537 12.4481 4.78896 11.2497 4.78896 10C4.78896 8.75042 5.28537 7.55199 6.16898 6.66837ZM15.2573 5.99004C15.3657 5.88776 15.4525 5.76477 15.5126 5.62835C15.5726 5.49193 15.6047 5.34485 15.6068 5.19582C15.609 5.04678 15.5813 4.89883 15.5252 4.76072C15.4692 4.6226 15.386 4.49713 15.2806 4.39174C15.1752 4.28635 15.0498 4.20317 14.9116 4.14714C14.7735 4.09111 14.6256 4.06335 14.4765 4.06553C14.3275 4.0677 14.1804 4.09975 14.044 4.15979C13.9076 4.21982 13.7846 4.30662 13.6823 4.41504C13.4834 4.6259 13.3745 4.90597 13.3787 5.19582C13.383 5.48566 13.5 5.76244 13.7049 5.96741C13.9099 6.17238 14.1867 6.2894 14.4765 6.29362C14.7664 6.29785 15.0465 6.18895 15.2573 5.99004Z" fill="#C5C8D2"/>
</svg>
