<svg width="32" height="32" viewBox="0 0 32 32" fill="none" xmlns="http://www.w3.org/2000/svg">
<path d="M29.3326 6.79112C28.1415 4.34667 24.7103 2.34668 20.7192 3.51112C18.8121 4.062 17.1481 5.24337 15.9992 6.86223C14.8503 5.24337 13.1864 4.062 11.2792 3.51112C7.27923 2.36445 3.85701 4.34667 2.6659 6.79112C0.994786 10.2133 1.68812 14.0622 4.72812 18.2311C7.11034 21.4933 10.5148 24.8 15.457 28.64C15.6132 28.7618 15.8056 28.828 16.0037 28.828C16.2018 28.828 16.3942 28.7618 16.5503 28.64C21.4837 24.8089 24.897 21.5289 27.2792 18.2311C30.3103 14.0622 31.0037 10.2133 29.3326 6.79112Z" fill="#FF4B4B"/>
</svg>
