<?xml version="1.0" encoding="utf-8"?>
<!-- Generator: Adobe Illustrator 24.0.1, SVG Export Plug-In . SVG Version: 6.00 Build 0)  -->
<svg version="1.1" id="Layer_1" xmlns="http://www.w3.org/2000/svg" xmlns:xlink="http://www.w3.org/1999/xlink" x="0px" y="0px"
	 viewBox="0 0 632 442" style="enable-background:new 0 0 632 442;" xml:space="preserve">
<style type="text/css">
	.st0{display:none;fill:#31343C;}
	.st1{display:none;fill:#3D5AFF;}
	.st2{display:none;fill:#FFFFFF;}
	.st3{display:none;fill:#FF6584;}
	.st4{fill:#31343C;}
	.st5{fill:#3D5AFF;}
	.st6{fill:#FFFFFF;}
	.st7{fill:#FF6584;}
	.st8{fill:#2F2E41;}
	.st9{fill:#9F616A;}
	.st10{opacity:0.1;enable-background:new    ;}
	.st11{fill:#3F3D56;}
	.st12{clip-path:url(#SVGID_2_);}
	.st13{fill:#E8E9ED;}
</style>
<path class="st0" d="M84.9,187.1c7.9,0,15.2,2.1,21.7,6c4.6-35.9,35.2-63.7,72.5-63.7c6.3,0,12.1,0.8,17.9,2.3
	c4.4-20.7,22.7-36.3,44.8-36.3c10,0,19.2,3.1,26.7,8.5C280.3,63,318,33.2,362.8,33.2c6.9,0,13.5,0.6,20,2.1
	C406.5-21.4,462.6-61,528-61c86.9,0,157.3,70.1,157.3,156.6c0,12.9-1.5,25.3-4.4,37.1c12.9-8.1,28.1-12.9,44.4-12.9
	c45.6,0,82.7,36.9,82.7,82.3s-37.1,82.3-82.7,82.3c-6.5,0-12.7-0.8-18.5-2.1c1.5,2.9,2.3,6,2.9,9.3c2.5,17.2-9.6,33.4-26.9,35.9
	c-9,1.2-17.7-1.2-24.4-6.6c-12.5,29.2-39.4,51.4-73.3,56.4c-24.6,3.5-48.5-2.7-67.5-16c-2.5,35.3-29.4,65.5-66,70.7
	c-37.7,5.4-73.1-17.2-84.6-52.1c-16,12.4-35.4,21.2-57.1,24.3C243.4,414,181.8,368.1,172,302c-0.2-1-0.2-2.1-0.4-3.1
	c-6.5,9.1-16.5,15.8-28.3,17.4c-22.9,3.3-44.4-12.4-47.7-35.5c-0.6-3.9-0.6-7.7,0-11.4c-3.3,0.8-6.7,1.2-10.4,1.2
	C62,270.6,43,252,43,228.7C43,205.5,61.5,187.1,84.9,187.1z"/>
<path class="st1" d="M199.9,209.1l-0.8-0.5l0.5-0.8l-0.2-0.1l-0.5,0.8L198,208l-0.1,0.2l0.8,0.5l-0.5,0.8l0.2,0.1l0.5-0.8l0.8,0.5
	L199.9,209.1z"/>
<path class="st1" d="M317.3,340l-0.8-0.5l0.5-0.8l-0.2-0.1l-0.5,0.8l-0.8-0.5l-0.1,0.2l0.8,0.5l-0.5,0.8l0.2,0.1l0.5-0.8l0.8,0.5
	L317.3,340z"/>
<path class="st1" d="M260,267.6l-0.8-0.5l0.5-0.8l-0.2-0.1L259,267l-0.8-0.5l-0.1,0.2l0.8,0.5l-0.5,0.8l0.2,0.1l0.5-0.8l0.8,0.5
	L260,267.6z"/>
<path class="st1" d="M162.7,260.5l-0.8-0.5l0.5-0.8l-0.2-0.1l-0.5,0.8l-0.8-0.5l-0.1,0.2l0.8,0.5l-0.5,0.8l0.2,0.1l0.5-0.8l0.8,0.5
	L162.7,260.5z"/>
<path class="st1" d="M235.5,298.4l-0.8-0.5l0.5-0.8L235,297l-0.5,0.8l-0.8-0.5l-0.1,0.2l0.8,0.5l-0.5,0.8l0.2,0.1l0.5-0.8l0.8,0.5
	L235.5,298.4z"/>
<path class="st1" d="M167.8,283.8l-0.8-0.5l0.5-0.8l-0.2-0.1l-0.5,0.8l-0.8-0.5l-0.1,0.2l0.8,0.5l-0.5,0.8l0.2,0.1l0.5-0.8l0.8,0.5
	L167.8,283.8z"/>
<path class="st1" d="M330.9,264.4l-0.8-0.5l0.5-0.8l-0.2-0.1l-0.5,0.8l-0.8-0.5l-0.1,0.2l0.8,0.5l-0.5,0.8l0.2,0.1l0.5-0.8l0.8,0.5
	L330.9,264.4z"/>
<path class="st1" d="M151.2,216.6l-0.8-0.5l0.5-0.8l-0.2-0.1l-0.5,0.8l-0.8-0.5l-0.1,0.2l0.8,0.5l-0.5,0.8l0.2,0.1l0.5-0.8l0.8,0.5
	L151.2,216.6z"/>
<path class="st1" d="M268.6,347.5l-0.8-0.5l0.5-0.8l-0.2-0.1l-0.5,0.8l-0.8-0.5l-0.1,0.2l0.8,0.5l-0.5,0.8l0.2,0.1l0.5-0.8l0.8,0.5
	L268.6,347.5z"/>
<path class="st2" d="M218.9,225.5l-1.1-0.7l0.7-1.1l-0.3-0.2l-0.7,1.1l-1.1-0.7l-0.2,0.3l1.1,0.7l-0.7,1.1l0.3,0.2l0.7-1.1l1.1,0.7
	L218.9,225.5z"/>
<path class="st2" d="M336.3,356.3l-1.1-0.7l0.7-1.1l-0.3-0.2l-0.7,1.1l-1.1-0.7l-0.2,0.3l1.1,0.7l-0.7,1.1l0.3,0.2l0.7-1.1l1.1,0.7
	L336.3,356.3z"/>
<path class="st1" d="M178.1,240.4c0.7,0,1.2-0.5,1.2-1.2s-0.5-1.2-1.2-1.2s-1.2,0.5-1.2,1.2C176.9,239.9,177.5,240.4,178.1,240.4z"
	/>
<path class="st1" d="M295.5,371.3c0.7,0,1.2-0.5,1.2-1.2s-0.5-1.2-1.2-1.2s-1.2,0.5-1.2,1.2S294.8,371.3,295.5,371.3z"/>
<path class="st1" d="M131.8,240.4c0.7,0,1.2-0.5,1.2-1.2s-0.5-1.2-1.2-1.2s-1.2,0.5-1.2,1.2S131.1,240.4,131.8,240.4z"/>
<path class="st1" d="M249.2,371.3c0.7,0,1.2-0.5,1.2-1.2s-0.5-1.2-1.2-1.2s-1.2,0.5-1.2,1.2S248.5,371.3,249.2,371.3z"/>
<path class="st1" d="M212.5,197c0.7,0,1.2-0.5,1.2-1.2s-0.5-1.2-1.2-1.2s-1.2,0.5-1.2,1.2S211.9,197,212.5,197z"/>
<path class="st1" d="M329.9,327.8c0.7,0,1.2-0.5,1.2-1.2s-0.5-1.2-1.2-1.2s-1.2,0.5-1.2,1.2C328.7,327.3,329.3,327.8,329.9,327.8z"
	/>
<path class="st1" d="M201.5,269.3c0.7,0,1.2-0.5,1.2-1.2s-0.5-1.2-1.2-1.2s-1.2,0.5-1.2,1.2C200.3,268.7,200.8,269.3,201.5,269.3z"
	/>
<path class="st1" d="M200.7,244c0.4,0,0.8-0.4,0.8-0.8s-0.4-0.8-0.8-0.8c-0.4,0-0.8,0.4-0.8,0.8S200.2,244,200.7,244z"/>
<path class="st1" d="M318.1,374.8c0.4,0,0.8-0.4,0.8-0.8s-0.4-0.8-0.8-0.8s-0.8,0.4-0.8,0.8C317.3,374.5,317.6,374.8,318.1,374.8z"
	/>
<path class="st3" d="M281.8,278.7c0.4,0,0.8-0.4,0.8-0.8s-0.4-0.8-0.8-0.8s-0.8,0.4-0.8,0.8S281.4,278.7,281.8,278.7z"/>
<path class="st3" d="M160.7,235.7c0.4,0,0.8-0.4,0.8-0.8s-0.4-0.8-0.8-0.8s-0.8,0.4-0.8,0.8S160.3,235.7,160.7,235.7z"/>
<path class="st3" d="M278.1,366.5c0.4,0,0.8-0.4,0.8-0.8s-0.4-0.8-0.8-0.8s-0.8,0.4-0.8,0.8C277.3,366.2,277.6,366.5,278.1,366.5z"
	/>
<path class="st3" d="M210.2,171.8c0.4,0,0.8-0.4,0.8-0.8c0-0.4-0.4-0.8-0.8-0.8c-0.4,0-0.8,0.4-0.8,0.8
	C209.4,171.4,209.7,171.8,210.2,171.8z"/>
<path class="st3" d="M327.6,302.6c0.4,0,0.8-0.4,0.8-0.8s-0.4-0.8-0.8-0.8s-0.8,0.4-0.8,0.8S327.1,302.6,327.6,302.6z"/>
<path class="st1" d="M177.7,208.5c0.4,0,0.8-0.4,0.8-0.8c0-0.4-0.4-0.8-0.8-0.8c-0.4,0-0.8,0.4-0.8,0.8S177.3,208.5,177.7,208.5z"/>
<path class="st1" d="M295.1,339.3c0.4,0,0.8-0.4,0.8-0.8s-0.4-0.8-0.8-0.8s-0.8,0.4-0.8,0.8S294.7,339.3,295.1,339.3z"/>
<path class="st2" d="M187.6,182c0.4,0,0.8-0.4,0.8-0.8c0-0.4-0.4-0.8-0.8-0.8s-0.8,0.4-0.8,0.8C186.8,181.7,187.2,182,187.6,182z"/>
<path class="st2" d="M305,312.8c0.4,0,0.8-0.4,0.8-0.8s-0.4-0.8-0.8-0.8s-0.8,0.4-0.8,0.8S304.6,312.8,305,312.8z"/>
<path class="st1" d="M306,253.5c0.7,0,1.2-0.5,1.2-1.2s-0.5-1.2-1.2-1.2s-1.2,0.5-1.2,1.2C304.8,252.9,305.3,253.5,306,253.5z"/>
<path class="st1" d="M227.2,257.8c0.7,0,1.2-0.5,1.2-1.2s-0.5-1.2-1.2-1.2s-1.2,0.5-1.2,1.2C226,257.3,226.5,257.8,227.2,257.8z"/>
<path class="st1" d="M207,288.6c2.2,0,4-1.8,4-3.9c0-2.2-1.8-3.9-4-3.9s-4,1.8-4,3.9C203,286.8,204.8,288.6,207,288.6z"/>
<path class="st2" d="M254.9,242.8c0.7,0,1.2-0.5,1.2-1.2s-0.5-1.2-1.2-1.2s-1.2,0.5-1.2,1.2S254.2,242.8,254.9,242.8z"/>
<path class="st2" d="M372.3,373.6c0.7,0,1.2-0.5,1.2-1.2s-0.5-1.2-1.2-1.2s-1.2,0.5-1.2,1.2C371.1,373.1,371.6,373.6,372.3,373.6z"
	/>
<path class="st1" d="M549.3,280l-0.8-0.5l0.5-0.8l-0.2-0.1l-0.5,0.8l-0.8-0.5l-0.1,0.2l0.8,0.5l-0.5,0.8l0.2,0.1l0.5-0.8l0.8,0.5
	L549.3,280z"/>
<path class="st1" d="M609.4,338.4l-0.8-0.5l0.5-0.8l-0.2-0.1l-0.5,0.8l-0.8-0.5l-0.1,0.2l0.8,0.5l-0.5,0.8l0.2,0.1l0.5-0.8l0.8,0.5
	L609.4,338.4z"/>
<path class="st1" d="M512.1,331.3l-0.8-0.5l0.5-0.8l-0.2-0.1l-0.5,0.8l-0.8-0.5l-0.1,0.2l0.8,0.5l-0.5,0.8l0.2,0.1l0.5-0.8l0.8,0.5
	L512.1,331.3z"/>
<path class="st1" d="M584.9,369.2l-0.8-0.5l0.5-0.8l-0.2-0.1l-0.5,0.8L583,368l-0.1,0.2l0.8,0.5l-0.5,0.8l0.2,0.1l0.5-0.8l0.8,0.5
	L584.9,369.2z"/>
<path class="st1" d="M517.2,354.6l-0.8-0.5l0.5-0.8l-0.2-0.1l-0.5,0.8l-0.8-0.5l-0.1,0.2l0.8,0.5l-0.5,0.8l0.2,0.1l0.5-0.8l0.8,0.5
	L517.2,354.6z"/>
<path class="st1" d="M500.6,287.5l-0.8-0.5l0.5-0.8l-0.2-0.1l-0.5,0.8l-0.8-0.5l-0.1,0.2l0.8,0.5l-0.5,0.8l0.2,0.1l0.5-0.8l0.8,0.5
	L500.6,287.5z"/>
<path class="st2" d="M568.3,296.3l-1.1-0.7l0.7-1.1l-0.3-0.2l-0.7,1.1l-1.1-0.7l-0.2,0.3l1.1,0.7l-0.7,1.1l0.3,0.2l0.7-1.1l1.1,0.7
	L568.3,296.3z"/>
<path class="st1" d="M527.5,311.3c0.7,0,1.2-0.5,1.2-1.2s-0.5-1.2-1.2-1.2s-1.2,0.5-1.2,1.2S526.8,311.3,527.5,311.3z"/>
<path class="st1" d="M481.2,311.3c0.7,0,1.2-0.5,1.2-1.2s-0.5-1.2-1.2-1.2s-1.2,0.5-1.2,1.2S480.5,311.3,481.2,311.3z"/>
<path class="st1" d="M561.9,267.8c0.7,0,1.2-0.5,1.2-1.2s-0.5-1.2-1.2-1.2s-1.2,0.5-1.2,1.2S561.3,267.8,561.9,267.8z"/>
<path class="st1" d="M550.8,340.1c0.7,0,1.2-0.5,1.2-1.2s-0.5-1.2-1.2-1.2s-1.2,0.5-1.2,1.2S550.2,340.1,550.8,340.1z"/>
<path class="st1" d="M550.1,314.8c0.4,0,0.8-0.4,0.8-0.8s-0.4-0.8-0.8-0.8s-0.8,0.4-0.8,0.8C549.3,314.5,549.6,314.8,550.1,314.8z"
	/>
<path class="st3" d="M631.2,349.5c0.4,0,0.8-0.4,0.8-0.8s-0.4-0.8-0.8-0.8s-0.8,0.4-0.8,0.8S630.8,349.5,631.2,349.5z"/>
<path class="st3" d="M510.1,306.5c0.4,0,0.8-0.4,0.8-0.8s-0.4-0.8-0.8-0.8s-0.8,0.4-0.8,0.8C509.3,306.2,509.6,306.5,510.1,306.5z"
	/>
<path class="st3" d="M559.6,242.6c0.4,0,0.8-0.4,0.8-0.8s-0.4-0.8-0.8-0.8s-0.8,0.4-0.8,0.8S559.1,242.6,559.6,242.6z"/>
<path class="st1" d="M527.1,279.3c0.4,0,0.8-0.4,0.8-0.8s-0.4-0.8-0.8-0.8c-0.4,0-0.8,0.4-0.8,0.8S526.7,279.3,527.1,279.3z"/>
<path class="st2" d="M537,252.8c0.4,0,0.8-0.4,0.8-0.8s-0.4-0.8-0.8-0.8s-0.8,0.4-0.8,0.8S536.6,252.8,537,252.8z"/>
<path class="st1" d="M576.6,328.6c0.7,0,1.2-0.5,1.2-1.2s-0.5-1.2-1.2-1.2s-1.2,0.5-1.2,1.2C575.4,328.1,575.9,328.6,576.6,328.6z"
	/>
<path class="st1" d="M556.4,359.4c2.2,0,4-1.8,4-3.9s-1.8-3.9-4-3.9s-4,1.8-4,3.9S554.2,359.4,556.4,359.4z"/>
<path class="st1" d="M393.3,173l-0.8-0.5l0.5-0.8l-0.2-0.1l-0.5,0.8l-0.8-0.5l-0.1,0.2l0.8,0.5l-0.5,0.8l0.2,0.1l0.5-0.8l0.8,0.5
	L393.3,173z"/>
<path class="st1" d="M453.4,231.4l-0.8-0.5l0.5-0.8l-0.2-0.1l-0.5,0.8l-0.8-0.5l-0.1,0.2l0.8,0.5l-0.5,0.8l0.2,0.1l0.5-0.8l0.8,0.5
	L453.4,231.4z"/>
<path class="st4" d="M132,173.1c5.5,0,10.5,1.4,15,4.2c3.2-24.8,24.3-43.9,50-43.9c4.3,0,8.3,0.6,12.4,1.6c3-14.3,15.7-25,30.9-25
	c6.9,0,13.2,2.1,18.4,5.9c8.2-28.2,34.2-48.8,65.1-48.8c4.7,0,9.3,0.4,13.8,1.4C353.9,29.3,392.6,2,437.7,2
	c59.9,0,108.5,48.4,108.5,108c0,8.9-1,17.5-3,25.6c8.9-5.6,19.4-8.9,30.6-8.9c31.5,0,57.1,25.5,57.1,56.8
	c0,31.3-25.6,56.8-57.1,56.8c-4.5,0-8.8-0.6-12.8-1.4c1,2,1.6,4.1,2,6.4c1.7,11.9-6.6,23-18.5,24.8c-6.2,0.9-12.2-0.9-16.8-4.6
	c-8.6,20.2-27.2,35.5-50.6,38.9c-17,2.4-33.5-1.9-46.6-11c-1.7,24.3-20.3,45.2-45.6,48.8c-26,3.7-50.5-11.9-58.4-35.9
	c-11.1,8.6-24.4,14.6-39.4,16.7c-45.9,6.6-88.4-25-95.2-70.7c-0.1-0.7-0.1-1.4-0.3-2.1c-4.5,6.3-11.4,10.9-19.6,12
	c-15.8,2.3-30.6-8.6-32.9-24.5c-0.4-2.7-0.4-5.3,0-7.9c-2.3,0.6-4.6,0.9-7.2,0.9c-16,0-29-12.9-29-28.9
	C103.1,185.9,115.9,173.1,132,173.1z"/>
<path class="st5" d="M211.3,178.2l-0.6-0.3l0.4-0.5l-0.2-0.1l-0.4,0.5l-0.6-0.3l-0.1,0.1l0.6,0.3l-0.4,0.5l0.2,0.1l0.4-0.5l0.6,0.3
	L211.3,178.2z"/>
<path class="st5" d="M334.2,263.8l-0.6-0.3l0.4-0.5l-0.2-0.1l-0.4,0.5L333,263l-0.1,0.1l0.6,0.3l-0.4,0.5l0.2,0.1l0.4-0.5l0.6,0.3
	L334.2,263.8z"/>
<path class="st5" d="M252.9,216.3l-0.6-0.3l0.4-0.5l-0.2-0.1l-0.4,0.5l-0.6-0.3l-0.1,0.1l0.6,0.3l-0.4,0.5l0.2,0.1l0.4-0.5l0.6,0.3
	L252.9,216.3z"/>
<path class="st5" d="M185.7,211.6l-0.6-0.3l0.4-0.5l-0.2-0.1l-0.4,0.5l-0.6-0.3l-0.1,0.1l0.6,0.3l-0.4,0.5l0.2,0.1l0.4-0.5l0.6,0.3
	L185.7,211.6z"/>
<path class="st5" d="M235.9,236.4l-0.6-0.3l0.4-0.5l-0.2-0.1l-0.4,0.5l-0.6-0.3l-0.1,0.1l0.6,0.3l-0.4,0.5l0.2,0.1l0.4-0.5l0.6,0.3
	L235.9,236.4z"/>
<path class="st5" d="M186.6,237.5l-0.6-0.3l0.4-0.5l-0.2-0.1l-0.4,0.5l-0.6-0.3l-0.1,0.1l0.6,0.3l-0.4,0.5l0.2,0.1l0.4-0.5l0.6,0.3
	L186.6,237.5z"/>
<path class="st5" d="M301.7,214.2l-0.6-0.3l0.4-0.5l-0.2-0.1l-0.4,0.5l-0.6-0.3l-0.1,0.1l0.6,0.3l-0.4,0.5l0.2,0.1l0.4-0.5l0.6,0.3
	L301.7,214.2z"/>
<path class="st5" d="M174.8,165.1l-0.6-0.3l0.4-0.5l-0.2-0.1l-0.4,0.5l-0.6-0.3l-0.1,0.1l0.6,0.3l-0.4,0.5l0.2,0.1l0.4-0.5l0.6,0.3
	L174.8,165.1z"/>
<path class="st5" d="M263.2,269.3l-0.6-0.3l0.4-0.5l-0.2-0.1l-0.4,0.5l-0.6-0.3l-0.1,0.1l0.6,0.3l-0.4,0.5l0.2,0.1l0.4-0.5l0.6,0.3
	L263.2,269.3z"/>
<path class="st6" d="M224.5,188.8l-0.8-0.5l0.5-0.7l-0.2-0.1l-0.5,0.7l-0.8-0.5l-0.1,0.2l0.8,0.5l-0.5,0.7l0.2,0.1l0.5-0.7l0.8,0.5
	L224.5,188.8z"/>
<path class="st6" d="M307.9,256.5l-0.8-0.5l0.5-0.7l-0.2-0.1l-0.5,0.7l-0.8-0.5l-0.1,0.2l0.8,0.5l-0.5,0.7l0.2,0.1l0.5-0.7l0.8,0.5
	L307.9,256.5z"/>
<path class="st5" d="M164.4,198.6c0.5,0,0.8-0.3,0.8-0.8c0-0.4-0.4-0.8-0.8-0.8c-0.5,0-0.8,0.3-0.8,0.8
	C163.6,198.2,163.9,198.6,164.4,198.6z"/>
<path class="st5" d="M253.6,309.2c0.5,0,0.8-0.3,0.8-0.8c0-0.4-0.4-0.8-0.8-0.8c-0.5,0-0.8,0.3-0.8,0.8
	C252.8,308.8,253.2,309.2,253.6,309.2z"/>
<path class="st5" d="M225.4,161.5c0.5,0,0.8-0.3,0.8-0.8c0-0.4-0.4-0.8-0.8-0.8c-0.5,0-0.8,0.3-0.8,0.8
	C224.5,161.2,224.9,161.5,225.4,161.5z"/>
<path class="st5" d="M221.9,267.1c0.5,0,0.8-0.3,0.8-0.8c0-0.4-0.4-0.8-0.8-0.8c-0.5,0-0.8,0.3-0.8,0.8
	C221.1,266.8,221.5,267.1,221.9,267.1z"/>
<path class="st5" d="M211.9,200.9c0.3,0,0.5-0.2,0.5-0.5c0-0.3-0.2-0.5-0.5-0.5c-0.3,0-0.5,0.2-0.5,0.5
	C211.3,200.7,211.6,200.9,211.9,200.9z"/>
<path class="st5" d="M279.6,268.7c0.3,0,0.5-0.2,0.5-0.5c0-0.3-0.2-0.5-0.5-0.5c-0.3,0-0.5,0.2-0.5,0.5
	C279,268.4,279.3,268.7,279.6,268.7z"/>
<path class="st7" d="M267.9,223.6c0.3,0,0.5-0.2,0.5-0.5c0-0.3-0.2-0.5-0.5-0.5c-0.3,0-0.5,0.2-0.5,0.5
	C267.3,223.3,267.6,223.6,267.9,223.6z"/>
<path class="st7" d="M184.3,195.5c0.3,0,0.5-0.2,0.5-0.5c0-0.3-0.2-0.5-0.5-0.5c-0.3,0-0.5,0.2-0.5,0.5
	C183.8,195.3,184,195.5,184.3,195.5z"/>
<path class="st7" d="M267.2,299.7c0.3,0,0.5-0.2,0.5-0.5c0-0.3-0.2-0.5-0.5-0.5c-0.3,0-0.5,0.2-0.5,0.5
	C266.6,299.5,266.9,299.7,267.2,299.7z"/>
<path class="st7" d="M211.3,147.9c0.3,0,0.5-0.2,0.5-0.5c0-0.3-0.2-0.5-0.5-0.5c-0.3,0-0.5,0.2-0.5,0.5
	C210.7,147.7,211,147.9,211.3,147.9z"/>
<path class="st5" d="M336.9,246.6c0.3,0,0.5-0.2,0.5-0.5c0-0.3-0.2-0.5-0.5-0.5c-0.3,0-0.5,0.2-0.5,0.5
	C336.3,246.4,336.6,246.6,336.9,246.6z"/>
<path class="st6" d="M201.6,177.6c0.3,0,0.5-0.2,0.5-0.5c0-0.3-0.2-0.5-0.5-0.5c-0.3,0-0.5,0.2-0.5,0.5
	C201.1,177.4,201.3,177.6,201.6,177.6z"/>
<path class="st6" d="M283.9,245.8c0.3,0,0.5-0.2,0.5-0.5c0-0.3-0.2-0.5-0.5-0.5s-0.5,0.2-0.5,0.5
	C283.3,245.6,283.6,245.8,283.9,245.8z"/>
<path class="st5" d="M284.5,207.1c0.5,0,0.8-0.3,0.8-0.8s-0.4-0.8-0.8-0.8s-0.8,0.3-0.8,0.8S284.1,207.1,284.5,207.1z"/>
<path class="st5" d="M216.3,230c1.5,0,2.7-1.2,2.7-2.6c0-1.4-1.2-2.6-2.7-2.6c-1.5,0-2.7,1.2-2.7,2.6
	C213.5,228.8,214.8,230,216.3,230z"/>
<path class="st6" d="M249.3,200.1c0.5,0,0.8-0.3,0.8-0.8c0-0.4-0.4-0.8-0.8-0.8c-0.5,0-0.8,0.3-0.8,0.8
	C248.5,199.8,248.9,200.1,249.3,200.1z"/>
<path class="st6" d="M330.3,285.5c0.5,0,0.8-0.3,0.8-0.8c0-0.4-0.4-0.8-0.8-0.8s-0.8,0.3-0.8,0.8
	C329.5,285.1,329.8,285.5,330.3,285.5z"/>
<path class="st5" d="M505.3,214.1l-0.6-0.3l0.4-0.5l-0.2-0.1l-0.4,0.5l-0.6-0.3l-0.1,0.1l0.6,0.3l-0.4,0.5l0.2,0.1l0.4-0.5l0.6,0.3
	L505.3,214.1z"/>
<path class="st5" d="M493.9,262.5l-0.6-0.3l0.4-0.5l-0.2-0.1l-0.4,0.5l-0.6-0.3l-0.1,0.1l0.6,0.3l-0.4,0.5l0.2,0.1l0.4-0.5l0.6,0.3
	L493.9,262.5z"/>
<path class="st5" d="M336.3,75.4l-0.6-0.3l0.4-0.5l-0.2-0.1l-0.4,0.5l-0.6-0.3l-0.1,0.1l0.6,0.3l-0.4,0.5l0.2,0.1l0.4-0.5l0.6,0.3
	L336.3,75.4z"/>
<path class="st5" d="M477,282.6l-0.6-0.3l0.4-0.5l-0.2-0.1l-0.4,0.5l-0.6-0.3l-0.1,0.1l0.6,0.3l-0.4,0.5l0.2,0.1l0.4-0.5l0.6,0.3
	L477,282.6z"/>
<path class="st5" d="M430.3,273l-0.6-0.3l0.4-0.5l-0.2-0.1l-0.4,0.5l-0.6-0.3l-0.1,0.1l0.6,0.3l-0.4,0.5l0.2,0.1l0.4-0.5l0.6,0.3
	L430.3,273z"/>
<path class="st5" d="M418.8,229.3l-0.6-0.3l0.4-0.5l-0.2-0.1l-0.4,0.5l-0.6-0.3l-0.1,0.1l0.6,0.3l-0.4,0.5l0.2,0.1l0.4-0.5l0.6,0.3
	L418.8,229.3z"/>
<path class="st6" d="M465.5,235l-0.8-0.5l0.5-0.7l-0.2-0.1l-0.5,0.7l-0.8-0.5l-0.1,0.2l0.8,0.5l-0.5,0.7l0.2,0.1l0.5-0.7l0.8,0.5
	L465.5,235z"/>
<path class="st5" d="M365.4,314c0.5,0,0.8-0.3,0.8-0.8c0-0.4-0.4-0.8-0.8-0.8c-0.5,0-0.8,0.3-0.8,0.8C364.6,313.7,365,314,365.4,314
	z"/>
<path class="st5" d="M423.4,218.1c0.5,0,0.8-0.3,0.8-0.8c0-0.4-0.4-0.8-0.8-0.8c-0.5,0-0.8,0.3-0.8,0.8
	C422.6,217.8,422.9,218.1,423.4,218.1z"/>
<path class="st5" d="M461.2,216.5c0.5,0,0.8-0.3,0.8-0.8c0-0.4-0.4-0.8-0.8-0.8c-0.5,0-0.8,0.3-0.8,0.8
	C460.3,216.1,460.7,216.5,461.2,216.5z"/>
<path class="st5" d="M453,247.1c0.3,0,0.5-0.2,0.5-0.5c0-0.3-0.2-0.5-0.5-0.5c-0.3,0-0.5,0.2-0.5,0.5
	C452.4,246.9,452.7,247.1,453,247.1z"/>
<path class="st7" d="M508.9,269.8c0.3,0,0.5-0.2,0.5-0.5s-0.2-0.5-0.5-0.5c-0.3,0-0.5,0.2-0.5,0.5S508.6,269.8,508.9,269.8z"/>
<path class="st7" d="M425.4,241.7c0.3,0,0.5-0.2,0.5-0.5c0-0.3-0.2-0.5-0.5-0.5c-0.3,0-0.5,0.2-0.5,0.5
	C424.8,241.5,425.1,241.7,425.4,241.7z"/>
<path class="st7" d="M459.5,200c0.3,0,0.5-0.2,0.5-0.5c0-0.3-0.2-0.5-0.5-0.5c-0.3,0-0.5,0.2-0.5,0.5C459,199.7,459.2,200,459.5,200
	z"/>
<path class="st6" d="M444,206.7c0.3,0,0.5-0.2,0.5-0.5c0-0.3-0.2-0.5-0.5-0.5c-0.3,0-0.5,0.2-0.5,0.5
	C443.4,206.4,443.6,206.7,444,206.7z"/>
<path class="st5" d="M471.3,256.1c0.5,0,0.8-0.3,0.8-0.8c0-0.4-0.4-0.8-0.8-0.8s-0.8,0.3-0.8,0.8
	C470.4,255.8,470.8,256.1,471.3,256.1z"/>
<path class="st5" d="M457.3,276.2c1.5,0,2.7-1.2,2.7-2.6c0-1.4-1.2-2.6-2.7-2.6c-1.5,0-2.7,1.2-2.7,2.6
	C454.6,275,455.8,276.2,457.3,276.2z"/>
<path class="st6" d="M490.4,246.3c0.5,0,0.8-0.3,0.8-0.8c0-0.4-0.4-0.8-0.8-0.8s-0.8,0.3-0.8,0.8C489.6,246,489.9,246.3,490.4,246.3
	z"/>
<path class="st5" d="M344.8,154.6l-0.6-0.3l0.4-0.5l-0.2-0.1l-0.4,0.5l-0.6-0.3l-0.1,0.1l0.6,0.3l-0.4,0.5l0.2,0.1l0.4-0.5l0.6,0.3
	L344.8,154.6z"/>
<path class="st5" d="M386.3,192.7l-0.6-0.3l0.4-0.5l-0.2-0.1l-0.4,0.5l-0.6-0.3l-0.1,0.1l0.6,0.3l-0.4,0.5l0.2,0.1l0.4-0.5l0.6,0.3
	L386.3,192.7z"/>
<path class="st5" d="M319.1,188l-0.6-0.3l0.4-0.5l-0.2-0.1l-0.4,0.5l-0.6-0.3l-0.1,0.1l0.6,0.3l-0.4,0.5l0.2,0.1l0.4-0.5l0.6,0.3
	L319.1,188z"/>
<path class="st5" d="M369.4,212.8l-0.6-0.3l0.4-0.5l-0.2-0.1l-0.4,0.5l-0.6-0.3l-0.1,0.1l0.6,0.3l-0.4,0.5l0.2,0.1l0.4-0.5l0.6,0.3
	L369.4,212.8z"/>
<path class="st5" d="M435.2,190.6l-0.6-0.3l0.4-0.5l-0.2-0.1l-0.4,0.5l-0.6-0.3l-0.1,0.1l0.6,0.3l-0.4,0.5l0.2,0.1l0.4-0.5l0.6,0.3
	L435.2,190.6z"/>
<path class="st6" d="M357.9,165.2l-0.8-0.5l0.5-0.7l-0.2-0.1l-0.5,0.7l-0.8-0.5l-0.1,0.2l0.8,0.5l-0.5,0.7l0.2,0.1l0.5-0.7l0.8,0.5
	L357.9,165.2z"/>
<path class="st6" d="M250.4,164.3l-0.8-0.5l0.5-0.7l-0.2-0.1l-0.5,0.7l-0.8-0.5l-0.1,0.2l0.8,0.5l-0.5,0.7l0.2,0.1l0.5-0.7l0.8,0.5
	L250.4,164.3z"/>
<path class="st6" d="M133.1,221.6l-0.8-0.5l0.5-0.7l-0.2-0.1l-0.5,0.7l-0.8-0.5l-0.1,0.2l0.8,0.5l-0.5,0.7l0.2,0.1l0.5-0.7l0.8,0.5
	L133.1,221.6z"/>
<path class="st6" d="M315.3,230.6l-0.8-0.5l0.5-0.7l-0.2-0.1l-0.5,0.7l-0.8-0.5l-0.1,0.2l0.8,0.5l-0.5,0.7l0.2,0.1l0.5-0.7l0.8,0.5
	L315.3,230.6z"/>
<path class="st6" d="M275.3,143l-0.8-0.5l0.5-0.7l-0.2-0.1l-0.5,0.7l-0.8-0.5l-0.1,0.2l0.8,0.5l-0.5,0.7l0.2,0.1l0.5-0.7l0.8,0.5
	L275.3,143z"/>
<path class="st7" d="M401.3,200c0.3,0,0.5-0.2,0.5-0.5c0-0.3-0.2-0.5-0.5-0.5s-0.5,0.2-0.5,0.5C400.8,199.7,401,200,401.3,200z"/>
<path class="st7" d="M317.7,171.9c0.3,0,0.5-0.2,0.5-0.5c0-0.3-0.2-0.5-0.5-0.5c-0.3,0-0.5,0.2-0.5,0.5
	C317.2,171.7,317.4,171.9,317.7,171.9z"/>
<path class="st7" d="M307.2,280.4c0.3,0,0.5-0.2,0.5-0.5c0-0.3-0.2-0.5-0.5-0.5c-0.3,0-0.5,0.2-0.5,0.5
	C306.6,280.2,306.9,280.4,307.2,280.4z"/>
<path class="st7" d="M351.9,130.2c0.3,0,0.5-0.2,0.5-0.5c0-0.3-0.2-0.5-0.5-0.5c-0.3,0-0.5,0.2-0.5,0.5
	C351.3,129.9,351.6,130.2,351.9,130.2z"/>
<path class="st7" d="M244.4,129.3c0.3,0,0.5-0.2,0.5-0.5c0-0.3-0.2-0.5-0.5-0.5c-0.3,0-0.5,0.2-0.5,0.5
	C243.9,129.1,244.1,129.3,244.4,129.3z"/>
<path class="st7" d="M127.1,186.6c0.3,0,0.5-0.2,0.5-0.5c0-0.3-0.2-0.5-0.5-0.5c-0.3,0-0.5,0.2-0.5,0.5
	C126.6,186.3,126.8,186.6,127.1,186.6z"/>
<path class="st7" d="M251.3,254.2c0.3,0,0.5-0.2,0.5-0.5c0-0.3-0.2-0.5-0.5-0.5c-0.3,0-0.5,0.2-0.5,0.5
	C250.8,253.9,251,254.2,251.3,254.2z"/>
<path class="st7" d="M269.2,107.9c0.3,0,0.5-0.2,0.5-0.5c0-0.3-0.2-0.5-0.5-0.5c-0.3,0-0.5,0.2-0.5,0.5
	C268.7,107.7,268.9,107.9,269.2,107.9z"/>
<path class="st5" d="M329.5,154.1c0.3,0,0.5-0.2,0.5-0.5c0-0.3-0.2-0.5-0.5-0.5s-0.5,0.2-0.5,0.5
	C328.9,153.9,329.2,154.1,329.5,154.1z"/>
<path class="st6" d="M332.7,112.7c0.3,0,0.5-0.2,0.5-0.5c0-0.3-0.2-0.5-0.5-0.5c-0.3,0-0.5,0.2-0.5,0.5
	C332.2,112.5,332.4,112.7,332.7,112.7z"/>
<path class="st5" d="M418,183.5c0.5,0,0.8-0.3,0.8-0.8c0-0.4-0.4-0.8-0.8-0.8c-0.5,0-0.8,0.3-0.8,0.8
	C417.1,183.1,417.5,183.5,418,183.5z"/>
<path class="st5" d="M363.6,186.3c0.5,0,0.8-0.3,0.8-0.8c0-0.4-0.4-0.8-0.8-0.8c-0.5,0-0.8,0.3-0.8,0.8
	C362.8,186,363.2,186.3,363.6,186.3z"/>
<path class="st5" d="M349.7,206.4c1.5,0,2.7-1.2,2.7-2.6s-1.2-2.6-2.7-2.6s-2.7,1.2-2.7,2.6S348.2,206.4,349.7,206.4z"/>
<path class="st6" d="M382.7,176.5c0.5,0,0.8-0.3,0.8-0.8c0-0.4-0.4-0.8-0.8-0.8s-0.8,0.3-0.8,0.8
	C381.9,176.2,382.3,176.5,382.7,176.5z"/>
<path class="st6" d="M372.2,285c0.5,0,0.8-0.3,0.8-0.8c0-0.4-0.4-0.8-0.8-0.8s-0.8,0.3-0.8,0.8C371.4,284.7,371.7,285,372.2,285z"/>
<path class="st6" d="M275.3,175.6c0.5,0,0.8-0.3,0.8-0.8c0-0.4-0.4-0.8-0.8-0.8c-0.5,0-0.8,0.3-0.8,0.8
	C274.4,175.3,274.8,175.6,275.3,175.6z"/>
<path class="st6" d="M158,232.9c0.5,0,0.8-0.3,0.8-0.8c0-0.4-0.4-0.8-0.8-0.8c-0.5,0-0.8,0.3-0.8,0.8
	C157.1,232.6,157.5,232.9,158,232.9z"/>
<path class="st6" d="M340.1,241.9c0.5,0,0.8-0.3,0.8-0.8c0-0.4-0.4-0.8-0.8-0.8c-0.5,0-0.8,0.3-0.8,0.8
	C339.3,241.5,339.7,241.9,340.1,241.9z"/>
<path class="st6" d="M300.1,154.2c0.5,0,0.8-0.3,0.8-0.8s-0.4-0.8-0.8-0.8c-0.5,0-0.8,0.3-0.8,0.8S299.7,154.2,300.1,154.2z"/>
<path class="st5" d="M447.4,75.6l0.6-0.3l-0.4-0.5l0.2-0.1l0.4,0.5l0.6-0.3l0.1,0.1l-0.6,0.3l0.4,0.5l-0.2,0.1l-0.4-0.5l-0.6,0.3
	L447.4,75.6z"/>
<path class="st5" d="M405.9,113.7l0.6-0.3l-0.4-0.5l0.2-0.1l0.4,0.5l0.6-0.3l0.1,0.1l-0.6,0.3l0.4,0.5l-0.2,0.1l-0.4-0.5l-0.6,0.3
	L405.9,113.7z"/>
<path class="st5" d="M473.1,109.1l0.6-0.3l-0.4-0.5l0.2-0.1l0.4,0.5l0.6-0.3l0.1,0.1l-0.6,0.3l0.4,0.5l-0.2,0.1l-0.4-0.5l-0.6,0.3
	L473.1,109.1z"/>
<path class="st5" d="M422.8,133.8l0.6-0.3L423,133l0.2-0.1l0.4,0.5l0.6-0.3l0.1,0.1l-0.6,0.3l0.4,0.5l-0.2,0.1l-0.4-0.5l-0.6,0.3
	L422.8,133.8z"/>
<path class="st5" d="M357,111.7l0.6-0.3l-0.4-0.5l0.2-0.1l0.4,0.5l0.6-0.3l0.1,0.1l-0.6,0.3l0.4,0.5L358,112l-0.4-0.5l-0.6,0.3
	L357,111.7z"/>
<path class="st5" d="M297.7,120.9l0.6-0.3l-0.4-0.5l0.2-0.1l0.4,0.5l0.6-0.3l0.1,0.1l-0.6,0.3l0.4,0.5l-0.2,0.1l-0.4-0.5l-0.6,0.3
	L297.7,120.9z"/>
<path class="st6" d="M434.3,86.3l0.8-0.5l-0.5-0.7l0.2-0.1l0.5,0.7l0.8-0.5l0.1,0.2l-0.8,0.5l0.5,0.7l-0.2,0.1l-0.5-0.7l-0.8,0.5
	L434.3,86.3z"/>
<path class="st5" d="M494.4,96.1c-0.5,0-0.8-0.3-0.8-0.8c0-0.4,0.4-0.8,0.8-0.8s0.8,0.3,0.8,0.8C495.2,95.7,494.8,96.1,494.4,96.1z"
	/>
<path class="st5" d="M380.6,71.1c-0.5,0-0.8-0.3-0.8-0.8c0-0.4,0.4-0.8,0.8-0.8c0.5,0,0.8,0.3,0.8,0.8
	C381.4,70.8,381.1,71.1,380.6,71.1z"/>
<path class="st5" d="M378.5,66.3c-0.5,0-0.8-0.3-0.8-0.8c0-0.4,0.4-0.8,0.8-0.8c0.5,0,0.8,0.3,0.8,0.8C379.4,66,379,66.3,378.5,66.3
	z"/>
<path class="st5" d="M313,98.7c-0.5,0-0.8-0.3-0.8-0.8c0-0.4,0.4-0.8,0.8-0.8c0.5,0,0.8,0.3,0.8,0.8C313.8,98.4,313.4,98.7,313,98.7
	z"/>
<path class="st7" d="M390.9,121c-0.3,0-0.5-0.2-0.5-0.5c0-0.3,0.2-0.5,0.5-0.5c0.3,0,0.5,0.2,0.5,0.5
	C391.4,120.8,391.2,121,390.9,121z"/>
<path class="st7" d="M392.8,332.8c-0.3,0-0.5-0.2-0.5-0.5c0-0.3,0.2-0.5,0.5-0.5c0.3,0,0.5,0.2,0.5,0.5
	C393.3,332.6,393.1,332.8,392.8,332.8z"/>
<path class="st7" d="M474.4,93c-0.3,0-0.5-0.2-0.5-0.5c0-0.3,0.2-0.5,0.5-0.5c0.3,0,0.5,0.2,0.5,0.5C475,92.7,474.7,93,474.4,93z"/>
<path class="st7" d="M440.3,51.2c-0.3,0-0.5-0.2-0.5-0.5c0-0.3,0.2-0.5,0.5-0.5c0.3,0,0.5,0.2,0.5,0.5
	C440.9,51,440.6,51.2,440.3,51.2z"/>
<path class="st6" d="M455.9,57.9c-0.3,0-0.5-0.2-0.5-0.5c0-0.3,0.2-0.5,0.5-0.5s0.5,0.2,0.5,0.5C456.4,57.7,456.2,57.9,455.9,57.9z"
	/>
<path class="st6" d="M361.7,80.3c-0.3,0-0.5-0.2-0.5-0.5c0-0.3,0.2-0.5,0.5-0.5c0.3,0,0.5,0.2,0.5,0.5
	C362.2,80.1,362,80.3,361.7,80.3z"/>
<path class="st5" d="M374.2,104.5c-0.5,0-0.8-0.3-0.8-0.8c0-0.4,0.4-0.8,0.8-0.8c0.5,0,0.8,0.3,0.8,0.8
	C375,104.2,374.7,104.5,374.2,104.5z"/>
<path class="st5" d="M442.5,127.5c-1.5,0-2.7-1.2-2.7-2.6c0-1.4,1.2-2.6,2.7-2.6c1.5,0,2.7,1.2,2.7,2.6
	C445.2,126.3,444,127.5,442.5,127.5z"/>
<path class="st5" d="M541,168.7l0.6-0.3l-0.4-0.5l0.2-0.1l0.4,0.5l0.6-0.3l0.1,0.1l-0.6,0.3l0.4,0.5l-0.2,0.1l-0.4-0.5l-0.6,0.3
	L541,168.7z"/>
<path class="st5" d="M566.6,202.2l0.6-0.3l-0.4-0.5l0.2-0.1l0.4,0.5l0.6-0.3l0.1,0.1l-0.6,0.3l0.4,0.5l-0.2,0.1l-0.4-0.5l-0.6,0.3
	L566.6,202.2z"/>
<path class="st6" d="M527.9,179.4l0.8-0.5l-0.5-0.7l0.2-0.1l0.5,0.7l0.8-0.5l0.1,0.2L529,179l0.5,0.7l-0.2,0.1l-0.5-0.7l-0.8,0.5
	L527.9,179.4z"/>
<path class="st5" d="M587.9,189.1c-0.5,0-0.8-0.3-0.8-0.8c0-0.4,0.4-0.8,0.8-0.8s0.8,0.3,0.8,0.8
	C588.8,188.8,588.4,189.1,587.9,189.1z"/>
<path class="st7" d="M568,186.1c-0.3,0-0.5-0.2-0.5-0.5c0-0.3,0.2-0.5,0.5-0.5c0.3,0,0.5,0.2,0.5,0.5
	C568.6,185.8,568.3,186.1,568,186.1z"/>
<path class="st7" d="M533.9,144.3c-0.3,0-0.5-0.2-0.5-0.5s0.2-0.5,0.5-0.5s0.5,0.2,0.5,0.5S534.2,144.3,533.9,144.3z"/>
<path class="st6" d="M549.4,151c-0.3,0-0.5-0.2-0.5-0.5c0-0.3,0.2-0.5,0.5-0.5s0.5,0.2,0.5,0.5C550,150.8,549.7,151,549.4,151z"/>
<path class="st5" d="M536.1,220.6c-1.5,0-2.7-1.2-2.7-2.6s1.2-2.6,2.7-2.6c1.5,0,2.7,1.2,2.7,2.6S537.6,220.6,536.1,220.6z"/>
<path class="st6" d="M409.4,97.6c-0.5,0-0.8-0.3-0.8-0.8c0-0.4,0.4-0.8,0.8-0.8s0.8,0.3,0.8,0.8C410.3,97.3,409.9,97.6,409.4,97.6z"
	/>
<path class="st8" d="M46.1,388.6c0,0-2.2,8.7-0.2,9.1c2,0.4,11.9,0.3,14.3,0.6c2.4,0.4,7.5-0.3,7.5-2c0-1.7-5.2-2.8-5.2-2.8
	s-7.5-3.8-7.7-4S46.1,388.6,46.1,388.6z"/>
<path class="st8" d="M48.5,326.2c0,0,0.7,7.7,0.7,8.4s-4.3,36.5-3.4,43.8c1,7.3-0.1,9.6-0.1,10.9s7.8,0.9,7.8,0.9l8.4-50.2l-4.3-15
	L48.5,326.2z"/>
<path class="st8" d="M48.9,390.5c0,0-2,6.8,0,7.2c2,0.4,11.9-0.4,14.3-0.1c2.4,0.4,7.5,0.4,7.5-1.3c0-1.7-5.2-2.8-5.2-2.8
	s-7.5-3.8-7.7-4C57.6,389.4,48.9,390.5,48.9,390.5z"/>
<path class="st8" d="M46.3,317.2c0,0-2.9,6.6,0.5,10c3.4,3.4,7.2,10.2,7.2,10.7c0,0.5-6.7,45.6-5.8,48.6c1,3,0.7,4.8,0.5,5.2
	c-0.2,0.5,2.4,3,5.3,3s7.2-2,7.7-3.9c0.5-1.8-0.7-17.5-0.5-20.4c0.2-3,9.9-50.2,8.7-51.3C68.7,317.8,46.3,317.2,46.3,317.2z"/>
<path class="st9" d="M64.6,264.9c4.5,0,8.2-3.5,8.2-7.7c0-4.3-3.7-7.7-8.2-7.7c-4.5,0-8.2,3.5-8.2,7.7
	C56.4,261.5,60.1,264.9,64.6,264.9z"/>
<path class="st9" d="M59.6,261.1c0,0,1.7,8.4,0.5,9.3c-1.2,0.9,9.1,2.3,9.1,2.3s1.2-11.1,1.4-12.3S59.6,261.1,59.6,261.1z"/>
<path class="st5" d="M70.7,272c0,0,1.6-8-10.2-5.7c0,0-10.8,8.3-10.3,16c0.5,7.7-3.8,30.1-3.3,31.7c0.5,1.6-2.9,3.6-1.4,4.3
	c1.4,0.7,27.4,4.8,28.2,0c0.7-4.8-0.2-16.8,0.2-19.1c0.5-2.3,0-21.3-1.4-23.6C70.9,273.3,70.7,272,70.7,272z"/>
<path class="st9" d="M65.6,327.4c0,0-3.6,12.9,1,12.9c4.6,0,4.3-13.4,4.3-13.4L65.6,327.4z"/>
<path class="st8" d="M68,258.5c-0.1,0.7-1.2,0.9-2.7,0.8h0c-0.7-0.1-1.3-0.2-2-0.3c-1-0.2-1.5,0.6-1.9,1.7c-0.6,1.9-0.6,4.6-1.1,5
	c-3.6,1.9-14.2-10.6-8.7-13.9c1.9-1.2,8.4-5.5,12.9-4.6c4.5,0.9,2.7,6.1,2.7,6.1s0.2,0.7,0.4,1.6c0.3,1.1,0.4,2.2,0.5,3.4
	C68,258.4,68,258.4,68,258.5z"/>
<path class="st5" d="M68.5,274.3c0,0-8.2-0.5-8.9,10.9c-0.7,11.4-0.5,22-0.5,22.2c0,0.2,3.4,21.8,6.5,21.8c3.1,0,5.5-0.5,6.3-1.6
	c0.7-1.1-1.9-17.5-1.9-17.5s-1.2-17.3,0.7-22.7C72.6,282,72.8,274.9,68.5,274.3z"/>
<path class="st10" d="M59.2,288.3l-2.4,24.3l7.9,16.8l-5.1-17.2l-0.4-24.3"/>
<path class="st10" d="M70.7,290.9l0.6,28.6l-2.2-15.5L70.7,290.9z"/>
<path class="st11" d="M111.8,398.6H9.7v-0.8h102.2L111.8,398.6z"/>
<g>
	<path class="st5" d="M251,162.8h34.6c4.3,0,7.9,3.5,7.9,7.9v31.8c0,4.3-3.5,7.9-7.9,7.9H251c-4.3,0-7.9-3.5-7.9-7.9v-31.8
		C243.2,166.3,246.7,162.8,251,162.8z"/>
	<g>
		<defs>
			<rect id="SVGID_1_" x="256.5" y="174.5" width="23.6" height="23.6"/>
		</defs>
		<clipPath id="SVGID_2_">
			<use xlink:href="#SVGID_1_"  style="overflow:visible;"/>
		</clipPath>
		<g class="st12">
			<path class="st13" d="M279.7,182.7l-11.1-5.9c-0.1-0.1-0.2-0.1-0.3-0.1s-0.2,0-0.3,0.1l-11.1,5.9c-0.1,0.1-0.2,0.2-0.3,0.3
				c-0.1,0.1-0.1,0.2-0.1,0.4c0,0.1,0,0.3,0.1,0.4c0.1,0.1,0.2,0.2,0.3,0.3l2.2,1.2v4.6c0,0.3,0.1,0.6,0.3,0.9
				c0.7,1,3.5,4.1,8.9,4.1c1.6,0,3.3-0.3,4.8-1v2.8c0,0.2,0.1,0.4,0.2,0.5c0.1,0.1,0.3,0.2,0.5,0.2c0.2,0,0.4-0.1,0.5-0.2
				c0.1-0.1,0.2-0.3,0.2-0.5v-3.6c1-0.6,1.9-1.4,2.7-2.4c0.2-0.3,0.3-0.6,0.3-0.9v-4.6l2.2-1.2c0.1-0.1,0.2-0.2,0.3-0.3
				c0.1-0.1,0.1-0.2,0.1-0.4c0-0.1,0-0.3-0.1-0.4C279.9,182.9,279.8,182.8,279.7,182.7z M268.3,193.3c-4.7,0-7.1-2.7-7.7-3.6V186
				l7.4,3.9c0.1,0.1,0.2,0.1,0.3,0.1s0.2,0,0.3-0.1l4.4-2.4v4.7C271.9,192.8,270.3,193.3,268.3,193.3z M276.1,189.8
				c-0.4,0.6-0.9,1.1-1.5,1.5v-4.5l1.5-0.8L276.1,189.8z M276.4,184.1L276.4,184.1l-2.6,1.4l-5.2-2.8c-0.1,0-0.2-0.1-0.3-0.1
				c-0.1,0-0.2,0-0.3,0c-0.2,0.1-0.3,0.2-0.4,0.4c-0.1,0.2-0.1,0.4-0.1,0.6c0.1,0.2,0.2,0.3,0.4,0.4l4.3,2.3l-4,2.1l-8.1-4.3l0,0
				l-1.4-0.7l9.5-5.1l9.5,5.1L276.4,184.1z"/>
		</g>
	</g>
</g>
<g>
	<g>
		<path class="st13" d="M451.2,170.3h34.7c4.4,0,7.9,3.5,7.9,7.9v32c0,4.4-3.5,7.9-7.9,7.9h-34.7c-4.4,0-7.9-3.5-7.9-7.9v-32
			C443.3,173.9,446.8,170.3,451.2,170.3z"/>
	</g>
	<path class="st4" d="M473,193.4c0-0.2,0.1-0.4,0.2-0.5c0.1-0.1,0.3-0.2,0.5-0.2h1.5c0.2,0,0.4,0.1,0.5,0.2c0.1,0.1,0.2,0.3,0.2,0.5
		v1.5c0,0.2-0.1,0.4-0.2,0.5c-0.1,0.1-0.3,0.2-0.5,0.2h-1.5c-0.2,0-0.4-0.1-0.5-0.2c-0.1-0.1-0.2-0.3-0.2-0.5V193.4z"/>
	<path class="st4" d="M461.9,183.8c0.2,0,0.4,0.1,0.5,0.2c0.1,0.1,0.2,0.3,0.2,0.5v0.7h11.8v-0.7c0-0.2,0.1-0.4,0.2-0.5
		c0.1-0.1,0.3-0.2,0.5-0.2c0.2,0,0.4,0.1,0.5,0.2c0.1,0.1,0.2,0.3,0.2,0.5v0.7h1.5c0.8,0,1.5,0.3,2.1,0.9c0.6,0.6,0.9,1.3,0.9,2.1
		v16.3c0,0.8-0.3,1.5-0.9,2.1c-0.6,0.6-1.3,0.9-2.1,0.9h-17.8c-0.8,0-1.5-0.3-2.1-0.9c-0.6-0.6-0.9-1.3-0.9-2.1v-16.3
		c0-0.8,0.3-1.5,0.9-2.1c0.6-0.6,1.3-0.9,2.1-0.9h1.5v-0.7c0-0.2,0.1-0.4,0.2-0.5C461.5,183.8,461.7,183.8,461.9,183.8L461.9,183.8z
		 M458.2,189.7v14.8c0,0.4,0.2,0.8,0.4,1c0.3,0.3,0.7,0.4,1,0.4h17.8c0.4,0,0.8-0.2,1-0.4c0.3-0.3,0.4-0.7,0.4-1v-14.8H458.2z"/>
</g>
<g>
	<path class="st5" d="M375.8,78.7h34.4c4.3,0,7.8,3.5,7.8,7.8v31.7c0,4.3-3.5,7.8-7.8,7.8h-34.4c-4.3,0-7.8-3.5-7.8-7.8V86.5
		C368,82.2,371.5,78.7,375.8,78.7z"/>
	<path class="st13" d="M385.7,96.4c0-0.8,0.3-1.5,0.9-2.1c0.6-0.5,1.3-0.9,2.1-0.9s1.5,0.3,2.1,0.9c0.5,0.6,0.9,1.3,0.9,2.1
		s-0.3,1.5-0.9,2.1c-0.6,0.5-1.3,0.9-2.1,0.9s-1.5-0.3-2.1-0.9C386,97.9,385.7,97.2,385.7,96.4z M388.6,94.9c-0.4,0-0.8,0.2-1,0.4
		c-0.3,0.3-0.4,0.6-0.4,1c0,0.4,0.2,0.8,0.4,1c0.3,0.3,0.6,0.4,1,0.4c0.4,0,0.8-0.2,1-0.4c0.3-0.3,0.4-0.6,0.4-1
		c0-0.4-0.2-0.8-0.4-1C389.4,95.1,389,94.9,388.6,94.9z"/>
	<path class="st13" d="M395.6,98.7c-0.3-0.2-0.6-0.5-0.8-0.9c-0.2-0.3-0.3-0.7-0.4-1.1c-0.1-0.4,0-0.8,0.1-1.1
		c0.1-0.4,0.3-0.7,0.5-1c0.2-0.3,0.5-0.6,0.9-0.8c0.3-0.2,0.7-0.3,1.1-0.4c0.4,0,0.8,0,1.1,0.1c0.4,0.1,0.7,0.3,1,0.5
		c0.6,0.5,1,1.2,1.1,1.9c0.1,0.8-0.1,1.5-0.6,2.1c-0.5,0.6-1.2,1-1.9,1.1C397,99.4,396.3,99.2,395.6,98.7L395.6,98.7z M397.4,94.9
		c-0.4,0-0.8,0.2-1,0.4c-0.3,0.3-0.4,0.6-0.4,1c0,0.4,0.2,0.8,0.4,1c0.3,0.3,0.6,0.4,1,0.4c0.4,0,0.8-0.2,1-0.4
		c0.3-0.3,0.4-0.6,0.4-1c0-0.4-0.2-0.8-0.4-1C398.2,95.1,397.8,94.9,397.4,94.9z"/>
	<path class="st13" d="M385,100.8h3.9c-0.2,0.5-0.2,1-0.2,1.5H385c-0.2,0-0.4,0.1-0.5,0.2c-0.1,0.1-0.2,0.3-0.2,0.5
		c0,1.2,0.5,2.1,1.2,2.7c0.3,0.3,0.8,0.5,1.2,0.7c-0.3,0.4-0.6,0.8-0.8,1.3c-0.5-0.2-1-0.5-1.4-0.8c-1.1-0.9-1.8-2.2-1.8-3.8
		c0-0.6,0.2-1.1,0.6-1.6C383.8,101,384.4,100.8,385,100.8z"/>
	<path class="st13" d="M390.5,100.8c-0.4,0.7-0.5,1.5-0.3,2.2s0.7,1.4,1.4,1.8c0.7,0.4,1.5,0.5,2.2,0.3c0.8-0.2,1.4-0.7,1.8-1.4
		c0.4-0.7,0.5-1.5,0.3-2.2c-0.2-0.8-0.7-1.4-1.4-1.8c-0.7-0.4-1.5-0.5-2.2-0.3C391.5,99.6,390.9,100.1,390.5,100.8z M392.7,100.8
		c0.2,0,0.4,0,0.7,0c0.2,0,0.4,0.1,0.6,0.3c0.2,0.1,0.3,0.3,0.4,0.5c0.1,0.2,0.1,0.4,0.1,0.6c0,0.3-0.1,0.5-0.2,0.8
		c-0.1,0.2-0.4,0.4-0.6,0.5c-0.2,0.1-0.5,0.2-0.8,0.1c-0.3,0-0.5-0.1-0.7-0.3c-0.2-0.2-0.4-0.4-0.5-0.7c-0.1-0.3-0.1-0.5,0-0.8
		c0.1-0.3,0.2-0.5,0.4-0.7C392.2,101,392.4,100.9,392.7,100.8z"/>
	<path class="st13" d="M400.6,105.7c-0.3,0.3-0.8,0.5-1.2,0.7c0.3,0.4,0.6,0.8,0.8,1.3c0.5-0.2,1-0.5,1.4-0.8
		c1.1-0.9,1.8-2.2,1.8-3.8c0-0.6-0.2-1.1-0.6-1.6c-0.4-0.4-1-0.6-1.6-0.6h-3.9c0.2,0.5,0.2,1,0.2,1.5h3.7c0.2,0,0.4,0.1,0.5,0.2
		c0.1,0.1,0.2,0.3,0.2,0.5C401.8,104.2,401.3,105.1,400.6,105.7z"/>
	<path class="st13" d="M396.7,106.7c0.6,0,1.1,0.2,1.6,0.6c0.4,0.4,0.6,1,0.6,1.6c0,1.6-0.7,2.9-1.8,3.8c-1.1,0.9-2.5,1.3-4.1,1.3
		c-1.5,0-3-0.4-4.1-1.3c-1.1-0.9-1.8-2.2-1.8-3.8c0-0.3,0.1-0.6,0.2-0.8c0.1-0.3,0.3-0.5,0.5-0.7c0.2-0.2,0.4-0.4,0.7-0.5
		c0.3-0.1,0.6-0.2,0.8-0.2H396.7z M396.7,108.1h-7.3c-0.2,0-0.4,0.1-0.5,0.2c-0.1,0.1-0.2,0.3-0.2,0.5c0,1.2,0.5,2.1,1.2,2.7
		c0.8,0.6,1.9,1,3.2,1c1.3,0,2.4-0.4,3.2-1c0.8-0.6,1.2-1.5,1.2-2.7c0-0.2-0.1-0.4-0.2-0.5C397.1,108.2,396.9,108.1,396.7,108.1z"/>
</g>
<g>
	<path class="st13" d="M343.5,215.9h34.8c4.4,0,7.9,3.5,7.9,7.9v32.1c0,4.4-3.5,7.9-7.9,7.9h-34.8c-4.4,0-7.9-3.5-7.9-7.9v-32.1
		C335.6,219.4,339.2,215.9,343.5,215.9z"/>
	<path d="M364.1,234.1v1.6h5.2l-6.8,6.8l-3.4-3.4c-0.1-0.1-0.3-0.2-0.6-0.2s-0.4,0.1-0.6,0.2l-8.1,8.1l1.1,1.1l7.6-7.6l3.4,3.4
		c0.1,0.1,0.3,0.2,0.6,0.2c0.2,0,0.4-0.1,0.6-0.2l7.4-7.4v5.2h1.6v-7.9H364.1z"/>
</g>
</svg>
