<svg width="272" height="272" viewBox="0 0 272 272" fill="none" xmlns="http://www.w3.org/2000/svg">
<circle cx="136" cy="136" r="136" fill="url(#paint0_radial)"/>
<path d="M144.94 126.504L143.66 116.256C143.479 114.804 142.773 113.469 141.676 112.501C140.58 111.533 139.167 110.999 137.704 111H133.296C131.834 111 130.422 111.535 129.326 112.503C128.23 113.47 127.525 114.805 127.344 116.256L126.062 126.504C125.992 127.067 126.042 127.639 126.209 128.181C126.377 128.723 126.658 129.223 127.034 129.648C127.409 130.074 127.871 130.414 128.388 130.647C128.906 130.88 129.467 131 130.034 131H140.97C141.537 131 142.098 130.88 142.615 130.646C143.132 130.413 143.594 130.073 143.969 129.648C144.345 129.222 144.626 128.722 144.793 128.18C144.96 127.638 145.01 127.067 144.94 126.504V126.504Z" stroke="#31343C" stroke-width="4" stroke-linecap="round" stroke-linejoin="round"/>
<path d="M135.5 103C138.814 103 141.5 100.314 141.5 97C141.5 93.6863 138.814 91 135.5 91C132.186 91 129.5 93.6863 129.5 97C129.5 100.314 132.186 103 135.5 103Z" stroke="#31343C" stroke-width="4"/>
<path d="M119.5 109C121.709 109 123.5 107.209 123.5 105C123.5 102.791 121.709 101 119.5 101C117.291 101 115.5 102.791 115.5 105C115.5 107.209 117.291 109 119.5 109Z" stroke="#31343C" stroke-width="4"/>
<path d="M151.5 109C153.709 109 155.5 107.209 155.5 105C155.5 102.791 153.709 101 151.5 101C149.291 101 147.5 102.791 147.5 105C147.5 107.209 149.291 109 151.5 109Z" stroke="#31343C" stroke-width="4"/>
<path d="M119.501 115H118.889C117.942 115 117.026 115.336 116.304 115.948C115.581 116.56 115.099 117.408 114.943 118.342L114.277 122.342C114.182 122.915 114.212 123.502 114.366 124.062C114.521 124.622 114.795 125.142 115.171 125.586C115.546 126.029 116.014 126.385 116.541 126.629C117.068 126.874 117.642 127 118.223 127H125.501" stroke="#31343C" stroke-width="4" stroke-linecap="round" stroke-linejoin="round"/>
<path d="M151.5 115H152.112C153.059 115 153.975 115.336 154.698 115.948C155.42 116.56 155.902 117.408 156.058 118.342L156.724 122.342C156.82 122.915 156.789 123.502 156.635 124.062C156.481 124.622 156.206 125.142 155.831 125.586C155.455 126.029 154.987 126.385 154.46 126.629C153.933 126.874 153.359 127 152.778 127H145.5" stroke="#31343C" stroke-width="4" stroke-linecap="round" stroke-linejoin="round"/>
<path d="M84.8317 191.808H80.0437V198H76.5517V191.808H62.5477V189.288L75.4357 172.8H79.3237L66.9757 188.712H76.6597V183.24H80.0437V188.712H84.8317V191.808ZM97.2857 198.288C95.2937 198.288 93.5177 197.784 91.9577 196.776C90.4217 195.744 89.2097 194.256 88.3217 192.312C87.4337 190.368 86.9897 188.064 86.9897 185.4C86.9897 182.736 87.4337 180.432 88.3217 178.488C89.2097 176.544 90.4217 175.068 91.9577 174.06C93.5177 173.028 95.2937 172.512 97.2857 172.512C99.2537 172.512 101.006 173.028 102.542 174.06C104.102 175.068 105.326 176.544 106.214 178.488C107.102 180.432 107.546 182.736 107.546 185.4C107.546 188.064 107.102 190.368 106.214 192.312C105.326 194.256 104.102 195.744 102.542 196.776C101.006 197.784 99.2537 198.288 97.2857 198.288ZM97.2857 195.084C99.3017 195.084 100.91 194.256 102.11 192.6C103.334 190.944 103.946 188.544 103.946 185.4C103.946 182.256 103.334 179.856 102.11 178.2C100.91 176.544 99.3017 175.716 97.2857 175.716C95.2457 175.716 93.6137 176.544 92.3897 178.2C91.1897 179.856 90.5897 182.256 90.5897 185.4C90.5897 188.544 91.1897 190.944 92.3897 192.6C93.6137 194.256 95.2457 195.084 97.2857 195.084ZM112.992 193.284C113.664 193.284 114.216 193.524 114.648 194.004C115.104 194.46 115.332 195.036 115.332 195.732C115.332 196.092 115.284 196.44 115.188 196.776C115.116 197.112 114.96 197.628 114.72 198.324L113.028 203.328H110.76L112.092 197.964C111.636 197.796 111.264 197.52 110.976 197.136C110.712 196.728 110.58 196.26 110.58 195.732C110.58 195.012 110.808 194.424 111.264 193.968C111.72 193.512 112.296 193.284 112.992 193.284ZM128.61 198.288C126.618 198.288 124.842 197.784 123.282 196.776C121.746 195.744 120.534 194.256 119.646 192.312C118.758 190.368 118.314 188.064 118.314 185.4C118.314 182.736 118.758 180.432 119.646 178.488C120.534 176.544 121.746 175.068 123.282 174.06C124.842 173.028 126.618 172.512 128.61 172.512C130.578 172.512 132.33 173.028 133.866 174.06C135.426 175.068 136.65 176.544 137.538 178.488C138.426 180.432 138.87 182.736 138.87 185.4C138.87 188.064 138.426 190.368 137.538 192.312C136.65 194.256 135.426 195.744 133.866 196.776C132.33 197.784 130.578 198.288 128.61 198.288ZM128.61 195.084C130.626 195.084 132.234 194.256 133.434 192.6C134.658 190.944 135.27 188.544 135.27 185.4C135.27 182.256 134.658 179.856 133.434 178.2C132.234 176.544 130.626 175.716 128.61 175.716C126.57 175.716 124.938 176.544 123.714 178.2C122.514 179.856 121.914 182.256 121.914 185.4C121.914 188.544 122.514 190.944 123.714 192.6C124.938 194.256 126.57 195.084 128.61 195.084ZM152.622 198.288C150.63 198.288 148.854 197.784 147.294 196.776C145.758 195.744 144.546 194.256 143.658 192.312C142.77 190.368 142.326 188.064 142.326 185.4C142.326 182.736 142.77 180.432 143.658 178.488C144.546 176.544 145.758 175.068 147.294 174.06C148.854 173.028 150.63 172.512 152.622 172.512C154.59 172.512 156.342 173.028 157.878 174.06C159.438 175.068 160.662 176.544 161.55 178.488C162.438 180.432 162.882 182.736 162.882 185.4C162.882 188.064 162.438 190.368 161.55 192.312C160.662 194.256 159.438 195.744 157.878 196.776C156.342 197.784 154.59 198.288 152.622 198.288ZM152.622 195.084C154.638 195.084 156.246 194.256 157.446 192.6C158.67 190.944 159.282 188.544 159.282 185.4C159.282 182.256 158.67 179.856 157.446 178.2C156.246 176.544 154.638 175.716 152.622 175.716C150.582 175.716 148.95 176.544 147.726 178.2C146.526 179.856 145.926 182.256 145.926 185.4C145.926 188.544 146.526 190.944 147.726 192.6C148.95 194.256 150.582 195.084 152.622 195.084ZM176.633 198.288C174.641 198.288 172.865 197.784 171.305 196.776C169.769 195.744 168.557 194.256 167.669 192.312C166.781 190.368 166.337 188.064 166.337 185.4C166.337 182.736 166.781 180.432 167.669 178.488C168.557 176.544 169.769 175.068 171.305 174.06C172.865 173.028 174.641 172.512 176.633 172.512C178.601 172.512 180.353 173.028 181.889 174.06C183.449 175.068 184.673 176.544 185.561 178.488C186.449 180.432 186.893 182.736 186.893 185.4C186.893 188.064 186.449 190.368 185.561 192.312C184.673 194.256 183.449 195.744 181.889 196.776C180.353 197.784 178.601 198.288 176.633 198.288ZM176.633 195.084C178.649 195.084 180.257 194.256 181.457 192.6C182.681 190.944 183.293 188.544 183.293 185.4C183.293 182.256 182.681 179.856 181.457 178.2C180.257 176.544 178.649 175.716 176.633 175.716C174.593 175.716 172.961 176.544 171.737 178.2C170.537 179.856 169.937 182.256 169.937 185.4C169.937 188.544 170.537 190.944 171.737 192.6C172.961 194.256 174.593 195.084 176.633 195.084ZM207.407 186.84H200.855V193.284H197.831V186.84H191.279V183.996H197.831V177.516H200.855V183.996H207.407V186.84Z" fill="#263238"/>
<path d="M108.955 239L108.939 230.84L104.891 237.64H104.155L100.107 230.888V239H98.5706V227.8H99.8826L104.555 235.672L109.163 227.8H110.475L110.491 239H108.955ZM121.292 234.808C121.292 234.925 121.281 235.08 121.26 235.272H114.38C114.476 236.019 114.801 236.621 115.356 237.08C115.921 237.528 116.62 237.752 117.452 237.752C118.465 237.752 119.281 237.411 119.9 236.728L120.748 237.72C120.364 238.168 119.884 238.509 119.308 238.744C118.743 238.979 118.108 239.096 117.404 239.096C116.508 239.096 115.713 238.915 115.02 238.552C114.327 238.179 113.788 237.661 113.404 237C113.031 236.339 112.844 235.592 112.844 234.76C112.844 233.939 113.025 233.197 113.388 232.536C113.761 231.875 114.268 231.363 114.908 231C115.559 230.627 116.289 230.44 117.1 230.44C117.911 230.44 118.631 230.627 119.26 231C119.9 231.363 120.396 231.875 120.748 232.536C121.111 233.197 121.292 233.955 121.292 234.808ZM117.1 231.736C116.364 231.736 115.745 231.96 115.244 232.408C114.753 232.856 114.465 233.443 114.38 234.168H119.82C119.735 233.453 119.441 232.872 118.94 232.424C118.449 231.965 117.836 231.736 117.1 231.736ZM134.033 230.44C135.099 230.44 135.942 230.749 136.561 231.368C137.19 231.987 137.505 232.904 137.505 234.12V239H135.969V234.296C135.969 233.475 135.777 232.856 135.393 232.44C135.019 232.024 134.481 231.816 133.777 231.816C132.998 231.816 132.379 232.061 131.921 232.552C131.462 233.032 131.233 233.725 131.233 234.632V239H129.697V234.296C129.697 233.475 129.505 232.856 129.121 232.44C128.747 232.024 128.209 231.816 127.505 231.816C126.726 231.816 126.107 232.061 125.649 232.552C125.19 233.032 124.961 233.725 124.961 234.632V239H123.425V230.52H124.897V231.784C125.206 231.347 125.611 231.016 126.113 230.792C126.614 230.557 127.185 230.44 127.825 230.44C128.486 230.44 129.073 230.573 129.585 230.84C130.097 231.107 130.491 231.496 130.769 232.008C131.089 231.517 131.531 231.133 132.097 230.856C132.673 230.579 133.318 230.44 134.033 230.44ZM144.827 230.44C145.648 230.44 146.384 230.621 147.035 230.984C147.686 231.347 148.192 231.853 148.555 232.504C148.928 233.155 149.115 233.907 149.115 234.76C149.115 235.613 148.928 236.371 148.555 237.032C148.192 237.683 147.686 238.189 147.035 238.552C146.384 238.915 145.648 239.096 144.827 239.096C144.198 239.096 143.622 238.973 143.099 238.728C142.576 238.483 142.144 238.125 141.803 237.656V239H140.331V227.128H141.867V231.8C142.208 231.352 142.635 231.016 143.147 230.792C143.659 230.557 144.219 230.44 144.827 230.44ZM144.699 237.752C145.243 237.752 145.728 237.629 146.155 237.384C146.592 237.128 146.934 236.776 147.179 236.328C147.435 235.869 147.563 235.347 147.563 234.76C147.563 234.173 147.435 233.656 147.179 233.208C146.934 232.749 146.592 232.397 146.155 232.152C145.728 231.907 145.243 231.784 144.699 231.784C144.166 231.784 143.68 231.907 143.243 232.152C142.806 232.397 142.464 232.749 142.219 233.208C141.974 233.656 141.851 234.173 141.851 234.76C141.851 235.347 141.974 235.869 142.219 236.328C142.464 236.776 142.806 237.128 143.243 237.384C143.68 237.629 144.166 237.752 144.699 237.752ZM158.901 234.808C158.901 234.925 158.891 235.08 158.869 235.272H151.989C152.085 236.019 152.411 236.621 152.965 237.08C153.531 237.528 154.229 237.752 155.061 237.752C156.075 237.752 156.891 237.411 157.509 236.728L158.357 237.72C157.973 238.168 157.493 238.509 156.917 238.744C156.352 238.979 155.717 239.096 155.013 239.096C154.117 239.096 153.323 238.915 152.629 238.552C151.936 238.179 151.397 237.661 151.013 237C150.64 236.339 150.453 235.592 150.453 234.76C150.453 233.939 150.635 233.197 150.997 232.536C151.371 231.875 151.877 231.363 152.517 231C153.168 230.627 153.899 230.44 154.709 230.44C155.52 230.44 156.24 230.627 156.869 231C157.509 231.363 158.005 231.875 158.357 232.536C158.72 233.197 158.901 233.955 158.901 234.808ZM154.709 231.736C153.973 231.736 153.355 231.96 152.853 232.408C152.363 232.856 152.075 233.443 151.989 234.168H157.429C157.344 233.453 157.051 232.872 156.549 232.424C156.059 231.965 155.445 231.736 154.709 231.736ZM162.506 231.944C162.773 231.453 163.167 231.08 163.69 230.824C164.213 230.568 164.847 230.44 165.594 230.44V231.928C165.509 231.917 165.391 231.912 165.242 231.912C164.41 231.912 163.754 232.163 163.274 232.664C162.805 233.155 162.57 233.859 162.57 234.776V239H161.034V230.52H162.506V231.944ZM169.982 239.096C169.288 239.096 168.622 239.005 167.982 238.824C167.342 238.632 166.84 238.392 166.478 238.104L167.118 236.888C167.491 237.155 167.944 237.368 168.478 237.528C169.011 237.688 169.55 237.768 170.094 237.768C171.438 237.768 172.11 237.384 172.11 236.616C172.11 236.36 172.019 236.157 171.838 236.008C171.656 235.859 171.427 235.752 171.15 235.688C170.883 235.613 170.499 235.533 169.998 235.448C169.315 235.341 168.755 235.219 168.318 235.08C167.891 234.941 167.523 234.707 167.214 234.376C166.904 234.045 166.75 233.581 166.75 232.984C166.75 232.216 167.07 231.603 167.71 231.144C168.35 230.675 169.208 230.44 170.286 230.44C170.851 230.44 171.416 230.509 171.982 230.648C172.547 230.787 173.011 230.973 173.374 231.208L172.718 232.424C172.024 231.976 171.208 231.752 170.27 231.752C169.619 231.752 169.123 231.859 168.782 232.072C168.44 232.285 168.27 232.568 168.27 232.92C168.27 233.197 168.366 233.416 168.558 233.576C168.75 233.736 168.984 233.853 169.262 233.928C169.55 234.003 169.95 234.088 170.462 234.184C171.144 234.301 171.694 234.429 172.11 234.568C172.536 234.696 172.899 234.92 173.198 235.24C173.496 235.56 173.646 236.008 173.646 236.584C173.646 237.352 173.315 237.965 172.654 238.424C172.003 238.872 171.112 239.096 169.982 239.096Z" fill="#31343C"/>
<defs>
<radialGradient id="paint0_radial" cx="0" cy="0" r="1" gradientUnits="userSpaceOnUse" gradientTransform="translate(136 136) rotate(90) scale(136)">
<stop stop-color="#FF725E" stop-opacity="0.2"/>
<stop offset="1" stop-color="white" stop-opacity="0"/>
</radialGradient>
</defs>
</svg>
