<svg width="142" height="30" viewBox="0 0 142 30" fill="none" xmlns="http://www.w3.org/2000/svg">
<path d="M50.3919 17.2812L49.5548 19.6529H49.4851C49.3456 19.1181 49.0898 18.3043 48.6713 17.3277L44.1837 6.05057H39.7891V24.0242H42.6955V12.9331L42.6723 10.4684C42.649 9.98012 42.6025 9.60809 42.5793 9.32907H42.649C42.7885 10.0266 42.9513 10.5382 43.0676 10.8637L48.462 23.9777H50.5081L55.8561 10.7474C55.9723 10.4452 56.0886 9.84061 56.2048 9.32907H56.2746L56.1351 12.5611V23.9545H59.2276V6.00406H54.9957L50.3919 17.2812ZM62.1573 11.073H65.18V23.9545H62.1573V11.073ZM63.6919 5.63203C63.1804 5.63203 62.7618 5.81805 62.4131 6.14357C62.0643 6.4691 61.8783 6.88763 61.8783 7.39917C61.875 7.63075 61.921 7.86037 62.0132 8.07282C62.1054 8.28528 62.2417 8.47571 62.4131 8.63152C62.7618 8.95704 63.1804 9.11981 63.6919 9.11981C64.2035 9.11981 64.6452 8.93379 64.9708 8.63152C65.1421 8.47571 65.2784 8.28528 65.3706 8.07282C65.4628 7.86037 65.5088 7.63075 65.5056 7.39917C65.5056 6.91088 65.3195 6.49235 64.9708 6.14357C64.6685 5.81805 64.2267 5.63203 63.6919 5.63203ZM75.8991 10.9567C75.3411 10.8404 74.7598 10.7707 74.2017 10.7707C72.8299 10.7707 71.5743 11.073 70.5279 11.6775C69.4816 12.2821 68.6445 13.1191 68.1098 14.1654C67.5517 15.235 67.2727 16.4674 67.2727 17.8857C67.2727 19.1181 67.5517 20.2109 68.0865 21.2107C68.6213 22.1873 69.3654 22.9779 70.3652 23.5127C71.3185 24.0475 72.4346 24.3265 73.6902 24.3265C75.1318 24.3265 76.3641 24.0242 77.3407 23.4662L77.364 23.4429V20.6527L77.2477 20.7457C76.8059 21.0712 76.2944 21.3503 75.7828 21.513C75.2481 21.699 74.7598 21.792 74.3412 21.792C73.1321 21.792 72.1788 21.4433 71.5045 20.676C70.807 19.9319 70.4582 18.9088 70.4582 17.63C70.4582 16.3046 70.807 15.2583 71.5278 14.491C72.2486 13.7237 73.2019 13.3284 74.3645 13.3284C75.3411 13.3284 76.3409 13.6539 77.2477 14.305L77.364 14.398V11.445L77.3407 11.4217C76.9454 11.259 76.5037 11.073 75.8991 10.9567ZM85.8741 10.8637C85.1301 10.8637 84.4325 11.0962 83.828 11.5845C83.3164 12.003 82.9677 12.6076 82.6654 13.3284H82.6421V11.073H79.6194V23.9545H82.6421V17.3742C82.6421 16.2581 82.8747 15.328 83.3862 14.6537C83.8977 13.9562 84.5488 13.6074 85.3393 13.6074C85.6184 13.6074 85.8974 13.6772 86.2462 13.7237C86.5717 13.8167 86.8042 13.9097 86.967 14.0259L87.0832 14.1189V11.0962L87.0135 11.073C86.8042 10.9334 86.3857 10.8637 85.8741 10.8637ZM94.1053 10.7939C91.9894 10.7939 90.292 11.4217 89.1061 12.6541C87.897 13.8864 87.3157 15.5838 87.3157 17.723C87.3157 19.7226 87.9203 21.3503 89.0829 22.5361C90.2455 23.6987 91.8266 24.3032 93.803 24.3032C95.8724 24.3032 97.5233 23.6754 98.7091 22.4198C99.9182 21.1642 100.5 19.4901 100.5 17.4207C100.5 15.3745 99.9415 13.7469 98.8021 12.5611C97.7093 11.3752 96.1049 10.7939 94.1053 10.7939ZM96.5235 20.6992C95.9654 21.42 95.0818 21.7688 93.989 21.7688C92.8962 21.7688 92.0126 21.42 91.3848 20.6527C90.757 19.9319 90.4547 18.8856 90.4547 17.5602C90.4547 16.1884 90.7803 15.142 91.3848 14.398C92.0126 13.6539 92.8729 13.2819 93.9658 13.2819C95.0353 13.2819 95.8724 13.6307 96.477 14.3515C97.0815 15.0723 97.407 16.1186 97.407 17.4905C97.3605 18.8856 97.1048 19.9784 96.5235 20.6992ZM107.243 16.4209C106.289 16.0256 105.685 15.7233 105.406 15.4675C105.173 15.235 105.057 14.9095 105.057 14.491C105.057 14.1422 105.196 13.7934 105.545 13.5609C105.894 13.3284 106.289 13.2121 106.871 13.2121C107.382 13.2121 107.917 13.3051 108.428 13.4446C108.94 13.5842 109.405 13.7934 109.777 14.0724L109.893 14.1654V11.3287L109.823 11.3055C109.475 11.166 109.01 11.0265 108.452 10.9102C107.894 10.8172 107.382 10.7707 106.964 10.7707C105.522 10.7707 104.336 11.1195 103.406 11.8868C102.476 12.6076 102.034 13.5842 102.034 14.7235C102.034 15.328 102.127 15.8628 102.336 16.3046C102.546 16.7464 102.848 17.1649 103.266 17.5137C103.685 17.8392 104.29 18.2113 105.127 18.56C105.824 18.8623 106.359 19.0948 106.684 19.2808C107.01 19.4669 107.219 19.6761 107.382 19.8389C107.498 20.0249 107.568 20.2574 107.568 20.5597C107.568 21.42 106.917 21.8385 105.592 21.8385C105.08 21.8385 104.545 21.7455 103.918 21.5363C103.29 21.327 102.708 21.0247 102.22 20.676L102.104 20.5829V23.5359L102.174 23.5592C102.615 23.7684 103.15 23.908 103.801 24.0707C104.452 24.187 105.034 24.28 105.545 24.28C107.103 24.28 108.382 23.9312 109.289 23.1639C110.219 22.4198 110.707 21.4665 110.707 20.2342C110.707 19.3738 110.475 18.6065 109.963 18.0252C109.289 17.4672 108.452 16.8859 107.243 16.4209ZM118.682 10.7939C116.567 10.7939 114.869 11.4217 113.683 12.6541C112.497 13.8864 111.893 15.5838 111.893 17.723C111.893 19.7226 112.497 21.3503 113.66 22.5361C114.823 23.6987 116.404 24.3032 118.38 24.3032C120.45 24.3032 122.1 23.6754 123.286 22.4198C124.495 21.1642 125.077 19.4901 125.077 17.4207C125.077 15.3745 124.519 13.7469 123.379 12.5611C122.286 11.3752 120.682 10.7939 118.682 10.7939ZM121.077 20.6992C120.519 21.42 119.636 21.7688 118.543 21.7688C117.427 21.7688 116.567 21.42 115.939 20.6527C115.311 19.9319 115.009 18.8856 115.009 17.5602C115.009 16.1884 115.334 15.142 115.939 14.398C116.567 13.6539 117.427 13.2819 118.52 13.2819C119.566 13.2819 120.426 13.6307 121.031 14.3515C121.635 15.0723 121.961 16.1186 121.961 17.4905C121.961 18.8856 121.659 19.9784 121.077 20.6992ZM141.237 13.5609V11.073H138.191V7.25966L138.098 7.28291L135.214 8.14323L135.145 8.16648V11.073H130.587V9.44533C130.587 8.70127 130.773 8.11998 131.099 7.74795C131.424 7.37592 131.913 7.18991 132.517 7.18991C132.936 7.18991 133.378 7.28291 133.866 7.49218L133.982 7.56193V4.93448L133.912 4.91123C133.494 4.77172 132.936 4.67871 132.215 4.67871C131.308 4.67871 130.518 4.88798 129.797 5.23675C129.076 5.63203 128.541 6.16683 128.146 6.88763C127.751 7.58519 127.541 8.37575 127.541 9.28257V11.073H125.425V13.5376H127.541V23.9545H130.587V13.5609H135.145V20.1877C135.145 22.9081 136.424 24.28 138.981 24.28C139.4 24.28 139.842 24.2102 140.26 24.1405C140.702 24.0475 141.027 23.9312 141.213 23.8382L141.237 23.8149V21.327L141.12 21.42C140.934 21.5363 140.772 21.6293 140.493 21.699C140.26 21.7688 140.051 21.792 139.888 21.792C139.284 21.792 138.865 21.6525 138.563 21.3037C138.284 20.9782 138.144 20.4434 138.144 19.6529V13.5609H141.237Z" fill="#31343C"/>
<path d="M0.819336 0.00512695H15.0727V14.2585H0.819336V0.00512695Z" fill="#31343C"/>
<path d="M16.5615 0.00512695H30.8149V14.2585H16.5615V0.00512695Z" fill="#31343C"/>
<path d="M0.819336 15.7466H15.0727V29.9999H0.819336V15.7466Z" fill="#31343C"/>
<path d="M16.5615 15.7466H30.8149V29.9999H16.5615V15.7466Z" fill="#31343C"/>
</svg>
