<?xml version="1.0" encoding="utf-8"?>
<!-- Generator: Adobe Illustrator 24.0.1, SVG Export Plug-In . SVG Version: 6.00 Build 0)  -->
<svg version="1.1" id="Layer_1" xmlns="http://www.w3.org/2000/svg" xmlns:xlink="http://www.w3.org/1999/xlink" x="0px" y="0px"
	 viewBox="0 0 421.2 242" style="enable-background:new 0 0 421.2 242;" xml:space="preserve">
<style type="text/css">
	.st0{fill:#F2F2F2;}
	.st1{fill:#FFFFFF;}
	.st2{fill:#FFB6B6;}
	.st3{fill:#2F2E41;}
	.st4{fill:#FFB9B9;}
	.st5{fill:#3F3D56;}
	.st6{fill:#CACACA;}
	.st7{fill:#E6E6E6;}
</style>
<path class="st0" d="M191.2,223.4l-13,0.1l14.2-4.3c2.9-12.1,2-25.6,2-25.6s-28.2,0.7-38.5,12c-10.3,11.3-7.2,21.4,1.1,29
	c8.3,7.6,18.6,9.8,29-1.6C188.2,230.4,189.9,227.1,191.2,223.4z"/>
<path class="st1" d="M176,222.1l-0.5,0.6c-5.9,6.5-11.7,10.5-17.1,12.1c-0.1,0-0.2,0-0.2,0.1l-0.1-0.4l-0.1-0.4
	c5.9-1.7,11.7-6.3,16.9-12c0.2-0.2,0.3-0.4,0.5-0.5c2.2-2.4,4.2-5,6.2-7.5c0.2-0.2,0.3-0.4,0.4-0.6c2.5-3.4,4.7-6.8,6.6-9.8
	c0.1-0.2,0.3-0.4,0.4-0.6c3.1-5.1,5.2-9,5.6-9.9c0.1-0.1,0.1-0.2,0.1-0.2l0.3,0.2h0l0.3,0.2c0,0-0.1,0.2-0.3,0.6
	c-0.7,1.4-2.6,5-5.5,9.6c-0.1,0.2-0.3,0.4-0.4,0.6c-1.5,2.4-3.3,5.1-5.2,7.9c-0.5,0.7-1,1.4-1.5,2c-0.1,0.2-0.3,0.4-0.4,0.6
	C180.1,217.4,178,219.9,176,222.1z"/>
<path class="st1" d="M189.6,203.5c-0.2-0.1-0.4-0.3-0.6-0.4c-0.6-0.4-1.1-0.9-1.6-1.3c-2.2-2-4-4.5-5.1-7.3c-0.3,0-0.5,0.1-0.8,0.1
	c1.2,2.9,3,5.6,5.3,7.7c0.6,0.5,1.1,1,1.7,1.4c0.2,0.2,0.4,0.3,0.6,0.4c1.7,1.2,3.6,2.1,5.6,2.7c0-0.3,0-0.5,0.1-0.8
	C193,205.5,191.3,204.6,189.6,203.5z"/>
<path class="st1" d="M182.6,214c-0.2-0.2-0.4-0.3-0.6-0.5c-0.1-0.1-0.1-0.1-0.2-0.2c-2.4-2.2-4.2-4.9-5.4-8c-1.1-3.1-1.5-6.3-1-9.6
	c-0.3,0.1-0.5,0.1-0.8,0.2c-0.4,3.3,0,6.6,1.2,9.8c1.2,3.1,3,5.9,5.5,8.1c0.1,0.1,0.2,0.1,0.2,0.2c0.2,0.2,0.4,0.3,0.6,0.5
	c3.1,2.5,6.8,4.1,10.8,4.6c0.1-0.2,0.1-0.5,0.2-0.7C189.3,218,185.6,216.5,182.6,214L182.6,214z"/>
<path class="st1" d="M176,222.1c-0.2-0.2-0.4-0.3-0.6-0.5c-0.2-0.2-0.4-0.4-0.6-0.6c-3.2-2.9-5.4-6.9-6.2-11.2
	c-0.8-4.3-0.2-8.7,1.7-12.7c-0.3,0.1-0.7,0.2-1,0.3c-1.8,4-2.3,8.5-1.4,12.8c0.9,4.3,3.1,8.2,6.4,11.2c0.2,0.2,0.4,0.4,0.6,0.5
	c0.2,0.2,0.4,0.3,0.6,0.5c4.2,3.3,9.4,4.8,14.7,4.3c0.1-0.3,0.2-0.5,0.4-0.8C185.4,226.8,180.2,225.3,176,222.1z"/>
<path class="st2" d="M148,233.6h7.5l3.6-28.8l-11,0L148,233.6z"/>
<path class="st3" d="M146,231.1l14.7,0l0,0c2.5,0,4.9,1,6.6,2.7s2.7,4.1,2.7,6.6v0.3l-24.1,0V231.1z"/>
<path class="st2" d="M88.8,233.6h7.5l3.6-28.8l-11,0L88.8,233.6z"/>
<path class="st3" d="M86.9,231.1l14.7,0h0c2.5,0,4.9,1,6.6,2.7c1.8,1.8,2.7,4.1,2.7,6.6v0.3l-24.1,0L86.9,231.1z"/>
<path class="st3" d="M101.5,115.1l-5,4.6l-5.7,56l-3.8,44.6l11.6,1.6l28-76.2l20.5,75.9l13.8,0.4l-9.2-99.1L101.5,115.1z"/>
<path class="st4" d="M125.8,32.2c7.9,0,14.4-6.4,14.4-14.4c0-7.9-6.4-14.4-14.4-14.4c-7.9,0-14.4,6.4-14.4,14.4
	C111.5,25.8,117.9,32.2,125.8,32.2z"/>
<path class="st3" d="M118.5,11.2c0,0-1.7,3.7,5.1,2.2c0,0,2.6,1.5,2.6-0.7c0,0,3.4,3.7,4.3,1.5c0.9-2.2,2.6,0.7,2.6,0.7l1.7-3.7
	l1.7,2.2h6c0,0,1.7-14.8-18.8-13.3c-20.5,1.5-10.4,25-10.4,25s0.2-4.2,1.9-2C116.8,25.3,118.5,11.2,118.5,11.2z"/>
<path class="st5" d="M136.8,36.9l-20.2-1.3l-18,4.8l2.7,46.5l-4.8,32.8c0,0,26.3,16.1,56.1,3.4l-2.8-7.4c0,0-0.1-11.4-2.5-13.6
	c-2.4-2.2-2.2-20.6-2.2-20.6l8.9-34.2L136.8,36.9z"/>
<path class="st5" d="M103.3,41.9l-4.8-1.5c0,0-7.5,0.3-11.4,8.8C83.2,57.8,80.7,70,80.7,70l24.8,0.9L103.3,41.9z"/>
<path class="st4" d="M160.8,123.4L160,73l-10.7,1.6l2.4,47.7c-1,0.8-1.7,1.9-2.1,3.1c-0.4,1.2-0.4,2.5,0,3.7c0.4,1.2,1.1,2.3,2,3.1
	c1,0.8,2.1,1.3,3.4,1.5c1.3,0.1,2.5-0.1,3.6-0.7c1.1-0.6,2.1-1.5,2.7-2.6c0.6-1.1,0.9-2.4,0.8-3.6
	C162.1,125.6,161.6,124.4,160.8,123.4L160.8,123.4z"/>
<path class="st5" d="M147.8,51.7l6-4.4c0,0,11.6,9.1,11.6,29l-16.2,3.9L140.2,67L147.8,51.7z"/>
<path class="st6" d="M417.2,242H4c-0.1,0-0.3-0.1-0.4-0.3c-0.1-0.2-0.1-0.4-0.1-0.7s0.1-0.5,0.1-0.7c0.1-0.2,0.2-0.3,0.4-0.3h413.2
	c0.1,0,0.3,0.1,0.4,0.3c0.1,0.2,0.1,0.4,0.1,0.7s-0.1,0.5-0.1,0.7C417.5,241.9,417.3,242,417.2,242z"/>
<path class="st7" d="M306.6,61.7H113.1c-1.5,0-2.9,0.3-4.3,0.9c-1.4,0.6-2.6,1.4-3.6,2.4c-1,1-1.9,2.3-2.4,3.6
	c-0.6,1.4-0.9,2.8-0.9,4.3v46.5c0,1.5,0.3,2.9,0.9,4.3c0.6,1.4,1.4,2.6,2.4,3.6c1,1,2.3,1.9,3.6,2.4c1.4,0.6,2.8,0.9,4.3,0.9h2.8
	v8.4c0,0.5,0.2,1,0.4,1.4c0.3,0.4,0.7,0.8,1.2,0.9c0.5,0.2,1,0.2,1.5,0.1c0.5-0.1,1-0.3,1.3-0.7l10.2-10.2h176.1
	c1.5,0,2.9-0.3,4.3-0.9c1.4-0.6,2.6-1.4,3.6-2.4c1-1,1.9-2.3,2.4-3.6c0.6-1.4,0.9-2.8,0.9-4.3V72.9c0-1.5-0.3-2.9-0.9-4.3
	c-0.6-1.4-1.4-2.6-2.4-3.6c-1-1-2.3-1.9-3.6-2.4C309.6,62,308.1,61.7,306.6,61.7L306.6,61.7z"/>
<path class="st7" d="M268.3,92.2H151.8c-2,0-3.7,1.6-3.7,3.7l0,0c0,2,1.6,3.7,3.7,3.7h116.5c2,0,3.7-1.6,3.7-3.7
	C272,93.9,270.3,92.2,268.3,92.2z"/>
<path class="st7" d="M268.3,106.9H151.8c-2,0-3.7,1.6-3.7,3.7l0,0c0,2,1.6,3.7,3.7,3.7h116.5c2,0,3.7-1.6,3.7-3.7
	C272,108.5,270.3,106.9,268.3,106.9z"/>
<path class="st4" d="M122.5,60.8c0-1.7-0.7-3.3-1.9-4.5c-1.2-1.2-2.8-1.9-4.5-1.9s-3.3,0.7-4.5,1.9c-1.2,1.2-1.9,2.8-1.9,4.5
	c0,0.1,0,0.1,0,0.2L98.5,72.2l0.9-2l-12.8-0.6l-1.9,13.5c-0.2,1.2,0.1,2.5,0.7,3.6c0.6,1.1,1.5,2,2.6,2.6c1.1,0.6,2.4,0.8,3.6,0.6
	c1.2-0.2,2.4-0.8,3.3-1.6L117,67.1c1.5-0.2,2.9-1,3.9-2.1C122,63.8,122.5,62.4,122.5,60.8z"/>
</svg>
