<svg width="45" height="44" viewBox="0 0 45 44" fill="none" xmlns="http://www.w3.org/2000/svg">
<rect width="44.0063" height="44" rx="22" fill="#3D5AFF"/>
<path d="M13.6973 16.292C15.1003 14.771 17.2233 14 20.0063 14H21.0063V16.819L20.2023 16.98C18.8323 17.254 17.8793 17.793 17.3693 18.584C17.1032 19.0101 16.9523 19.498 16.9313 20H20.0063C20.2715 20 20.5259 20.1054 20.7134 20.2929C20.9009 20.4804 21.0063 20.7348 21.0063 21V28C21.0063 29.103 20.1093 30 19.0063 30H13.0063C12.7411 30 12.4867 29.8946 12.2992 29.7071C12.1116 29.5196 12.0063 29.2652 12.0063 29V24L12.0093 21.081C12.0003 20.97 11.8103 18.34 13.6973 16.292ZM30.0063 30H24.0063C23.7411 30 23.4867 29.8946 23.2992 29.7071C23.1116 29.5196 23.0063 29.2652 23.0063 29V24L23.0093 21.081C23.0003 20.97 22.8103 18.34 24.6973 16.292C26.1003 14.771 28.2233 14 31.0063 14H32.0063V16.819L31.2023 16.98C29.8323 17.254 28.8793 17.793 28.3693 18.584C28.1032 19.0101 27.9523 19.498 27.9313 20H31.0063C31.2715 20 31.5259 20.1054 31.7134 20.2929C31.9009 20.4804 32.0063 20.7348 32.0063 21V28C32.0063 29.103 31.1093 30 30.0063 30Z" fill="#F9FAFB"/>
</svg>
