<svg width="272" height="272" viewBox="0 0 272 272" fill="none" xmlns="http://www.w3.org/2000/svg">
<circle cx="136" cy="136" r="136" fill="url(#paint0_radial)"/>
<path d="M135.501 96L134.743 96.3788L117.448 104.865L116.474 105.351V108.324H154.528V105.351L153.554 104.865L136.257 96.3788L135.501 96ZM135.501 99.8919L145.663 104.865H125.339L135.501 99.8919ZM119.933 110.054V127.351H118.204V130.811H152.798V127.351H151.068V110.054H147.609V127.351H144.15V110.054H140.69V127.351H137.231V110.054H133.771V127.351H130.312V110.054H126.852V127.351H123.393V110.054H119.933ZM114.744 132.541V136H156.258V132.541H114.744Z" fill="#31343C"/>
<path d="M95.4029 199.868V203H77.2949V200.552L87.5549 190.652C88.8029 189.452 89.6429 188.42 90.0749 187.556C90.5069 186.668 90.7229 185.78 90.7229 184.892C90.7229 183.572 90.2549 182.552 89.3189 181.832C88.4069 181.088 87.0869 180.716 85.3589 180.716C82.5749 180.716 80.4269 181.628 78.9149 183.452L76.4669 181.328C77.4509 180.128 78.7349 179.192 80.3189 178.52C81.9269 177.848 83.7149 177.512 85.6829 177.512C88.3229 177.512 90.4229 178.148 91.9829 179.42C93.5429 180.668 94.3229 182.372 94.3229 184.532C94.3229 185.876 94.0349 187.148 93.4589 188.348C92.8829 189.548 91.7909 190.916 90.1829 192.452L82.4789 199.868H95.4029ZM101.126 198.284C101.798 198.284 102.35 198.524 102.782 199.004C103.238 199.46 103.466 200.036 103.466 200.732C103.466 201.092 103.418 201.44 103.322 201.776C103.25 202.112 103.094 202.628 102.854 203.324L101.162 208.328H98.8943L100.226 202.964C99.7703 202.796 99.3983 202.52 99.1103 202.136C98.8463 201.728 98.7143 201.26 98.7143 200.732C98.7143 200.012 98.9423 199.424 99.3983 198.968C99.8543 198.512 100.43 198.284 101.126 198.284ZM114.071 187.844C117.671 187.844 120.311 188.528 121.991 189.896C123.695 191.24 124.547 193.088 124.547 195.44C124.547 196.928 124.187 198.272 123.467 199.472C122.771 200.648 121.703 201.584 120.263 202.28C118.847 202.952 117.095 203.288 115.007 203.288C113.231 203.288 111.515 203.024 109.859 202.496C108.203 201.944 106.835 201.188 105.755 200.228L107.411 197.384C108.275 198.2 109.379 198.86 110.723 199.364C112.067 199.844 113.483 200.084 114.971 200.084C116.867 200.084 118.331 199.688 119.363 198.896C120.419 198.08 120.947 196.976 120.947 195.584C120.947 194.072 120.371 192.932 119.219 192.164C118.067 191.372 116.099 190.976 113.315 190.976H107.591L108.923 177.8H123.143V180.932H111.947L111.263 187.844H114.071ZM137.838 203.288C135.846 203.288 134.07 202.784 132.51 201.776C130.974 200.744 129.762 199.256 128.874 197.312C127.986 195.368 127.542 193.064 127.542 190.4C127.542 187.736 127.986 185.432 128.874 183.488C129.762 181.544 130.974 180.068 132.51 179.06C134.07 178.028 135.846 177.512 137.838 177.512C139.806 177.512 141.558 178.028 143.094 179.06C144.654 180.068 145.878 181.544 146.766 183.488C147.654 185.432 148.098 187.736 148.098 190.4C148.098 193.064 147.654 195.368 146.766 197.312C145.878 199.256 144.654 200.744 143.094 201.776C141.558 202.784 139.806 203.288 137.838 203.288ZM137.838 200.084C139.854 200.084 141.462 199.256 142.662 197.6C143.886 195.944 144.498 193.544 144.498 190.4C144.498 187.256 143.886 184.856 142.662 183.2C141.462 181.544 139.854 180.716 137.838 180.716C135.798 180.716 134.166 181.544 132.942 183.2C131.742 184.856 131.142 187.256 131.142 190.4C131.142 193.544 131.742 195.944 132.942 197.6C134.166 199.256 135.798 200.084 137.838 200.084ZM161.85 203.288C159.858 203.288 158.082 202.784 156.522 201.776C154.986 200.744 153.774 199.256 152.886 197.312C151.998 195.368 151.554 193.064 151.554 190.4C151.554 187.736 151.998 185.432 152.886 183.488C153.774 181.544 154.986 180.068 156.522 179.06C158.082 178.028 159.858 177.512 161.85 177.512C163.818 177.512 165.57 178.028 167.106 179.06C168.666 180.068 169.89 181.544 170.778 183.488C171.666 185.432 172.11 187.736 172.11 190.4C172.11 193.064 171.666 195.368 170.778 197.312C169.89 199.256 168.666 200.744 167.106 201.776C165.57 202.784 163.818 203.288 161.85 203.288ZM161.85 200.084C163.866 200.084 165.474 199.256 166.674 197.6C167.898 195.944 168.51 193.544 168.51 190.4C168.51 187.256 167.898 184.856 166.674 183.2C165.474 181.544 163.866 180.716 161.85 180.716C159.81 180.716 158.178 181.544 156.954 183.2C155.754 184.856 155.154 187.256 155.154 190.4C155.154 193.544 155.754 195.944 156.954 197.6C158.178 199.256 159.81 200.084 161.85 200.084ZM192.624 191.84H186.072V198.284H183.048V191.84H176.496V188.996H183.048V182.516H186.072V188.996H192.624V191.84Z" fill="#31343C"/>
<path d="M5.34244 244.128C4.49977 244.128 3.68377 244 2.89444 243.744C2.11577 243.477 1.50244 243.136 1.05444 242.72L1.64644 241.472C2.0731 241.856 2.6171 242.171 3.27844 242.416C3.95044 242.651 4.63844 242.768 5.34244 242.768C6.27044 242.768 6.96377 242.613 7.42244 242.304C7.8811 241.984 8.11044 241.563 8.11044 241.04C8.11044 240.656 7.98244 240.347 7.72644 240.112C7.4811 239.867 7.17177 239.68 6.79844 239.552C6.43577 239.424 5.91844 239.28 5.24644 239.12C4.40377 238.917 3.7211 238.715 3.19844 238.512C2.68644 238.309 2.24377 238 1.87044 237.584C1.50777 237.157 1.32644 236.587 1.32644 235.872C1.32644 235.275 1.4811 234.736 1.79044 234.256C2.11044 233.776 2.59044 233.392 3.23044 233.104C3.87044 232.816 4.6651 232.672 5.61444 232.672C6.27577 232.672 6.92644 232.757 7.56644 232.928C8.20644 233.099 8.75577 233.344 9.21444 233.664L8.68644 234.944C8.2171 234.645 7.71577 234.421 7.18244 234.272C6.6491 234.112 6.12644 234.032 5.61444 234.032C4.70777 234.032 4.0251 234.197 3.56644 234.528C3.11844 234.859 2.89444 235.285 2.89444 235.808C2.89444 236.192 3.02244 236.507 3.27844 236.752C3.53444 236.987 3.8491 237.173 4.22244 237.312C4.60644 237.44 5.12377 237.579 5.77444 237.728C6.6171 237.931 7.29444 238.133 7.80644 238.336C8.31844 238.539 8.75577 238.848 9.11844 239.264C9.49177 239.68 9.67844 240.24 9.67844 240.944C9.67844 241.531 9.51844 242.069 9.19844 242.56C8.87844 243.04 8.3931 243.424 7.74244 243.712C7.09177 243.989 6.29177 244.128 5.34244 244.128ZM15.4879 244.096C14.6239 244.096 13.8506 243.909 13.1679 243.536C12.4959 243.163 11.9679 242.651 11.5839 242C11.1999 241.339 11.0079 240.592 11.0079 239.76C11.0079 238.928 11.1999 238.187 11.5839 237.536C11.9679 236.875 12.4959 236.363 13.1679 236C13.8506 235.627 14.6239 235.44 15.4879 235.44C16.2559 235.44 16.9386 235.595 17.5359 235.904C18.1439 236.213 18.6133 236.661 18.9439 237.248L17.7759 238C17.5093 237.595 17.1786 237.291 16.7839 237.088C16.3893 236.885 15.9519 236.784 15.4719 236.784C14.9173 236.784 14.4159 236.907 13.9679 237.152C13.5306 237.397 13.1839 237.749 12.9279 238.208C12.6826 238.656 12.5599 239.173 12.5599 239.76C12.5599 240.357 12.6826 240.885 12.9279 241.344C13.1839 241.792 13.5306 242.139 13.9679 242.384C14.4159 242.629 14.9173 242.752 15.4719 242.752C15.9519 242.752 16.3893 242.651 16.7839 242.448C17.1786 242.245 17.5093 241.941 17.7759 241.536L18.9439 242.272C18.6133 242.859 18.1439 243.312 17.5359 243.632C16.9386 243.941 16.2559 244.096 15.4879 244.096ZM25.3512 235.44C26.4285 235.44 27.2819 235.755 27.9112 236.384C28.5512 237.003 28.8712 237.915 28.8712 239.12V244H27.3352V239.296C27.3352 238.475 27.1379 237.856 26.7432 237.44C26.3485 237.024 25.7832 236.816 25.0472 236.816C24.2152 236.816 23.5592 237.061 23.0792 237.552C22.5992 238.032 22.3592 238.725 22.3592 239.632V244H20.8232V232.128H22.3592V236.72C22.6792 236.315 23.0952 236 23.6072 235.776C24.1299 235.552 24.7112 235.44 25.3512 235.44ZM35.3927 244.096C34.55 244.096 33.7927 243.909 33.1207 243.536C32.4487 243.163 31.9207 242.651 31.5367 242C31.1634 241.339 30.9767 240.592 30.9767 239.76C30.9767 238.928 31.1634 238.187 31.5367 237.536C31.9207 236.875 32.4487 236.363 33.1207 236C33.7927 235.627 34.55 235.44 35.3927 235.44C36.2354 235.44 36.9874 235.627 37.6487 236C38.3207 236.363 38.8434 236.875 39.2167 237.536C39.6007 238.187 39.7927 238.928 39.7927 239.76C39.7927 240.592 39.6007 241.339 39.2167 242C38.8434 242.651 38.3207 243.163 37.6487 243.536C36.9874 243.909 36.2354 244.096 35.3927 244.096ZM35.3927 242.752C35.9367 242.752 36.422 242.629 36.8487 242.384C37.286 242.128 37.6274 241.776 37.8727 241.328C38.118 240.869 38.2407 240.347 38.2407 239.76C38.2407 239.173 38.118 238.656 37.8727 238.208C37.6274 237.749 37.286 237.397 36.8487 237.152C36.422 236.907 35.9367 236.784 35.3927 236.784C34.8487 236.784 34.358 236.907 33.9207 237.152C33.494 237.397 33.1527 237.749 32.8967 238.208C32.6514 238.656 32.5287 239.173 32.5287 239.76C32.5287 240.347 32.6514 240.869 32.8967 241.328C33.1527 241.776 33.494 242.128 33.9207 242.384C34.358 242.629 34.8487 242.752 35.3927 242.752ZM45.5489 244.096C44.7063 244.096 43.9489 243.909 43.2769 243.536C42.6049 243.163 42.0769 242.651 41.6929 242C41.3196 241.339 41.1329 240.592 41.1329 239.76C41.1329 238.928 41.3196 238.187 41.6929 237.536C42.0769 236.875 42.6049 236.363 43.2769 236C43.9489 235.627 44.7063 235.44 45.5489 235.44C46.3916 235.44 47.1436 235.627 47.8049 236C48.4769 236.363 48.9996 236.875 49.3729 237.536C49.7569 238.187 49.9489 238.928 49.9489 239.76C49.9489 240.592 49.7569 241.339 49.3729 242C48.9996 242.651 48.4769 243.163 47.8049 243.536C47.1436 243.909 46.3916 244.096 45.5489 244.096ZM45.5489 242.752C46.0929 242.752 46.5783 242.629 47.0049 242.384C47.4423 242.128 47.7836 241.776 48.0289 241.328C48.2743 240.869 48.3969 240.347 48.3969 239.76C48.3969 239.173 48.2743 238.656 48.0289 238.208C47.7836 237.749 47.4423 237.397 47.0049 237.152C46.5783 236.907 46.0929 236.784 45.5489 236.784C45.0049 236.784 44.5143 236.907 44.0769 237.152C43.6503 237.397 43.3089 237.749 43.0529 238.208C42.8076 238.656 42.6849 239.173 42.6849 239.76C42.6849 240.347 42.8076 240.869 43.0529 241.328C43.3089 241.776 43.6503 242.128 44.0769 242.384C44.5143 242.629 45.0049 242.752 45.5489 242.752ZM52.0732 232.128H53.6092V244H52.0732V232.128ZM58.9739 244.096C58.2806 244.096 57.6139 244.005 56.9739 243.824C56.3339 243.632 55.8326 243.392 55.4699 243.104L56.1099 241.888C56.4833 242.155 56.9366 242.368 57.4699 242.528C58.0033 242.688 58.5419 242.768 59.0859 242.768C60.4299 242.768 61.1019 242.384 61.1019 241.616C61.1019 241.36 61.0113 241.157 60.8299 241.008C60.6486 240.859 60.4193 240.752 60.1419 240.688C59.8753 240.613 59.4913 240.533 58.9899 240.448C58.3073 240.341 57.7473 240.219 57.3099 240.08C56.8833 239.941 56.5153 239.707 56.2059 239.376C55.8966 239.045 55.7419 238.581 55.7419 237.984C55.7419 237.216 56.0619 236.603 56.7019 236.144C57.3419 235.675 58.2006 235.44 59.2779 235.44C59.8433 235.44 60.4086 235.509 60.9739 235.648C61.5393 235.787 62.0033 235.973 62.3659 236.208L61.7099 237.424C61.0166 236.976 60.2006 236.752 59.2619 236.752C58.6113 236.752 58.1153 236.859 57.7739 237.072C57.4326 237.285 57.2619 237.568 57.2619 237.92C57.2619 238.197 57.3579 238.416 57.5499 238.576C57.7419 238.736 57.9766 238.853 58.2539 238.928C58.5419 239.003 58.9419 239.088 59.4539 239.184C60.1366 239.301 60.6859 239.429 61.1019 239.568C61.5286 239.696 61.8913 239.92 62.1899 240.24C62.4886 240.56 62.6379 241.008 62.6379 241.584C62.6379 242.352 62.3073 242.965 61.6459 243.424C60.9953 243.872 60.1046 244.096 58.9739 244.096ZM71.9424 235.44C73.1158 235.44 74.0118 235.728 74.6304 236.304C75.2598 236.88 75.5744 237.739 75.5744 238.88V244H74.1184V242.88C73.8624 243.275 73.4944 243.579 73.0144 243.792C72.5451 243.995 71.9851 244.096 71.3344 244.096C70.3851 244.096 69.6224 243.867 69.0464 243.408C68.4811 242.949 68.1984 242.347 68.1984 241.6C68.1984 240.853 68.4704 240.256 69.0144 239.808C69.5584 239.349 70.4224 239.12 71.6064 239.12H74.0384V238.816C74.0384 238.155 73.8464 237.648 73.4624 237.296C73.0784 236.944 72.5131 236.768 71.7664 236.768C71.2651 236.768 70.7744 236.853 70.2944 237.024C69.8144 237.184 69.4091 237.403 69.0784 237.68L68.4384 236.528C68.8758 236.176 69.3984 235.909 70.0064 235.728C70.6144 235.536 71.2598 235.44 71.9424 235.44ZM71.5904 242.912C72.1771 242.912 72.6838 242.784 73.1104 242.528C73.5371 242.261 73.8464 241.888 74.0384 241.408V240.224H71.6704C70.3691 240.224 69.7184 240.661 69.7184 241.536C69.7184 241.963 69.8838 242.299 70.2144 242.544C70.5451 242.789 71.0038 242.912 71.5904 242.912ZM82.9449 235.44C84.0223 235.44 84.8756 235.755 85.5049 236.384C86.1449 237.003 86.4649 237.915 86.4649 239.12V244H84.9289V239.296C84.9289 238.475 84.7316 237.856 84.3369 237.44C83.9423 237.024 83.3769 236.816 82.6409 236.816C81.8089 236.816 81.1529 237.061 80.6729 237.552C80.1929 238.032 79.9529 238.725 79.9529 239.632V244H78.4169V235.52H79.8889V236.8C80.1983 236.363 80.6143 236.027 81.1369 235.792C81.6703 235.557 82.2729 235.44 82.9449 235.44ZM97.3544 232.128V244H95.8824V242.656C95.5411 243.125 95.1091 243.483 94.5864 243.728C94.0638 243.973 93.4878 244.096 92.8584 244.096C92.0371 244.096 91.3011 243.915 90.6504 243.552C89.9998 243.189 89.4878 242.683 89.1144 242.032C88.7518 241.371 88.5704 240.613 88.5704 239.76C88.5704 238.907 88.7518 238.155 89.1144 237.504C89.4878 236.853 89.9998 236.347 90.6504 235.984C91.3011 235.621 92.0371 235.44 92.8584 235.44C93.4664 235.44 94.0264 235.557 94.5384 235.792C95.0504 236.016 95.4771 236.352 95.8184 236.8V232.128H97.3544ZM92.9864 242.752C93.5198 242.752 94.0051 242.629 94.4424 242.384C94.8798 242.128 95.2211 241.776 95.4664 241.328C95.7118 240.869 95.8344 240.347 95.8344 239.76C95.8344 239.173 95.7118 238.656 95.4664 238.208C95.2211 237.749 94.8798 237.397 94.4424 237.152C94.0051 236.907 93.5198 236.784 92.9864 236.784C92.4424 236.784 91.9518 236.907 91.5144 237.152C91.0878 237.397 90.7464 237.749 90.4904 238.208C90.2451 238.656 90.1224 239.173 90.1224 239.76C90.1224 240.347 90.2451 240.869 90.4904 241.328C90.7464 241.776 91.0878 242.128 91.5144 242.384C91.9518 242.629 92.4424 242.752 92.9864 242.752ZM108.254 244.096C107.39 244.096 106.616 243.909 105.934 243.536C105.262 243.163 104.734 242.651 104.35 242C103.966 241.339 103.774 240.592 103.774 239.76C103.774 238.928 103.966 238.187 104.35 237.536C104.734 236.875 105.262 236.363 105.934 236C106.616 235.627 107.39 235.44 108.254 235.44C109.022 235.44 109.704 235.595 110.302 235.904C110.91 236.213 111.379 236.661 111.71 237.248L110.542 238C110.275 237.595 109.944 237.291 109.55 237.088C109.155 236.885 108.718 236.784 108.238 236.784C107.683 236.784 107.182 236.907 106.734 237.152C106.296 237.397 105.95 237.749 105.694 238.208C105.448 238.656 105.326 239.173 105.326 239.76C105.326 240.357 105.448 240.885 105.694 241.344C105.95 241.792 106.296 242.139 106.734 242.384C107.182 242.629 107.683 242.752 108.238 242.752C108.718 242.752 109.155 242.651 109.55 242.448C109.944 242.245 110.275 241.941 110.542 241.536L111.71 242.272C111.379 242.859 110.91 243.312 110.302 243.632C109.704 243.941 109.022 244.096 108.254 244.096ZM117.205 244.096C116.363 244.096 115.605 243.909 114.933 243.536C114.261 243.163 113.733 242.651 113.349 242C112.976 241.339 112.789 240.592 112.789 239.76C112.789 238.928 112.976 238.187 113.349 237.536C113.733 236.875 114.261 236.363 114.933 236C115.605 235.627 116.363 235.44 117.205 235.44C118.048 235.44 118.8 235.627 119.461 236C120.133 236.363 120.656 236.875 121.029 237.536C121.413 238.187 121.605 238.928 121.605 239.76C121.605 240.592 121.413 241.339 121.029 242C120.656 242.651 120.133 243.163 119.461 243.536C118.8 243.909 118.048 244.096 117.205 244.096ZM117.205 242.752C117.749 242.752 118.235 242.629 118.661 242.384C119.099 242.128 119.44 241.776 119.685 241.328C119.931 240.869 120.053 240.347 120.053 239.76C120.053 239.173 119.931 238.656 119.685 238.208C119.44 237.749 119.099 237.397 118.661 237.152C118.235 236.907 117.749 236.784 117.205 236.784C116.661 236.784 116.171 236.907 115.733 237.152C115.307 237.397 114.965 237.749 114.709 238.208C114.464 238.656 114.341 239.173 114.341 239.76C114.341 240.347 114.464 240.869 114.709 241.328C114.965 241.776 115.307 242.128 115.733 242.384C116.171 242.629 116.661 242.752 117.205 242.752ZM123.729 232.128H125.265V244H123.729V232.128ZM128.198 232.128H129.734V244H128.198V232.128ZM140.331 239.808C140.331 239.925 140.32 240.08 140.299 240.272H133.419C133.515 241.019 133.84 241.621 134.395 242.08C134.96 242.528 135.659 242.752 136.491 242.752C137.504 242.752 138.32 242.411 138.939 241.728L139.787 242.72C139.403 243.168 138.923 243.509 138.347 243.744C137.782 243.979 137.147 244.096 136.443 244.096C135.547 244.096 134.752 243.915 134.059 243.552C133.366 243.179 132.827 242.661 132.443 242C132.07 241.339 131.883 240.592 131.883 239.76C131.883 238.939 132.064 238.197 132.427 237.536C132.8 236.875 133.307 236.363 133.947 236C134.598 235.627 135.328 235.44 136.139 235.44C136.95 235.44 137.67 235.627 138.299 236C138.939 236.363 139.435 236.875 139.787 237.536C140.15 238.197 140.331 238.955 140.331 239.808ZM136.139 236.736C135.403 236.736 134.784 236.96 134.283 237.408C133.792 237.856 133.504 238.443 133.419 239.168H138.859C138.774 238.453 138.48 237.872 137.979 237.424C137.488 236.965 136.875 236.736 136.139 236.736ZM150.576 235.52V242.848C150.576 244.331 150.208 245.424 149.472 246.128C148.736 246.843 147.637 247.2 146.176 247.2C145.376 247.2 144.613 247.088 143.888 246.864C143.162 246.651 142.576 246.341 142.128 245.936L142.864 244.752C143.258 245.093 143.744 245.36 144.32 245.552C144.906 245.755 145.509 245.856 146.128 245.856C147.12 245.856 147.85 245.621 148.32 245.152C148.8 244.683 149.04 243.968 149.04 243.008V242.336C148.677 242.773 148.229 243.104 147.696 243.328C147.173 243.541 146.602 243.648 145.984 243.648C145.173 243.648 144.437 243.477 143.776 243.136C143.125 242.784 142.613 242.299 142.24 241.68C141.866 241.051 141.68 240.336 141.68 239.536C141.68 238.736 141.866 238.027 142.24 237.408C142.613 236.779 143.125 236.293 143.776 235.952C144.437 235.611 145.173 235.44 145.984 235.44C146.624 235.44 147.216 235.557 147.76 235.792C148.314 236.027 148.768 236.373 149.12 236.832V235.52H150.576ZM146.16 242.304C146.714 242.304 147.21 242.187 147.648 241.952C148.096 241.717 148.442 241.392 148.688 240.976C148.944 240.549 149.072 240.069 149.072 239.536C149.072 238.715 148.8 238.053 148.256 237.552C147.712 237.04 147.013 236.784 146.16 236.784C145.296 236.784 144.592 237.04 144.048 237.552C143.504 238.053 143.232 238.715 143.232 239.536C143.232 240.069 143.354 240.549 143.6 240.976C143.856 241.392 144.202 241.717 144.64 241.952C145.088 242.187 145.594 242.304 146.16 242.304ZM161.175 239.808C161.175 239.925 161.164 240.08 161.143 240.272H154.263C154.359 241.019 154.684 241.621 155.239 242.08C155.804 242.528 156.503 242.752 157.335 242.752C158.348 242.752 159.164 242.411 159.783 241.728L160.631 242.72C160.247 243.168 159.767 243.509 159.191 243.744C158.625 243.979 157.991 244.096 157.287 244.096C156.391 244.096 155.596 243.915 154.903 243.552C154.209 243.179 153.671 242.661 153.287 242C152.913 241.339 152.727 240.592 152.727 239.76C152.727 238.939 152.908 238.197 153.271 237.536C153.644 236.875 154.151 236.363 154.791 236C155.441 235.627 156.172 235.44 156.983 235.44C157.793 235.44 158.513 235.627 159.143 236C159.783 236.363 160.279 236.875 160.631 237.536C160.993 238.197 161.175 238.955 161.175 239.808ZM156.983 236.736C156.247 236.736 155.628 236.96 155.127 237.408C154.636 237.856 154.348 238.443 154.263 239.168H159.703C159.617 238.453 159.324 237.872 158.823 237.424C158.332 236.965 157.719 236.736 156.983 236.736ZM165.74 244.096C165.046 244.096 164.38 244.005 163.74 243.824C163.1 243.632 162.598 243.392 162.236 243.104L162.876 241.888C163.249 242.155 163.702 242.368 164.236 242.528C164.769 242.688 165.308 242.768 165.852 242.768C167.196 242.768 167.868 242.384 167.868 241.616C167.868 241.36 167.777 241.157 167.596 241.008C167.414 240.859 167.185 240.752 166.908 240.688C166.641 240.613 166.257 240.533 165.756 240.448C165.073 240.341 164.513 240.219 164.076 240.08C163.649 239.941 163.281 239.707 162.972 239.376C162.662 239.045 162.508 238.581 162.508 237.984C162.508 237.216 162.828 236.603 163.468 236.144C164.108 235.675 164.966 235.44 166.044 235.44C166.609 235.44 167.174 235.509 167.74 235.648C168.305 235.787 168.769 235.973 169.132 236.208L168.476 237.424C167.782 236.976 166.966 236.752 166.028 236.752C165.377 236.752 164.881 236.859 164.54 237.072C164.198 237.285 164.028 237.568 164.028 237.92C164.028 238.197 164.124 238.416 164.316 238.576C164.508 238.736 164.742 238.853 165.02 238.928C165.308 239.003 165.708 239.088 166.22 239.184C166.902 239.301 167.452 239.429 167.868 239.568C168.294 239.696 168.657 239.92 168.956 240.24C169.254 240.56 169.404 241.008 169.404 241.584C169.404 242.352 169.073 242.965 168.412 243.424C167.761 243.872 166.87 244.096 165.74 244.096ZM178.708 235.44C179.881 235.44 180.777 235.728 181.396 236.304C182.025 236.88 182.34 237.739 182.34 238.88V244H180.884V242.88C180.628 243.275 180.26 243.579 179.78 243.792C179.311 243.995 178.751 244.096 178.1 244.096C177.151 244.096 176.388 243.867 175.812 243.408C175.247 242.949 174.964 242.347 174.964 241.6C174.964 240.853 175.236 240.256 175.78 239.808C176.324 239.349 177.188 239.12 178.372 239.12H180.804V238.816C180.804 238.155 180.612 237.648 180.228 237.296C179.844 236.944 179.279 236.768 178.532 236.768C178.031 236.768 177.54 236.853 177.06 237.024C176.58 237.184 176.175 237.403 175.844 237.68L175.204 236.528C175.641 236.176 176.164 235.909 176.772 235.728C177.38 235.536 178.025 235.44 178.708 235.44ZM178.356 242.912C178.943 242.912 179.449 242.784 179.876 242.528C180.303 242.261 180.612 241.888 180.804 241.408V240.224H178.436C177.135 240.224 176.484 240.661 176.484 241.536C176.484 241.963 176.649 242.299 176.98 242.544C177.311 242.789 177.769 242.912 178.356 242.912ZM188.925 244.096C188.061 244.096 187.288 243.909 186.605 243.536C185.933 243.163 185.405 242.651 185.021 242C184.637 241.339 184.445 240.592 184.445 239.76C184.445 238.928 184.637 238.187 185.021 237.536C185.405 236.875 185.933 236.363 186.605 236C187.288 235.627 188.061 235.44 188.925 235.44C189.693 235.44 190.376 235.595 190.973 235.904C191.581 236.213 192.051 236.661 192.381 237.248L191.213 238C190.947 237.595 190.616 237.291 190.221 237.088C189.827 236.885 189.389 236.784 188.909 236.784C188.355 236.784 187.853 236.907 187.405 237.152C186.968 237.397 186.621 237.749 186.365 238.208C186.12 238.656 185.997 239.173 185.997 239.76C185.997 240.357 186.12 240.885 186.365 241.344C186.621 241.792 186.968 242.139 187.405 242.384C187.853 242.629 188.355 242.752 188.909 242.752C189.389 242.752 189.827 242.651 190.221 242.448C190.616 242.245 190.947 241.941 191.213 241.536L192.381 242.272C192.051 242.859 191.581 243.312 190.973 243.632C190.376 243.941 189.693 244.096 188.925 244.096ZM195.842 236.944C196.109 236.453 196.503 236.08 197.026 235.824C197.549 235.568 198.183 235.44 198.93 235.44V236.928C198.845 236.917 198.727 236.912 198.578 236.912C197.746 236.912 197.09 237.163 196.61 237.664C196.141 238.155 195.906 238.859 195.906 239.776V244H194.37V235.52H195.842V236.944ZM204.377 244.096C203.534 244.096 202.777 243.909 202.105 243.536C201.433 243.163 200.905 242.651 200.521 242C200.148 241.339 199.961 240.592 199.961 239.76C199.961 238.928 200.148 238.187 200.521 237.536C200.905 236.875 201.433 236.363 202.105 236C202.777 235.627 203.534 235.44 204.377 235.44C205.22 235.44 205.972 235.627 206.633 236C207.305 236.363 207.828 236.875 208.201 237.536C208.585 238.187 208.777 238.928 208.777 239.76C208.777 240.592 208.585 241.339 208.201 242C207.828 242.651 207.305 243.163 206.633 243.536C205.972 243.909 205.22 244.096 204.377 244.096ZM204.377 242.752C204.921 242.752 205.406 242.629 205.833 242.384C206.27 242.128 206.612 241.776 206.857 241.328C207.102 240.869 207.225 240.347 207.225 239.76C207.225 239.173 207.102 238.656 206.857 238.208C206.612 237.749 206.27 237.397 205.833 237.152C205.406 236.907 204.921 236.784 204.377 236.784C203.833 236.784 203.342 236.907 202.905 237.152C202.478 237.397 202.137 237.749 201.881 238.208C201.636 238.656 201.513 239.173 201.513 239.76C201.513 240.347 201.636 240.869 201.881 241.328C202.137 241.776 202.478 242.128 202.905 242.384C203.342 242.629 203.833 242.752 204.377 242.752ZM213.333 244.096C212.64 244.096 211.973 244.005 211.333 243.824C210.693 243.632 210.192 243.392 209.829 243.104L210.469 241.888C210.843 242.155 211.296 242.368 211.829 242.528C212.363 242.688 212.901 242.768 213.445 242.768C214.789 242.768 215.461 242.384 215.461 241.616C215.461 241.36 215.371 241.157 215.189 241.008C215.008 240.859 214.779 240.752 214.501 240.688C214.235 240.613 213.851 240.533 213.349 240.448C212.667 240.341 212.107 240.219 211.669 240.08C211.243 239.941 210.875 239.707 210.565 239.376C210.256 239.045 210.101 238.581 210.101 237.984C210.101 237.216 210.421 236.603 211.061 236.144C211.701 235.675 212.56 235.44 213.637 235.44C214.203 235.44 214.768 235.509 215.333 235.648C215.899 235.787 216.363 235.973 216.725 236.208L216.069 237.424C215.376 236.976 214.56 236.752 213.621 236.752C212.971 236.752 212.475 236.859 212.133 237.072C211.792 237.285 211.621 237.568 211.621 237.92C211.621 238.197 211.717 238.416 211.909 238.576C212.101 238.736 212.336 238.853 212.613 238.928C212.901 239.003 213.301 239.088 213.813 239.184C214.496 239.301 215.045 239.429 215.461 239.568C215.888 239.696 216.251 239.92 216.549 240.24C216.848 240.56 216.997 241.008 216.997 241.584C216.997 242.352 216.667 242.965 216.005 243.424C215.355 243.872 214.464 244.096 213.333 244.096ZM221.349 244.096C220.656 244.096 219.989 244.005 219.349 243.824C218.709 243.632 218.208 243.392 217.845 243.104L218.485 241.888C218.858 242.155 219.312 242.368 219.845 242.528C220.378 242.688 220.917 242.768 221.461 242.768C222.805 242.768 223.477 242.384 223.477 241.616C223.477 241.36 223.386 241.157 223.205 241.008C223.024 240.859 222.794 240.752 222.517 240.688C222.25 240.613 221.866 240.533 221.365 240.448C220.682 240.341 220.122 240.219 219.685 240.08C219.258 239.941 218.89 239.707 218.581 239.376C218.272 239.045 218.117 238.581 218.117 237.984C218.117 237.216 218.437 236.603 219.077 236.144C219.717 235.675 220.576 235.44 221.653 235.44C222.218 235.44 222.784 235.509 223.349 235.648C223.914 235.787 224.378 235.973 224.741 236.208L224.085 237.424C223.392 236.976 222.576 236.752 221.637 236.752C220.986 236.752 220.49 236.859 220.149 237.072C219.808 237.285 219.637 237.568 219.637 237.92C219.637 238.197 219.733 238.416 219.925 238.576C220.117 238.736 220.352 238.853 220.629 238.928C220.917 239.003 221.317 239.088 221.829 239.184C222.512 239.301 223.061 239.429 223.477 239.568C223.904 239.696 224.266 239.92 224.565 240.24C224.864 240.56 225.013 241.008 225.013 241.584C225.013 242.352 224.682 242.965 224.021 243.424C223.37 243.872 222.48 244.096 221.349 244.096ZM231.453 232.8H233.053V244H231.453V232.8ZM240.711 235.44C241.788 235.44 242.641 235.755 243.271 236.384C243.911 237.003 244.231 237.915 244.231 239.12V244H242.695V239.296C242.695 238.475 242.497 237.856 242.103 237.44C241.708 237.024 241.143 236.816 240.407 236.816C239.575 236.816 238.919 237.061 238.439 237.552C237.959 238.032 237.719 238.725 237.719 239.632V244H236.183V235.52H237.655V236.8C237.964 236.363 238.38 236.027 238.903 235.792C239.436 235.557 240.039 235.44 240.711 235.44ZM255.12 232.128V244H253.648V242.656C253.307 243.125 252.875 243.483 252.352 243.728C251.829 243.973 251.253 244.096 250.624 244.096C249.803 244.096 249.067 243.915 248.416 243.552C247.765 243.189 247.253 242.683 246.88 242.032C246.517 241.371 246.336 240.613 246.336 239.76C246.336 238.907 246.517 238.155 246.88 237.504C247.253 236.853 247.765 236.347 248.416 235.984C249.067 235.621 249.803 235.44 250.624 235.44C251.232 235.44 251.792 235.557 252.304 235.792C252.816 236.016 253.243 236.352 253.584 236.8V232.128H255.12ZM250.752 242.752C251.285 242.752 251.771 242.629 252.208 242.384C252.645 242.128 252.987 241.776 253.232 241.328C253.477 240.869 253.6 240.347 253.6 239.76C253.6 239.173 253.477 238.656 253.232 238.208C252.987 237.749 252.645 237.397 252.208 237.152C251.771 236.907 251.285 236.784 250.752 236.784C250.208 236.784 249.717 236.907 249.28 237.152C248.853 237.397 248.512 237.749 248.256 238.208C248.011 238.656 247.888 239.173 247.888 239.76C247.888 240.347 248.011 240.869 248.256 241.328C248.512 241.776 248.853 242.128 249.28 242.384C249.717 242.629 250.208 242.752 250.752 242.752ZM258.026 235.52H259.562V244H258.026V235.52ZM258.794 233.888C258.496 233.888 258.245 233.792 258.042 233.6C257.85 233.408 257.754 233.173 257.754 232.896C257.754 232.619 257.85 232.384 258.042 232.192C258.245 231.989 258.496 231.888 258.794 231.888C259.093 231.888 259.338 231.984 259.53 232.176C259.733 232.357 259.834 232.587 259.834 232.864C259.834 233.152 259.733 233.397 259.53 233.6C259.338 233.792 259.093 233.888 258.794 233.888ZM265.583 235.44C266.756 235.44 267.652 235.728 268.271 236.304C268.9 236.88 269.215 237.739 269.215 238.88V244H267.759V242.88C267.503 243.275 267.135 243.579 266.655 243.792C266.186 243.995 265.626 244.096 264.975 244.096C264.026 244.096 263.263 243.867 262.687 243.408C262.122 242.949 261.839 242.347 261.839 241.6C261.839 240.853 262.111 240.256 262.655 239.808C263.199 239.349 264.063 239.12 265.247 239.12H267.679V238.816C267.679 238.155 267.487 237.648 267.103 237.296C266.719 236.944 266.154 236.768 265.407 236.768C264.906 236.768 264.415 236.853 263.935 237.024C263.455 237.184 263.05 237.403 262.719 237.68L262.079 236.528C262.516 236.176 263.039 235.909 263.647 235.728C264.255 235.536 264.9 235.44 265.583 235.44ZM265.231 242.912C265.818 242.912 266.324 242.784 266.751 242.528C267.178 242.261 267.487 241.888 267.679 241.408V240.224H265.311C264.01 240.224 263.359 240.661 263.359 241.536C263.359 241.963 263.524 242.299 263.855 242.544C264.186 242.789 264.644 242.912 265.231 242.912Z" fill="#31343C"/>
<defs>
<radialGradient id="paint0_radial" cx="0" cy="0" r="1" gradientUnits="userSpaceOnUse" gradientTransform="translate(136 136) rotate(90) scale(136)">
<stop stop-color="#FF725E" stop-opacity="0.2"/>
<stop offset="1" stop-color="white" stop-opacity="0"/>
</radialGradient>
</defs>
</svg>
