<svg width="126" height="30" viewBox="0 0 126 30" fill="none" xmlns="http://www.w3.org/2000/svg">
<path d="M6.05071 20.1504C5.97803 20.1885 5.90729 20.2356 5.83849 20.2904H0.00903058V26.2869L3.69329 30H16.0947L19.7069 26.3919V15.1873L15.9637 11.5699H11.2856C11.27 11.2267 11.342 10.9238 11.342 10.9238C11.8421 10.6776 12.3528 11.2981 12.3528 11.2981C12.5916 11.2779 12.8935 11.4505 12.8935 11.4505C13.2483 11.334 14.3128 11.609 14.3612 11.5312C14.4018 10.8956 14.1425 10.5079 13.9299 10.3004H19.7082V4.21618L15.5919 0.00512695H4.29297L0 4.26864V15.2369L3.72877 18.9657H7.1204C7.04257 19.1648 6.96194 19.3295 6.96194 19.3295L6.05071 20.1504ZM12.3102 9.29093C12.1878 9.2346 12.0262 9.23331 12.0262 9.23331L11.8023 8.99163C11.8023 8.48893 11.2551 8.62568 11.2551 8.62568L11.3009 8.35218C11.4508 8.35218 11.8666 8.41153 12.3117 8.47324V9.29072H12.3102V9.29093ZM11.8892 20.9243L12.6426 20.9544V22.7717H10.8515L10.8502 22.464L10.8698 20.8142C10.9006 20.4162 11.1971 20.6531 11.1971 20.6531C11.4482 20.906 11.8892 20.9243 11.8892 20.9243ZM12.3102 7.51019C12.2887 7.50245 12.267 7.49127 12.2455 7.48202H12.3102V7.51019ZM3.92959 18.48L0.492382 15.043V4.48967L4.48756 0.51213H15.3791L19.2605 4.49225V9.81235H13.3261C13.2836 9.74376 13.2554 9.69 13.2554 9.69C13.1507 9.4995 12.9666 9.42876 12.8004 9.40468V8.53989C13.2698 8.60139 13.6749 8.6446 13.7228 8.59623C13.9428 8.37498 13.3758 8.01956 12.8004 7.7366V6.99953H11.1945C10.7952 6.73098 10.7331 6.49941 10.7331 6.49941C10.5963 5.63204 11.554 5.98617 11.554 5.98617C12.0606 6.02487 12.1653 5.73676 12.1653 5.73676C11.9696 5.17041 11.2547 4.98851 11.1407 4.93991C11.0053 4.88358 10.9838 4.83241 11.036 4.72855C11.0719 4.65717 11.457 4.83133 11.5819 4.70834C11.8673 4.42151 10.8737 3.78722 10.8737 3.78722C11.5204 3.75132 10.8068 3.09015 10.8068 3.09015C10.3768 2.74978 10.5267 2.45048 10.5267 2.45048C10.981 2.49628 10.9797 2.02045 10.9089 2.00261C10.2398 1.84952 10.3538 1.58828 10.3538 1.58828C10.3538 1.36036 10.2424 1.12427 10.2424 1.12427C10.3334 0.714458 10.1482 0.79638 10.1482 0.79638C9.87516 0.79638 10.033 1.04064 10.033 1.04064C9.93429 1.45303 9.65004 1.73836 9.65004 1.73836C9.03273 1.72653 9.35483 2.30599 9.35483 2.30599L9.73841 2.27138L9.64875 2.64636C8.75838 3.03532 9.00199 3.67606 9.50942 3.73497C9.55457 3.85022 9.48254 3.95365 9.48254 3.95365C8.95425 3.97644 9.05961 4.17898 8.61324 4.39636C8.2675 4.56772 8.27546 4.74447 8.30233 4.8696C8.35329 5.11902 8.68721 4.88143 8.68721 4.88143L8.35867 5.3278C7.25951 5.81674 8.22901 6.13625 8.22901 6.13625C9.0938 5.61914 9.43159 5.81674 9.43159 5.81674C9.56833 6.36008 9.2972 6.74496 8.98113 6.99695H7.28102C7.28102 7.15219 7.28102 7.42182 7.28102 7.76089C6.74864 8.12943 6.55448 8.62289 6.55448 8.62289C6.18982 8.98884 6.37172 9.17032 6.37172 9.17032C6.55298 9.26127 6.93721 9.11398 7.27973 8.94433C7.27973 9.28534 7.27973 9.64077 7.27973 9.98393C7.25156 9.99704 7.23264 10.0067 7.23264 10.0067C7.00472 10.4623 6.13757 10.8283 6.13757 10.8283C5.08895 11.2824 5.59036 11.8782 5.59036 11.8782C5.75786 11.9064 6.62931 11.7262 7.27994 11.5856C7.27994 11.795 7.27994 11.964 7.27994 12.0751C7.48614 12.0751 8.06023 12.0751 8.81514 12.0751C8.62206 12.403 8.28298 12.7441 8.28298 12.7441C8.14473 13.1997 7.59881 13.3837 7.59881 13.3837C6.13886 13.7477 6.22874 14.2492 6.22874 14.2492L7.3238 14.1582C7.64331 13.8851 7.8723 14.1582 7.8723 14.1582L8.23697 14.2492C8.42102 14.5229 8.14989 15.3333 8.14989 15.3333H7.42056C7.37476 15.6083 6.87335 15.6057 6.87335 15.6057C6.64543 15.5167 6.37065 15.7902 6.37065 15.7902C6.2797 15.9723 5.86923 16.1555 5.86923 16.1555C5.50457 16.2445 5.77828 16.4279 5.77828 16.4279C6.09844 16.2 6.09844 16.7003 6.09844 16.7003C6.00749 16.9293 5.26505 16.919 5.27687 17.1114C5.29988 17.4518 7.78673 16.4253 7.78673 16.4253C8.10538 16.1557 8.33329 16.2918 8.33329 16.2918C8.56164 16.6558 7.87768 17.1114 7.87768 17.1114C7.60418 17.4307 7.15889 17.6064 7.15889 17.6064C6.10553 17.7767 5.98706 18.3867 5.97653 18.477C4.78341 18.48 3.92959 18.48 3.92959 18.48ZM7.92369 8.58075C8.4264 8.07783 8.79106 8.58075 8.79106 8.58075C9.65843 8.90069 9.06606 9.21826 9.06606 9.21826C8.9521 9.21826 8.28191 9.52014 7.78436 9.74935V8.66783C7.87123 8.61665 7.92369 8.58075 7.92369 8.58075ZM7.78415 7.50782V7.48224H7.85747C7.83188 7.49019 7.80823 7.49987 7.78415 7.50782ZM8.00927 11.4211C8.83084 11.1035 8.87663 11.5604 8.87663 11.5604C8.87921 11.5632 8.88072 11.5645 8.8833 11.5684H7.78415V11.4746C7.92369 11.4426 8.00927 11.4211 8.00927 11.4211ZM9.54318 20.8929C9.69175 21.1991 9.71992 22.0344 9.71992 22.0344V22.2047L9.70358 22.7742H8.05915V21.279C8.42123 21.0159 8.66463 20.5209 8.66463 20.5209C9.12885 20.3274 9.39374 20.5865 9.54318 20.8929ZM6.03437 18.48L7.15244 18.2508C7.2421 18.2628 7.26489 18.3531 7.25457 18.48C6.82519 18.48 6.41408 18.48 6.03437 18.48ZM7.14577 21.656C7.28252 21.4244 7.51044 21.4283 7.51044 21.4283C7.52678 21.4308 7.54118 21.4295 7.55623 21.4321C7.55623 22.0292 7.55623 22.888 7.55623 23.2821C7.87897 23.2821 8.75623 23.2821 9.72637 23.2821L9.68767 24.145C9.67713 24.5326 9.65176 25.3598 9.62015 25.5954C9.52791 26.296 9.36816 26.3942 9.26925 26.4585C9.12992 26.5462 8.92501 26.5828 8.62442 26.7111C7.8852 27.0227 7.94885 27.8017 7.59214 28.0283C7.15609 28.3059 7.27586 28.2169 6.8884 28.3031C6.49944 28.3895 6.29002 28.8202 6.29002 28.8202H14.2122C14.1815 28.5753 14.235 28.3541 13.307 28.0464C12.4022 27.7464 12.8591 27.5843 11.6933 26.9913C11.2736 26.7791 11.0524 26.025 10.9371 25.4606C10.85 25.0312 10.9016 24.8349 10.9016 24.8349L10.8565 23.5347L10.8552 23.2821C11.8686 23.2821 12.7976 23.2821 13.1313 23.2821C13.1313 22.9194 13.1326 21.9598 13.1326 20.9804C13.6747 21.0735 14.5807 21.791 14.5807 21.791C15.5391 22.3397 15.3572 21.7437 15.3572 21.7437C15.0834 19.7851 13.9424 19.6019 13.9424 19.6019C13.2588 19.4183 13.7144 19.0072 13.7144 19.0072C14.5367 18.3697 13.5659 18.1942 13.5659 18.1942C12.9277 18.282 12.2506 17.8513 12.2506 17.8513C11.1096 16.9833 11.5267 16.4268 11.5267 16.4268C11.6176 15.8336 12.9735 16.7134 12.9735 16.7134C13.3382 17.0329 13.7028 16.7567 13.7028 16.7567C13.748 16.5747 14.1735 16.2434 14.1735 16.2434C14.9493 15.6502 13.0776 15.5154 13.0776 15.5154C12.1872 14.9589 11.6406 14.7704 11.3762 14.0726C11.3016 13.8768 11.2977 13.7465 11.2977 13.7465C11.2977 13.7465 12.6998 13.8768 12.7778 13.8944C12.8563 13.9114 13.3618 13.9677 13.3487 13.791C13.3397 13.6613 13.0928 13.279 12.52 13.0212C12.0186 12.7972 11.5897 12.3568 11.417 12.0719C13.5715 12.0719 15.7461 12.0719 15.7461 12.0719L19.2616 15.4457V26.1332L15.8267 29.57H3.94809L0.500122 26.0827V20.7985H5.36524C4.80492 21.5697 4.46971 22.6497 4.46971 22.6497C4.42391 23.1972 5.1885 22.7416 5.1885 22.7416C5.1885 22.7416 5.26505 22.604 5.28999 22.5582C5.56112 22.101 6.29561 22.0565 6.29561 22.0565C6.65877 22.1445 7.14577 21.656 7.14577 21.656Z" fill="#31343C"/>
<path d="M10.5653 1.55921C10.5935 1.58329 10.6877 1.65597 10.9732 1.72026C11.1317 1.75616 11.2344 1.90366 11.237 2.07826C11.237 2.10384 11.2344 2.13201 11.2319 2.15889C11.2024 2.33563 11.0682 2.60676 10.8364 2.67341C10.8515 2.68395 10.9569 2.76587 10.9569 2.76587C11.3529 3.0742 11.6756 3.65474 11.3443 3.76482C11.7935 4.07186 11.9427 4.38944 11.9479 4.51307C11.961 4.79194 11.7961 4.85731 11.7666 4.89795C12.0285 5.02502 12.3166 5.27702 12.4428 5.64426L12.4761 5.74381L12.4407 5.84121C12.3753 6.02527 12.1089 6.32715 11.5307 6.28393L11.4961 6.27877L11.4621 6.26952C11.288 6.21469 11.1099 6.19298 11.0386 6.25598C11.0203 6.27361 10.9975 6.30048 10.9975 6.3594C10.9975 6.38219 11.0231 6.41702 11.0257 6.44239C11.0347 6.46024 11.0564 6.49357 11.0925 6.53743H13.3005V7.66647C13.7004 7.89825 14.0004 8.14896 14.0539 8.39321C14.0604 8.42267 14.0651 8.45342 14.0664 8.48417C14.0664 8.60199 14.0206 8.71595 13.9309 8.80625C13.8327 8.90516 13.7254 8.93849 13.3005 8.9V9.30466C13.3183 9.31971 13.3338 9.33412 13.3517 9.35175H18.7655V4.73475L15.1763 1.04382H10.5242C10.5214 1.05694 10.5191 1.06876 10.5176 1.07844C10.5668 1.15326 10.638 1.54997 10.5653 1.55921Z" fill="#31343C"/>
<path d="M7.65117 16.9243L7.67804 16.8942L7.71008 16.8706C7.78921 16.8183 7.85866 16.7568 7.9208 16.6953C7.90832 16.7005 7.8965 16.7046 7.8965 16.7046C5.55414 17.667 5.25892 17.4808 5.14776 17.4116C5.04756 17.3526 4.98865 17.2505 4.98027 17.1366C4.98027 17.1275 4.97898 17.1196 4.97898 17.1118C4.9764 16.7923 5.33052 16.6994 5.56747 16.6392C5.47114 16.562 5.38686 16.4416 5.38406 16.2989C5.38277 16.2765 5.38535 16.2531 5.38793 16.2294C5.40836 16.1142 5.49264 15.9624 5.75926 15.8839C5.90848 15.8159 6.06501 15.7308 6.09705 15.6811C6.10113 15.6747 6.13769 15.6209 6.13769 15.6209L6.16714 15.5906C6.20843 15.5489 6.56126 15.1756 6.9083 15.3184C7.00656 15.3184 7.08826 15.2881 7.13212 15.2582C7.14073 15.2137 7.16868 15.0408 7.16868 15.0408H7.92746C7.97842 14.843 8.00809 14.646 8.00659 14.5209C8.00659 14.5119 8.00401 14.5091 8.00272 14.4981C7.90188 14.4725 7.79974 14.4489 7.79974 14.4489L7.71008 14.4175L7.65117 14.3573C7.63096 14.3375 7.60537 14.3093 7.51571 14.3855L7.44368 14.4476L5.98718 14.5693L5.93944 14.3061C5.90741 14.1253 5.92439 13.506 7.50517 13.1068C7.62042 13.0648 7.92488 12.9105 7.99949 12.6617L8.01583 12.6054H6.78638V11.9951C6.2209 12.1104 5.70422 12.1962 5.54382 12.1706L5.43652 12.1517L5.36643 12.0685C5.34342 12.0422 5.17851 11.8393 5.17593 11.5488C5.17593 11.4899 5.18173 11.4264 5.19764 11.3609C5.27419 11.0323 5.55177 10.7646 6.02502 10.5578C6.23917 10.4668 6.57029 10.286 6.78638 10.0957V9.45604C6.5776 9.50571 6.38581 9.5098 6.24046 9.43713L6.19918 9.41562L6.16435 9.3823C6.15467 9.37714 6.03426 9.25264 6.03147 9.04322C6.03018 8.89336 6.09554 8.69876 6.30239 8.47365C6.35162 8.36743 6.49805 8.08211 6.78617 7.79485V6.53723H9.03285C9.11907 6.41403 9.17411 6.26932 9.17089 6.10312C9.17089 6.09796 9.17089 6.09194 9.1696 6.08527C9.03134 6.09774 8.78193 6.15537 8.37878 6.39618L8.27277 6.46111L8.15237 6.42972C8.01153 6.39382 7.54495 6.24116 7.5142 5.86037C7.51291 5.84983 7.51162 5.83865 7.51162 5.82833C7.50904 5.52129 7.79953 5.27187 8.07195 5.13642C8.07195 5.13642 8.06937 5.13512 8.06937 5.13362C8.02615 5.08266 7.96079 4.8698 7.96853 4.83583C7.981 4.46579 8.42866 4.18433 8.82665 3.88009C8.84449 3.8631 8.86256 3.84268 8.8804 3.82505C8.82794 3.79043 8.78085 3.7485 8.74752 3.68679C8.71549 3.62788 8.69979 3.57025 8.69979 3.51005C8.69635 3.28085 8.6742 2.94564 9.19002 2.5956C9.16573 2.56227 9.10939 2.48164 9.10939 2.48164C9.07994 2.43907 8.96598 2.16019 8.96469 1.95851C8.9634 1.8839 8.97974 1.80735 9.01844 1.73081C9.08123 1.60911 9.13369 1.46677 9.46094 1.45839C9.45836 1.45839 9.54415 1.45839 9.54415 1.45839C9.55318 1.4571 9.66327 1.22123 9.74239 1.06814C9.73981 1.06018 9.73981 1.05244 9.73723 1.04578H4.68957L0.992188 4.73671V14.8731L4.13827 18.022H5.74335C5.87171 17.7797 6.20434 17.4118 7.06246 17.2677C7.073 17.2649 7.44626 17.1667 7.65117 16.9243Z" fill="#31343C"/>
<path d="M5.54483 22.714L5.40808 22.9574L5.33928 22.998C5.15866 23.1066 4.7037 23.3371 4.39537 23.1447C4.31086 23.0896 4.17605 22.9654 4.17132 22.7076C4.17132 22.6826 4.17261 22.6577 4.17455 22.6304L4.17713 22.6001L4.18637 22.5687C4.2197 22.4588 4.39838 21.9142 4.69703 21.3328H0.99707V25.9141L4.14917 29.1152H5.82241L6.02345 28.6976C6.05162 28.6426 6.30877 28.1373 6.82072 28.0246L7.04735 27.9814C7.15335 27.9644 7.15335 27.9644 7.43093 27.7877C7.51543 27.7354 7.6038 27.5901 7.67648 27.4121C7.81989 27.0625 7.96847 26.6748 8.50514 26.4473C8.67264 26.3766 8.72317 26.345 8.86379 26.3084C8.95409 26.285 9.07192 26.2366 9.10653 26.2168C9.14588 26.1921 9.24866 26.1278 9.32391 25.5649C9.34284 25.418 9.371 25.0712 9.37896 24.6483C9.37896 24.6483 9.38799 24.143 9.38799 24.1376C9.38799 24.1376 9.38928 24.1103 9.38928 24.1088C9.3867 24.1116 9.36111 24.1456 9.36111 24.1456L9.37079 23.8183H7.06218V22.1122C6.85986 22.255 6.58249 22.3939 6.3049 22.3597C6.13719 22.367 5.69598 22.4547 5.54483 22.714Z" fill="#31343C"/>
<path d="M14.5 28.7326L14.5445 29.1149H15.6245L18.7674 25.965V15.6873L15.5376 12.6094H12.3673C12.4543 12.6657 12.5427 12.7192 12.6397 12.7618C13.2628 13.0394 13.6223 13.4924 13.6419 13.7786C13.6419 13.7851 13.6419 13.7917 13.6419 13.7995C13.6432 13.918 13.5855 14.0639 13.4139 14.1444C13.2961 14.2007 12.8588 14.2714 12.6375 14.1764C12.4352 14.1549 12.0869 14.1201 11.71 14.0867C11.8966 14.4632 12.2075 14.6602 12.741 14.9752C12.741 14.9752 13.0762 15.1769 13.1716 15.2343C13.787 15.2867 14.5122 15.4359 14.6365 15.8537C14.6471 15.8916 14.6554 15.9361 14.6554 15.9806C14.658 16.1221 14.592 16.3001 14.3538 16.4822C14.1886 16.6142 14.0121 16.7873 13.984 16.8501C13.9766 16.8709 13.9545 16.9417 13.9545 16.9417L13.8805 16.9995C13.6913 17.1408 13.2316 17.3085 12.8083 16.9641C12.4298 16.7168 11.9809 16.5216 11.808 16.5205C11.8039 16.5388 11.7981 16.5596 11.7981 16.5596L11.77 16.6015C11.7543 16.6291 11.745 16.6671 11.745 16.714C11.7476 16.892 11.8897 17.2064 12.4206 17.6147C12.4808 17.6487 13.0334 17.9776 13.5249 17.908L13.5707 17.9002L13.6178 17.9093C13.7193 17.9275 14.2261 18.0389 14.3241 18.4356C14.3869 18.696 14.2476 18.9658 13.9136 19.2301C13.9018 19.2434 13.8893 19.2563 13.8803 19.272C13.9059 19.2851 13.9483 19.3008 14.0145 19.3206C14.205 19.361 15.3643 19.6913 15.6484 21.7021C15.689 21.8644 15.6727 22.0844 15.4998 22.2231C15.2171 22.4497 14.7823 22.2521 14.4368 22.053L14.4179 22.0425L14.3996 22.0268C14.1646 21.8397 13.8857 21.6537 13.6324 21.5084V23.8153H11.1621L11.198 24.8445V24.86C11.198 24.8641 11.1509 25.0239 11.2275 25.4074C11.3657 26.0804 11.5857 26.6119 11.8297 26.7364C12.4675 27.0598 12.6676 27.2222 12.8267 27.4092C12.9545 27.5599 13.0297 27.6502 13.4034 27.7722C14.2749 28.0624 14.4574 28.3256 14.5 28.7326Z" fill="#31343C"/>
<path d="M11.7607 16.6113L11.7684 16.6011V16.5985L11.7607 16.6113Z" fill="#31343C"/>
<path d="M52.5263 18.4419C50.3046 19.259 50.0459 20.9492 50.0459 21.9037C50.0459 22.7153 50.3136 25.3641 53.8022 25.3641C55.4204 25.3641 56.4555 24.6255 57.0229 24.0351C57.2598 24.8521 57.9707 25.3366 58.9933 25.3366C60.1741 25.3366 60.8368 24.7436 61.5339 23.9041L61.6747 23.7222L61.2511 23.2391L61.0436 23.4171C60.9389 23.5061 60.8112 23.5455 60.6226 23.5455C59.8679 23.5455 59.7226 22.8413 59.7226 21.9312C59.7226 21.5697 59.7364 20.9767 59.7521 20.2934C59.7748 19.3009 59.8017 18.065 59.8017 16.9585C59.8017 15.6979 59.7604 14.4926 59.2197 13.6213C58.4944 12.5222 57.3271 12.0109 55.5328 12.0109C52.7697 12.0109 51.5095 13.7123 51.1932 14.7138L51.1291 14.912L51.774 15.2984L51.9133 15.0352C51.9185 15.0219 52.6327 13.6953 54.3722 13.6953C55.5546 13.6953 56.4271 14.2661 56.7328 15.1754C56.8848 15.6506 56.8848 15.8338 56.8848 16.6012V17.0097C55.3092 17.5019 54.819 17.5989 52.5263 18.4419ZM56.8876 22.9561C56.1983 23.4498 55.4101 23.5507 54.859 23.5507C53.187 23.5507 52.9376 22.3814 52.9376 21.6863C52.9376 20.7959 53.3253 20.038 54.0617 19.6634C54.5926 19.3979 55.174 19.1111 56.8879 18.5965V22.9561H56.8876Z" fill="#31343C"/>
<path d="M28.2522 24.7214C29.5575 25.1456 30.8274 25.3286 32.4981 25.3286C34.3663 25.3286 38.7117 24.8258 38.7117 20.1624C38.7117 17.4089 37.1484 16.3644 35.4876 15.2567L33.5383 13.9659C31.8395 12.844 31.063 12.3292 31.063 10.8145C31.063 9.71209 31.3955 8.24118 34.2524 8.24118C35.4674 8.24118 36.6162 8.48672 37.1353 9.00577C37.5117 9.38613 37.7115 9.87851 37.7584 10.5618L37.7741 10.8145H38.4275L38.4073 10.412C38.3856 9.87185 38.3955 9.34742 38.3955 8.74517C38.3955 7.98381 38.4137 7.28136 38.4137 7.27491L38.4223 7.04527L38.1899 7.00399C38.1192 6.99496 36.4139 6.70361 34.1986 6.70361C28.8052 6.70361 28.3881 10.3264 28.3881 11.4339C28.3881 13.7008 29.4767 14.838 31.6154 16.252L33.1545 17.2797L33.3874 17.4395C34.8451 18.4212 35.9011 19.1336 35.9011 20.8384C35.9011 22.8335 34.7594 23.7607 32.3058 23.7607C31.1366 23.7607 29.8766 23.3913 29.3292 22.772C28.9723 22.3702 28.7792 21.7993 28.7458 21.2192L28.7327 20.9496L27.9727 20.9481L28.0101 21.5923C28.0369 21.9902 28.0638 22.4773 28.0638 23.725V24.6586L28.2522 24.7214Z" fill="#31343C"/>
<path d="M48.7881 13.9779V12.3851H44.4078V9.49036H43.8462L43.5568 9.98274C43.5417 10.0051 42.6862 11.6259 41.4488 12.5848C41.0992 12.8553 40.7975 13.0779 40.0073 13.4051L39.8398 13.4737V13.9779H41.54L41.5294 14.8754C41.5077 16.7871 41.4894 18.4364 41.4894 20.4922C41.4894 21.2385 41.4894 22.4793 41.693 23.113C42.1794 24.7026 43.2844 25.4111 45.2739 25.4111C47.6122 25.4111 48.604 24.1173 48.6498 24.0664L48.7612 23.9421L48.5361 23.417L48.2703 23.5533C48.2652 23.5611 47.5829 23.904 46.6953 23.904C44.783 23.904 44.408 22.7546 44.408 20.7332V13.9794H48.7883V13.9779H48.7881Z" fill="#31343C"/>
<path d="M72.6508 21.9221C72.6205 22.7772 72.5958 23.7656 72.1795 24.1844C71.957 24.4057 71.6112 24.5459 71.1124 24.6244L70.8808 24.6532V25.249L71.178 25.2214C72.3261 25.1116 73.1484 25.1116 74.0989 25.1116C74.9317 25.1116 75.7277 25.1561 76.6533 25.2032L77.291 25.2359V24.6349L77.0369 24.6164C76.6677 24.593 76.2422 24.4412 76.0418 24.2552C75.6425 23.8834 75.5602 23.2863 75.5602 21.1626V17.4078C75.5602 16.7794 75.517 15.5933 75.3927 15.1063C74.9618 13.1392 73.4483 12.057 71.127 12.057C69.3542 12.057 68.0478 12.8091 67.3982 13.2916V12.2731L67.1454 12.1239L66.9975 12.1899C66.8405 12.2647 66.4006 12.5277 65.6437 12.6468C64.6538 12.8399 63.7157 12.8908 63.319 12.8908C63.2371 12.8908 63.1743 12.8908 63.1231 12.8844L62.8324 12.8627V13.5972L63.0745 13.624C63.1066 13.6253 63.1431 13.6305 63.1805 13.632C63.4914 13.6535 64.0733 13.6935 64.336 14.0732C64.5669 14.4161 64.5906 15.0958 64.5906 16.6772V20.3535C64.5906 22.5465 64.5672 23.6426 64.1685 24.0877C63.788 24.5156 63.2433 24.6009 63.0281 24.6192L62.7812 24.6375V25.2503L63.0694 25.2214C64.2221 25.1142 65.0935 25.1142 66.0256 25.1142C66.8321 25.1142 67.607 25.1561 68.4974 25.2006L69.1835 25.2371V24.6362L68.9307 24.6179C68.5576 24.593 68.1385 24.4412 67.9358 24.2552C67.5389 23.8858 67.4526 23.2876 67.4526 21.1639V14.4082C67.9934 14.1293 68.7133 13.8668 69.8617 13.8668C71.5323 13.8668 72.399 14.6413 72.5926 16.304C72.6973 17.2872 72.6973 18.2849 72.6973 19.246C72.6973 19.9854 72.6973 20.9964 72.6749 21.4768C72.6614 21.6339 72.6534 21.7806 72.6508 21.9221Z" fill="#31343C"/>
<path d="M84.1477 6.87219C84.4881 6.52903 85.0407 6.40862 85.4438 6.40862C86.414 6.40862 87.1224 6.83478 87.612 7.92619L87.68 8.08723L87.9876 8.08315L89.2629 6.30928L89.2251 6.03686L89.1255 5.95688C88.4304 5.39332 87.24 4.9762 85.9859 4.9762C83.0675 4.9762 81.3315 6.32282 80.8221 8.97846C80.6675 9.77724 80.6335 11.2494 80.6307 12.389C80.3009 12.6477 79.8504 12.8866 79.1224 13.1863L78.9549 13.259V13.979H80.6307V20.3557C80.6307 22.5486 80.6125 23.6327 80.2132 24.078C79.8335 24.5074 79.2901 24.5926 79.0704 24.6057L78.8203 24.628V25.2524L79.1175 25.2236C80.2684 25.1161 81.3536 25.1161 82.3068 25.1161C83.0688 25.1161 84.1213 25.1501 85.538 25.2236L85.8233 25.2406V24.5532H85.5509C85.229 24.5532 84.1331 24.5139 83.777 23.972C83.5504 23.6394 83.4954 22.8146 83.4954 21.1154V13.9803H86.3626V12.3877H83.4958V9.90087C83.4958 8.25709 83.59 7.42585 84.1477 6.87219Z" fill="#31343C"/>
<path d="M93.6155 25.4647C98.4454 25.4647 100.159 21.7542 100.159 18.5703C100.159 14.4769 97.8132 12.03 93.8866 12.03C89.0555 12.03 87.3457 15.7425 87.3457 18.9253C87.3457 23.0205 89.6917 25.4647 93.6155 25.4647ZM91.9567 14.1013C92.4046 13.7136 93.0184 13.5179 93.7768 13.5179C96.9424 13.5179 97.1022 17.8423 97.1022 18.7092C97.1022 20.9533 96.5812 22.5322 95.5493 23.3963C95.0937 23.784 94.4786 23.9803 93.7267 23.9803C90.5572 23.9803 90.3985 19.6546 90.3985 18.7905C90.4015 16.5462 90.9227 14.9658 91.9567 14.1013Z" fill="#31343C"/>
<path d="M107.482 14.2201C108.65 14.2201 109.254 14.7823 109.554 15.2539L109.635 15.3781H110.156L111.24 13.3959V12.9906L111.152 12.9074C110.622 12.4335 109.894 12.1921 108.997 12.1921C107.619 12.1921 106.639 12.8087 106.023 13.3893V12.2725L105.796 12.1527L105.647 12.22C105.43 12.3234 104.894 12.4838 104.27 12.5873C103.28 12.7816 102.344 12.8315 101.944 12.8315C101.863 12.8315 101.781 12.8302 101.734 12.8248L101.458 12.8175V13.5965L101.709 13.6234C101.735 13.6247 101.772 13.6299 101.809 13.6314C102.121 13.6529 102.701 13.6929 102.964 14.0726C103.194 14.4155 103.212 15.0952 103.212 16.6766V20.3529C103.212 22.5458 103.196 23.6024 102.797 24.0477C102.421 24.4773 101.871 24.5635 101.655 24.5781L101.402 24.5977V25.2496L101.701 25.2208C102.85 25.1135 103.932 25.1135 104.89 25.1135C105.647 25.1135 106.704 25.1475 108.119 25.2208L108.404 25.2378V24.5244H108.136C107.81 24.5244 106.723 24.4825 106.359 23.9445C106.138 23.6119 106.082 22.8118 106.082 21.1138V14.6318C106.487 14.3529 106.948 14.2201 107.482 14.2201Z" fill="#31343C"/>
<path d="M125.469 24.1059C125.164 24.0809 124.604 24.0194 124.339 23.6346C124.112 23.3254 124.091 22.3542 124.091 20.7856V10.3018C124.091 8.60037 124.101 6.33606 124.188 5.27432L124.198 5.14875L123.978 5.01587L123.85 5.06554C123.588 5.16165 123.085 5.27432 122.577 5.35624C121.37 5.59512 119.884 5.71961 119.823 5.71961H119.55L119.494 6.29499L119.739 6.31843C119.768 6.32187 119.802 6.32423 119.841 6.32574C120.148 6.35003 120.712 6.39261 120.972 6.76823C121.2 7.11118 121.222 7.96823 121.222 9.57137V12.3038C120.668 12.1853 119.744 12.0595 118.71 12.0595C115.887 12.0595 113.648 13.3963 112.572 15.7307C112.115 16.7374 111.87 17.9341 111.87 19.1911C111.87 22.9878 114.154 25.4362 117.683 25.4362C119.375 25.4362 120.639 24.7004 121.278 24.2291V25.3158L121.623 25.431L121.739 25.3788C121.967 25.2741 122.425 25.1835 123.051 25.0814C124.141 24.8956 125.261 24.8182 125.55 24.8182H125.819V24.1267L125.576 24.1164C125.547 24.111 125.51 24.1085 125.469 24.1059ZM121.221 23.0742C120.484 23.5324 119.634 23.6004 119.181 23.6004H119.063C115.329 23.6004 114.923 20.2735 114.923 18.8426C114.923 15.3155 116.147 13.5984 118.653 13.5984C120.231 13.5984 121.011 14.2529 121.221 14.4619V23.0742Z" fill="#31343C"/>
</svg>
