<svg width="89" height="28" viewBox="0 0 89 28" fill="none" xmlns="http://www.w3.org/2000/svg">
<g clip-path="url(#clip0)">
<path d="M9.6588 0.809082L6.62561 27.4587H3.19333L0.160156 0.809082H3.27316L4.78974 21.4616V21.6204V21.8587C4.74983 21.9382 4.74983 22.0176 4.78974 22.1367C4.82965 22.2559 4.86956 22.2956 4.90947 22.2956C4.94938 22.2956 4.98928 22.2559 5.02919 22.1367C5.0691 22.0176 5.0691 21.9382 5.02919 21.8587C4.98928 21.819 4.98928 21.819 5.02919 21.7793C5.02919 21.7396 5.02919 21.6999 5.02919 21.6601V21.5013L6.54581 0.848798L9.6588 0.809082Z" fill="black"/>
<path d="M18.8773 25.0361C19.0768 24.9963 19.2365 24.8772 19.3562 24.758C19.5558 24.5595 19.6755 24.4006 19.7553 24.2417C19.8351 24.0829 19.875 23.8048 19.875 23.368L19.915 22.0176H22.6688V23.2488C22.6288 23.4474 22.6289 23.646 22.6289 23.8048C22.5889 23.9637 22.5889 24.1226 22.5889 24.3212C22.5889 24.5197 22.549 24.6786 22.5091 24.8375C22.4293 25.1552 22.3096 25.5126 22.11 25.8304C21.9105 26.1481 21.7508 26.4261 21.5513 26.585C21.3916 26.7439 21.0724 26.9821 20.6333 27.2602C20.1943 27.5382 19.5957 27.697 18.8773 27.697H16.5226C15.7643 27.697 15.2055 27.5382 14.7665 27.2602C14.3275 26.9821 14.0082 26.7439 13.8486 26.585C13.6889 26.4261 13.4894 26.1481 13.2898 25.8304C13.0903 25.5126 12.9706 25.1552 12.8907 24.8375C12.8508 24.6786 12.8109 24.5197 12.771 24.3212C12.7311 24.1226 12.7311 23.9637 12.7311 23.8048C12.6912 23.646 12.6912 23.4474 12.7311 23.2488V4.97931C12.6912 4.78073 12.6912 4.58215 12.7311 4.42328C12.7311 4.26442 12.7311 4.10555 12.771 3.94669C12.8109 3.78782 12.8508 3.58924 12.8907 3.43037C12.9706 3.11264 13.0903 2.7552 13.2898 2.43747C13.4894 2.11974 13.649 1.84172 13.8486 1.68286C14.0082 1.52399 14.3275 1.28569 14.7665 1.00768C15.2055 0.729665 15.8042 0.570801 16.5226 0.570801H18.7576C19.5158 0.570801 20.0746 0.729665 20.5136 1.00768C20.9526 1.28569 21.2719 1.52399 21.4315 1.68286C21.5912 1.84172 21.7907 2.11974 21.9903 2.43747C22.1898 2.7552 22.3096 3.11264 22.3894 3.43037C22.4293 3.58924 22.4692 3.78782 22.4692 3.94669C22.4692 4.10555 22.4692 4.30413 22.5091 4.42328C22.5091 4.58215 22.5091 4.78073 22.549 4.97931V6.13108H19.7952V3.15236H17.1212C16.9217 3.19208 16.7221 3.2318 16.5226 3.27151C16.323 3.31123 16.2033 3.39066 16.0836 3.50981C15.884 3.70839 15.7643 3.86725 15.6845 4.02612C15.6046 4.18498 15.5647 4.463 15.5647 4.89988L15.5248 6.80626V21.5807L15.5647 23.4871C15.6046 23.924 15.6445 24.202 15.6845 24.3609C15.7643 24.5197 15.884 24.6786 16.0836 24.8772C16.2033 24.9963 16.4028 25.0758 16.6423 25.1552C16.8818 25.1949 17.1212 25.2346 17.3208 25.2346H18.3185C18.5181 25.1155 18.6777 25.1155 18.8773 25.0361Z" fill="black"/>
<path d="M31.3706 25.0359C31.5701 24.9962 31.7298 24.877 31.8495 24.7579C32.0491 24.5593 32.1688 24.4004 32.2486 24.2416C32.3284 24.0827 32.3683 23.8047 32.3683 23.3678L32.4083 22.0174H35.1621V23.2486C35.1222 23.4472 35.1222 23.6458 35.1222 23.8047C35.1222 24.0033 35.1222 24.1621 35.1222 24.3607C35.1222 24.5593 35.0822 24.7182 35.0423 24.877C34.9625 25.1947 34.8428 25.5522 34.6432 25.8699C34.4437 26.1877 34.2841 26.4657 34.0845 26.6245C33.9249 26.7834 33.6056 27.0217 33.1665 27.2997C32.7275 27.5777 32.1289 27.7366 31.4105 27.7366H29.0558C28.2975 27.7366 27.7388 27.5777 27.2997 27.2997C26.8607 27.0217 26.5414 26.7834 26.3818 26.6245C26.2222 26.4657 26.0226 26.1877 25.8231 25.8699C25.6235 25.5522 25.5038 25.1947 25.424 24.877C25.384 24.7182 25.3441 24.5593 25.3042 24.3607C25.2643 24.1621 25.2643 24.0033 25.2643 23.8444C25.2244 23.6855 25.2244 23.4869 25.2643 23.2884V5.01886C25.2244 4.82028 25.2244 4.6217 25.2643 4.46284C25.2643 4.30397 25.2643 4.1451 25.3042 3.98624C25.3441 3.82737 25.384 3.62879 25.424 3.46993C25.5038 3.1522 25.6235 2.79475 25.8231 2.47702C26.0226 2.15929 26.1822 1.88127 26.3818 1.72241C26.5414 1.56354 26.8607 1.32524 27.2997 1.04723C27.7388 0.769216 28.3374 0.610352 29.0558 0.610352H31.2908C32.0491 0.610352 32.6078 0.769216 33.0468 1.04723C33.4858 1.32524 33.8051 1.56354 33.9648 1.72241C34.1244 1.88127 34.324 2.15929 34.5235 2.47702C34.7231 2.79475 34.8428 3.1522 34.9226 3.46993C34.9625 3.62879 35.0024 3.82737 35.0024 3.98624C35.0024 4.1451 35.0024 4.34369 35.0423 4.46284C35.0423 4.6217 35.0424 4.82028 35.0823 5.01886V6.13092H32.3284V3.1522H29.6544C29.4549 3.19191 29.2553 3.23163 29.0558 3.27135C28.8562 3.31106 28.7365 3.39049 28.6168 3.50964C28.4172 3.70823 28.2975 3.86709 28.2177 4.02595C28.1379 4.18482 28.098 4.46284 28.098 4.89971L28.058 6.8061V21.5806L28.098 23.4869C28.1379 23.9238 28.1778 24.2018 28.2177 24.3607C28.2975 24.5196 28.4172 24.6784 28.6168 24.877C28.7365 24.9962 28.9361 25.0756 29.1755 25.155C29.415 25.1947 29.6544 25.2345 29.854 25.2345H30.8518C31.0114 25.1153 31.2109 25.1153 31.3706 25.0359Z" fill="black"/>
<path d="M63.0999 25.0361C63.2995 24.9963 63.4591 24.8772 63.5789 24.758C63.7784 24.5595 63.8981 24.4006 63.978 24.2417C64.0578 24.0829 64.0977 23.8048 64.0977 23.368L64.1376 22.0176H66.8914V23.2488C66.8515 23.4474 66.8515 23.646 66.8515 23.8048C66.8116 23.9637 66.8116 24.1226 66.8116 24.3212C66.8116 24.5197 66.7717 24.6786 66.7318 24.8375C66.652 25.1552 66.5322 25.5126 66.3327 25.8304C66.1331 26.1481 65.9735 26.4261 65.7739 26.585C65.6143 26.7439 65.295 26.9821 64.856 27.2602C64.417 27.5382 63.8183 27.697 63.0999 27.697H60.7452C59.9869 27.697 59.4282 27.5382 58.9892 27.2602C58.5502 26.9821 58.2309 26.7439 58.0712 26.585C57.9116 26.4261 57.7121 26.1481 57.5125 25.8304C57.313 25.5126 57.1932 25.1552 57.1134 24.8375C57.0735 24.6786 57.0336 24.5197 56.9937 24.3212C56.9538 24.1226 56.9538 23.9637 56.9538 23.8048C56.9139 23.646 56.9139 23.4474 56.9538 23.2488V4.97931C56.9139 4.78073 56.9139 4.58215 56.9538 4.42328C56.9538 4.26442 56.9538 4.10555 56.9937 3.94669C57.0336 3.78782 57.0735 3.58924 57.1134 3.43037C57.1932 3.11264 57.313 2.7552 57.5125 2.43747C57.7121 2.11974 57.8717 1.84172 58.0712 1.68286C58.2309 1.52399 58.5502 1.28569 58.9892 1.00768C59.4282 0.729665 60.0268 0.570801 60.7452 0.570801H62.9802C63.7385 0.570801 64.2972 0.729665 64.7363 1.00768C65.1753 1.28569 65.4945 1.52399 65.6542 1.68286C65.8138 1.84172 66.0134 2.11974 66.2129 2.43747C66.4125 2.7552 66.5322 3.11264 66.612 3.43037C66.6519 3.58924 66.6519 3.74811 66.6519 3.94669C66.6519 4.10555 66.6519 4.30413 66.6919 4.42328C66.6919 4.58215 66.6919 4.78073 66.7318 4.97931V6.13108H63.978V3.15236H61.304C61.1044 3.19208 60.9049 3.2318 60.7053 3.27151C60.5058 3.31123 60.386 3.39066 60.2663 3.50981C60.0668 3.70839 59.947 3.86725 59.8672 4.02612C59.7874 4.18498 59.7475 4.463 59.7475 4.89988L59.7076 6.80626V21.5807L59.7475 23.4871C59.7874 23.924 59.8273 24.202 59.8672 24.3609C59.947 24.5197 60.0668 24.6786 60.2663 24.8772C60.386 24.9963 60.5856 25.0758 60.825 25.1552C61.0645 25.1949 61.304 25.2346 61.5035 25.2346H62.5013C62.7008 25.1155 62.9004 25.1155 63.0999 25.0361Z" fill="black"/>
<path d="M69.2051 0.809082H71.919V24.8375H77.8656V27.4587H69.2051V0.809082Z" fill="black"/>
<path d="M80.1797 0.809082H88.6407V3.39064H82.9335V10.341H86.6452V12.9226H82.9335V24.8772H88.9999V27.4587H80.1797V0.809082Z" fill="black"/>
<path d="M40.7477 2.67575C40.7477 3.70837 39.9095 4.54241 38.8719 4.54241C37.8342 4.54241 36.9961 3.70837 36.9961 2.67575C36.9961 1.64313 37.8342 0.809082 38.8719 0.809082C39.9095 0.809082 40.7477 1.64313 40.7477 2.67575Z" fill="black"/>
<path d="M38.8734 6.3297C38.3546 6.3297 37.8757 6.17084 37.4766 5.89282V27.4588H40.2304V5.89282C39.8313 6.17084 39.3922 6.3297 38.8734 6.3297Z" fill="black"/>
<path d="M50.049 10.2616C50.049 12.3665 47.9737 12.2871 47.9737 12.2871H45.8983V3.39064H48.4526C50.0091 3.39064 50.0091 4.82043 50.0091 4.82043L50.049 10.2616ZM53.0024 25.4729V16.497C53.0024 16.497 52.7629 13.5977 50.049 13.5977C50.049 13.5977 52.8028 13.836 52.8028 11.5722V3.43036C52.8028 3.43036 52.8826 0.809082 49.4903 0.809082C46.0979 0.809082 43.1445 0.809082 43.1445 0.809082V27.4587H45.8983V15.4644H49.0912C49.0912 15.4644 50.2086 15.3453 50.2086 17.2516V25.9892C50.2086 25.9892 50.2087 27.5779 52.0445 27.5779H54.1598V27.419C54.1997 27.419 53.0024 26.7835 53.0024 25.4729Z" fill="black"/>
</g>
<defs>
<clipPath id="clip0">
<rect width="89" height="28" fill="white"/>
</clipPath>
</defs>
</svg>
