<?xml version="1.0" encoding="utf-8"?>
<!-- Generator: Adobe Illustrator 24.0.1, SVG Export Plug-In . SVG Version: 6.00 Build 0)  -->
<svg version="1.1" id="Layer_1" xmlns="http://www.w3.org/2000/svg" xmlns:xlink="http://www.w3.org/1999/xlink" x="0px" y="0px"
	 viewBox="0 0 448 512" style="enable-background:new 0 0 448 512;" xml:space="preserve">
<style type="text/css">
	.st0{fill:#FFFFFF;}
	.st1{fill:url(#shape_3_1_);}
	.st2{fill:url(#SVGID_1_);}
	.st3{fill-rule:evenodd;clip-rule:evenodd;fill:#FFFFFF;}
</style>
<g id="shape_4">
	
		<image style="overflow:visible;opacity:6.000000e-02;" width="496" height="496" xlink:href="278E47E9.png"  transform="matrix(1 0 0 1 -23.3181 13.5074)">
	</image>
	<g>
		
			<image style="overflow:visible;opacity:0.15;" width="438" height="439" xlink:href="278E47EB.png"  transform="matrix(1 0 0 1 4.6819 40.5074)">
		</image>
		<g>
			<path class="st0" d="M14.6,466.4l29.6-108c-18.2-31.6-27.9-67.5-27.8-104.2c0-115,93.6-208.5,208.6-208.5
				c55.8,0,108.2,21.7,147.5,61.1c39.4,39.4,61.1,91.8,61,147.5c0,115-93.6,208.5-208.6,208.5c0,0,0,0,0,0h-0.1
				c-34.9,0-69.2-8.8-99.7-25.4L14.6,466.4z M130.2,399.6l6.3,3.8c26.6,15.8,57.1,24.1,88.2,24.2h0.1c95.5,0,173.3-77.7,173.3-173.3
				c0-46.3-18-89.8-50.7-122.6c-32.7-32.8-76.3-50.8-122.6-50.8c-95.6,0-173.4,77.7-173.4,173.3c0,32.7,9.1,64.6,26.5,92.2l4.1,6.6
				l-17.5,63.9L130.2,399.6z"/>
		</g>
	</g>
</g>
<linearGradient id="shape_3_1_" gradientUnits="userSpaceOnUse" x1="223.9986" y1="459.0997" x2="223.9986" y2="52.9057">
	<stop  offset="0" style="stop-color:#20B038"/>
	<stop  offset="1" style="stop-color:#60D66A"/>
</linearGradient>
<path id="shape_3" class="st1" d="M21.8,459.1l28.6-104.3c-17.6-30.5-26.9-65.2-26.9-100.6c0-111,90.4-201.3,201.3-201.3
	c53.9,0,104.4,21,142.4,59c38,38,58.9,88.6,58.9,142.4c0,111-90.4,201.3-201.3,201.3c0,0,0,0,0,0h-0.1c-33.7,0-66.8-8.5-96.2-24.5
	L21.8,459.1z"/>
<g id="shape_2">
	
		<image style="overflow:visible;opacity:4.000000e-02;" width="444" height="445" xlink:href="278E47EE.png"  transform="matrix(1 0 0 1 1.6819 34.5074)">
	</image>
	<g>
		<g>
			<linearGradient id="SVGID_1_" gradientUnits="userSpaceOnUse" x1="224" y1="466.3801" x2="224" y2="45.6199">
				<stop  offset="0" style="stop-color:#F9F9F9"/>
				<stop  offset="1" style="stop-color:#FFFFFF"/>
			</linearGradient>
			<path class="st2" d="M14.6,466.4l29.6-108c-18.2-31.6-27.9-67.5-27.8-104.2c0-115,93.6-208.5,208.6-208.5
				c55.8,0,108.2,21.7,147.5,61.1c39.4,39.4,61.1,91.8,61,147.5c0,115-93.6,208.5-208.6,208.5c0,0,0,0,0,0h-0.1
				c-34.9,0-69.2-8.8-99.7-25.4L14.6,466.4z M130.2,399.6l6.3,3.8c26.6,15.8,57.1,24.1,88.2,24.2h0.1c95.5,0,173.3-77.7,173.3-173.3
				c0-46.3-18-89.8-50.7-122.6c-32.7-32.8-76.3-50.8-122.6-50.8c-95.6,0-173.4,77.7-173.4,173.3c0,32.7,9.1,64.6,26.5,92.2l4.1,6.6
				l-17.5,63.9L130.2,399.6z"/>
		</g>
	</g>
</g>
<g id="shape_1">
	
		<image style="overflow:visible;opacity:6.000000e-02;" width="237" height="221" xlink:href="278E47EF.png"  transform="matrix(1 0 0 1 106.6819 147.5074)">
	</image>
	<g>
		<path class="st3" d="M172.7,166.9c-3.9-8.7-8-8.9-11.7-9c-3-0.1-6.5-0.1-10-0.1c-3.5,0-9.1,1.3-13.9,6.5
			c-4.8,5.2-18.2,17.8-18.2,43.5c0,25.6,18.7,50.4,21.3,53.9c2.6,3.5,36.1,57.8,89,78.7c44,17.4,53,13.9,62.5,13
			s30.8-12.6,35.2-24.8c4.3-12.2,4.3-22.6,3-24.8c-1.3-2.2-4.8-3.5-10-6.1c-5.2-2.6-30.8-15.2-35.6-17c-4.8-1.7-8.3-2.6-11.7,2.6
			c-3.5,5.2-13.5,16.9-16.5,20.4c-3,3.5-6.1,3.9-11.3,1.3c-5.2-2.6-22-8.1-41.9-25.9c-15.5-13.8-26-30.9-29-36.1
			c-3-5.2-0.3-8,2.3-10.6c2.3-2.3,5.2-6.1,7.8-9.1c2.6-3,3.5-5.2,5.2-8.7c1.7-3.5,0.9-6.5-0.4-9.1
			C187.5,203,177.4,177.3,172.7,166.9z"/>
	</g>
</g>
</svg>
