<svg width="145" height="30" viewBox="0 0 145 30" fill="none" xmlns="http://www.w3.org/2000/svg">
<g clip-path="url(#clip0)">
<path d="M30.6124 0H0.819336V30H30.6124V0Z" fill="#31343C"/>
<path d="M14.7227 17L9.55859 7.30005H11.942L14.9214 13.4C14.9214 13.5 15.0207 13.6 15.12 13.7C15.2193 13.8 15.2193 13.9 15.3186 14.1L15.4179 14.2V14.3C15.5172 14.5 15.5172 14.6 15.6165 14.8C15.7158 14.9 15.7158 15.1 15.8151 15.2C15.9145 14.9 16.1131 14.7 16.2124 14.3C16.3117 14 16.5103 13.7 16.7089 13.4L19.6882 7.30005H21.8731L16.7089 17.1V23.3H14.7227V17Z" fill="white"/>
<path d="M44.2178 5.79993C45.7074 5.79993 46.9985 6.19993 47.9916 6.99993L46.9985 8.19993C46.1047 7.59993 45.2109 7.19993 44.1185 7.19993C42.4302 7.19993 41.1392 8.09993 40.444 9.79993C40.0468 10.7999 39.8481 12.0999 39.8481 13.7999C39.8481 15.0999 40.0468 16.1999 40.3447 16.9999C41.1392 18.8999 42.4302 19.7999 44.4164 19.7999C45.5088 19.7999 46.5019 19.4999 47.3957 18.7999L48.3888 20.0999C47.0978 20.8999 45.7074 21.2999 44.2178 21.2999C42.4302 21.2999 40.9405 20.5999 39.7488 19.0999C38.5571 17.6999 38.0605 15.7999 38.0605 13.4999C38.0605 11.1999 38.6564 9.39993 39.8481 7.89993C40.9405 6.59993 42.4302 5.79993 44.2178 5.79993Z" fill="#31343C"/>
<path d="M49.8789 15.7C49.8789 13.9 50.2761 12.5 51.1699 11.5C52.0637 10.5 53.1561 9.90002 54.5465 9.90002C56.1355 9.90002 57.4265 10.5 58.3203 11.8C59.0155 12.8 59.3134 14.2 59.3134 15.9C59.3134 17.9 58.7175 19.5 57.6251 20.5C56.8306 21.2 55.8375 21.6 54.6458 21.6C53.1561 21.6 52.0637 21.1 51.1699 20C50.2761 19 49.8789 17.5 49.8789 15.7ZM56.8306 12.8C56.3341 11.9 55.6389 11.4 54.5465 11.4C53.4541 11.4 52.7589 11.8 52.2624 12.6C51.8651 13.2 51.7658 14.2 51.7658 15.5C51.7658 17.2 51.9644 18.4 52.461 19.1C52.9575 19.8 53.6527 20.2 54.6458 20.2C55.8375 20.2 56.632 19.6 57.0293 18.5C57.2279 17.9 57.3272 17.1 57.3272 16.1C57.4265 14.6 57.2279 13.5 56.8306 12.8Z" fill="#31343C"/>
<path d="M62.491 13C62.491 11.9 62.3917 11 62.0938 10.3L63.782 9.90002C64.08 10.4 64.1793 11 64.1793 11.5V11.6C64.5765 11.2 64.9737 10.8 65.5696 10.5C66.2648 10.1 66.8606 9.90002 67.4565 9.90002C68.3503 9.90002 69.1448 10.3 69.6413 11C69.7406 11.2 69.9393 11.5 70.0386 11.7C71.2303 10.5 72.3227 9.90002 73.5144 9.90002C74.3089 9.90002 75.0041 10.2 75.5006 10.7C75.9972 11.3 76.2951 12 76.2951 12.8V21.1H74.5075V12.9C74.5075 11.8 74.011 11.3 73.1172 11.3C72.6206 11.3 72.0248 11.5 71.5282 11.9C71.3296 12.1 70.9324 12.4 70.4358 12.8L70.2372 13V21.1H68.3503V13.3C68.3503 12.6 68.251 12.1 68.0524 11.9C67.7544 11.6 67.4565 11.5 66.96 11.5C66.1655 11.5 65.2717 12 64.1793 13V21.2H62.491V13Z" fill="#31343C"/>
<path d="M79.374 5.4L81.1616 5C81.3602 5.8 81.4595 6.7 81.4595 7.8V10.3C81.4595 10.9 81.4595 11.3 81.4595 11.5C82.4526 10.5 83.5451 10 84.6375 10C85.9285 10 87.0209 10.5 87.7161 11.5C88.5106 12.5 88.9078 13.9 88.9078 15.6C88.9078 17.4 88.5106 18.8 87.7161 19.9C86.9216 21 85.8292 21.5 84.5382 21.5C83.9423 21.5 83.4458 21.4 82.8499 21.1C82.254 20.8 81.8568 20.5 81.5589 20.1C81.4595 20.6 81.3602 21 81.2609 21.3H79.5726C79.7713 20.8 79.8706 19.9 79.8706 18.5V8C79.7713 6.8 79.672 5.9 79.374 5.4ZM82.254 12.2C81.9561 12.4 81.6582 12.7 81.4595 13V18.7C82.1547 19.6 83.0485 20 84.1409 20C85.0347 20 85.7299 19.7 86.1271 19C86.6237 18.2 86.9216 17.1 86.9216 15.5C86.9216 14.1 86.723 13.1 86.2264 12.5C85.8292 11.9 85.134 11.6 84.1409 11.6C83.5451 11.5 82.8499 11.7 82.254 12.2Z" fill="#31343C"/>
<path d="M91.4893 6.80002C91.4893 6.40002 91.5886 6.10002 91.8865 5.80002C92.1844 5.50002 92.4824 5.40002 92.8796 5.40002C93.2768 5.40002 93.5748 5.50002 93.8727 5.80002C94.1706 6.10002 94.2699 6.40002 94.2699 6.80002C94.2699 7.20002 94.1706 7.50002 93.8727 7.80002C93.5748 8.10002 93.2768 8.20002 92.8796 8.20002C92.4824 8.20002 92.1844 8.10002 91.8865 7.80002C91.5886 7.50002 91.4893 7.20002 91.4893 6.80002ZM91.8865 21.2V10.2L93.6741 9.90002V21.2H91.8865Z" fill="#31343C"/>
<path d="M97.5473 13C97.5473 12.2 97.5473 11.7 97.448 11.5C97.448 11.2 97.2494 10.9 97.0508 10.4L98.7391 9.90002C99.037 10.5 99.1363 11 99.1363 11.6C100.229 10.5 101.42 9.90002 102.612 9.90002C103.208 9.90002 103.705 10 104.201 10.3C104.698 10.6 105.095 11 105.294 11.5C105.492 11.9 105.591 12.3 105.591 12.8V21.2H103.903V13.7C103.903 12.8 103.804 12.2 103.506 11.9C103.208 11.6 102.811 11.4 102.314 11.4C101.917 11.4 101.321 11.6 100.725 11.9C100.129 12.2 99.6328 12.6 99.2356 13V21.2H97.5473V13Z" fill="#31343C"/>
<path d="M109.564 12.6L108.67 11.4C110.16 10.4 111.65 9.90002 113.239 9.90002C114.828 9.90002 115.821 10.5 116.317 11.6C116.516 12 116.516 12.6 116.516 13.5V14.1L116.417 17.7C116.417 17.8 116.417 18 116.417 18.2C116.417 18.8 116.417 19.2 116.516 19.5C116.615 19.9 116.913 20.2 117.31 20.4L116.417 21.6C115.622 21.3 115.126 20.8 114.927 20C113.934 21 112.841 21.5 111.749 21.5C110.657 21.5 109.763 21.2 109.068 20.6C108.472 20.1 108.174 19.3 108.174 18.3C108.174 17 108.67 16.1 109.663 15.4C110.657 14.7 112.146 14.4 113.934 14.4C114.232 14.4 114.43 14.4 114.728 14.4V13.6C114.728 12.7 114.629 12.1 114.331 11.9C113.934 11.5 113.537 11.3 112.841 11.3C112.246 11.3 111.55 11.5 110.756 11.8C110.458 12 110.061 12.3 109.564 12.6ZM114.828 18.5L114.927 15.6C114.43 15.6 114.132 15.6 114.033 15.6C112.444 15.6 111.451 15.9 110.855 16.5C110.458 16.9 110.259 17.5 110.259 18.3C110.259 19.6 110.855 20.3 112.146 20.3C113.338 20.2 114.232 19.6 114.828 18.5Z" fill="#31343C"/>
<path d="M122.176 10.2H124.957L124.46 11.6H122.176V18.7C122.176 19.3 122.275 19.7 122.474 20C122.673 20.2 123.07 20.4 123.566 20.4C123.964 20.4 124.361 20.3 124.659 20.2L124.857 21.3C124.261 21.6 123.666 21.7 122.97 21.7C121.282 21.7 120.488 20.9 120.488 19.2V11.6H118.998V10.2H120.388V10C120.388 9.8 120.488 9 120.587 7.7V7.4L122.375 7C122.176 8.2 122.176 9.3 122.176 10.2Z" fill="#31343C"/>
<path d="M126.745 15.7C126.745 13.9 127.142 12.5 128.036 11.5C128.831 10.5 130.022 9.90002 131.413 9.90002C133.002 9.90002 134.293 10.5 135.186 11.8C135.882 12.8 136.18 14.2 136.18 15.9C136.18 17.9 135.584 19.5 134.491 20.5C133.697 21.2 132.704 21.6 131.512 21.6C130.022 21.6 128.93 21.1 128.036 20C127.242 19 126.745 17.5 126.745 15.7ZM133.796 12.8C133.3 11.9 132.604 11.4 131.512 11.4C130.42 11.4 129.724 11.8 129.228 12.6C128.831 13.2 128.731 14.2 128.731 15.5C128.731 17.2 128.93 18.4 129.426 19.1C129.923 19.8 130.618 20.2 131.611 20.2C132.803 20.2 133.598 19.6 133.995 18.5C134.193 17.9 134.293 17.1 134.293 16.1C134.293 14.6 134.094 13.5 133.796 12.8Z" fill="#31343C"/>
<path d="M139.456 12.8C139.456 11.8 139.357 11 139.059 10.4L140.747 9.90002C141.045 10.5 141.144 11 141.144 11.6V11.8C142.038 10.6 143.031 10 144.223 10C144.421 10 144.62 10 144.819 10.1L144.123 12C143.925 11.9 143.726 11.9 143.627 11.9C143.23 11.9 142.733 12 142.336 12.3C141.939 12.6 141.541 12.9 141.343 13.3C141.243 13.6 141.144 14 141.144 14.5V21.4H139.456V12.8Z" fill="#31343C"/>
</g>
<defs>
<clipPath id="clip0">
<rect width="144" height="30" fill="white" transform="translate(0.819336)"/>
</clipPath>
</defs>
</svg>
