<svg width="127" height="26" viewBox="0 0 127 26" fill="none" xmlns="http://www.w3.org/2000/svg">
<path fill-rule="evenodd" clip-rule="evenodd" d="M5.0504 25.6736V17.2608L0 0.290095H4.17839L7.19409 11.8577H7.26676L10.2825 0.290095H14.0975L9.04711 17.2608V25.6736H5.0504ZM18.8209 6.12831V19.8354C18.8209 21.6485 19.6203 22.3375 20.8919 22.3375C22.1636 22.3375 22.963 21.6485 22.963 19.8354V6.12831C22.963 4.31521 22.1636 3.62622 20.8919 3.62622C19.6203 3.62622 18.8209 4.31521 18.8209 6.12831ZM14.8242 19.5816V6.38215C14.8242 2.32078 16.9679 0 20.8919 0C24.816 0 26.9597 2.32078 26.9597 6.38215V19.5816C26.9597 23.643 24.816 25.9637 20.8919 25.9637C16.9679 25.9637 14.8242 23.643 14.8242 19.5816ZM29.3577 0.290095H33.3544V19.8717C33.3544 21.6848 34.1538 22.3375 35.4254 22.3375C36.6971 22.3375 37.4965 21.6848 37.4965 19.8717V0.290095H41.2752V19.6179C41.2752 23.6792 39.2405 26 35.3164 26C31.3924 26 29.3577 23.6792 29.3577 19.6179V0.290095ZM56.4264 25.6736H52.357C52.139 25.0209 51.9937 24.622 51.9937 22.5551V18.5662C51.9937 16.2092 51.1943 15.3389 49.3776 15.3389H47.9969V25.6736H44.0002V0.290095H50.0316C54.1737 0.290095 55.954 2.212 55.954 6.12831V8.12273C55.954 10.7336 55.1184 12.4017 53.338 13.2357V13.3082C55.3364 14.1423 55.9904 16.0279 55.9904 18.675V22.5914C55.9904 23.8243 56.0267 24.7308 56.4264 25.6736ZM49.9226 3.91632H47.9969V11.7127H49.5593C51.049 11.7127 51.9573 11.06 51.9573 9.02929V6.5272C51.9573 4.71409 51.3396 3.91632 49.9226 3.91632ZM58.0977 6.38215C58.0977 2.32078 60.0961 0 63.9838 0C67.8715 0 69.8699 2.32078 69.8699 6.38215V7.17992H66.0912V6.12831C66.0912 4.31521 65.3645 3.62622 64.0928 3.62622C62.8211 3.62622 62.0945 4.31521 62.0945 6.12831C62.0945 7.97769 62.8938 9.35564 65.5098 11.6402C68.8525 14.5774 69.9062 16.6806 69.9062 19.5816C69.9062 23.643 67.8715 25.9637 63.9475 25.9637C60.0234 25.9637 57.9887 23.643 57.9887 19.5816V18.0223H61.7675V19.8354C61.7675 21.6485 62.5668 22.3013 63.8385 22.3013C65.1102 22.3013 65.9095 21.6485 65.9095 19.8354C65.9095 17.986 65.1102 16.6081 62.4941 14.3236C59.1514 11.3863 58.0977 9.28312 58.0977 6.38215ZM71.0326 3.91632V0.290095H83.3861V3.91632H79.2077V25.6736H75.211V3.91632H71.0326ZM88.7998 6.12831V19.8354C88.7998 21.6485 89.5991 22.3375 90.8708 22.3375C92.1425 22.3375 92.9418 21.6485 92.9418 19.8354V6.12831C92.9418 4.31521 92.1425 3.62622 90.8708 3.62622C89.5991 3.62622 88.7998 4.31521 88.7998 6.12831ZM84.8031 19.5816V6.38215C84.8031 2.32078 86.9468 0 90.8708 0C94.7949 0 96.9386 2.32078 96.9386 6.38215V19.5816C96.9386 23.643 94.7949 25.9637 90.8708 25.9637C86.9468 25.9637 84.8031 23.643 84.8031 19.5816ZM111.944 25.6736H107.875C107.657 25.0209 107.512 24.622 107.512 22.5551V18.5662C107.512 16.2092 106.712 15.3389 104.896 15.3389H103.515V25.6736H99.5183V0.290095H105.55C109.692 0.290095 111.472 2.212 111.472 6.12831V8.12273C111.472 10.7336 110.636 12.4017 108.856 13.2357V13.3082C110.854 14.1423 111.508 16.0279 111.508 18.675V22.5914C111.508 23.8243 111.545 24.7308 111.944 25.6736ZM105.441 3.91632H103.515V11.7127H105.077C106.567 11.7127 107.475 11.06 107.475 9.02929V6.5272C107.475 4.71409 106.858 3.91632 105.441 3.91632ZM117.503 25.6736V17.2608L112.453 0.290095H116.631L119.647 11.8577H119.72L122.736 0.290095H126.551L121.5 17.2608V25.6736H117.503Z" fill="black"/>
</svg>
