<svg width="21" height="20" viewBox="0 0 21 20" fill="none" xmlns="http://www.w3.org/2000/svg">
<g clip-path="url(#clip0)">
<path d="M20.0838 5.42252C19.9706 5.01855 19.75 4.65281 19.4455 4.36419C19.1324 4.06669 18.7487 3.85389 18.3305 3.74586C16.7655 3.33336 10.4955 3.33336 10.4955 3.33336C7.88162 3.30362 5.26837 3.43442 2.67051 3.72502C2.25234 3.84103 1.86932 4.05859 1.55551 4.35836C1.24718 4.65502 1.02385 5.02086 0.907181 5.42169C0.626925 6.93148 0.490758 8.46448 0.500514 10C0.490514 11.5342 0.626348 13.0667 0.907181 14.5784C1.02135 14.9775 1.24385 15.3417 1.55301 15.6359C1.86218 15.93 2.24718 16.1425 2.67051 16.255C4.25635 16.6667 10.4955 16.6667 10.4955 16.6667C13.1127 16.6965 15.7293 16.5657 18.3305 16.275C18.7487 16.167 19.1324 15.9542 19.4455 15.6567C19.7538 15.3625 19.973 14.9967 20.083 14.5984C20.3706 13.0892 20.5104 11.5555 20.5005 10.0192C20.5221 8.47636 20.3825 6.93549 20.0838 5.42169V5.42252ZM8.50218 12.8534V7.14752L13.7188 10.0009L8.50218 12.8534Z" fill="#E8E9ED"/>
</g>
<defs>
<clipPath id="clip0">
<rect width="20" height="20" fill="white" transform="translate(0.5)"/>
</clipPath>
</defs>
</svg>
